<?xml version="1.0" encoding="utf-8"?>
<!-- Generator: Adobe Illustrator 26.0.1, SVG Export Plug-In . SVG Version: 6.00 Build 0)  -->
<svg version="1.1" id="Layer_1" xmlns="http://www.w3.org/2000/svg" xmlns:xlink="http://www.w3.org/1999/xlink" x="0px" y="0px"
	 viewBox="0 0 1920 911" style="enable-background:new 0 0 1920 911;" xml:space="preserve">
<style type="text/css">
	.st0{clip-path:url(#SVGID_00000150102900816824865770000010933220989965131394_);}
	.st1{enable-background:new    ;}
	.st2{fill:none;stroke:#000000;stroke-width:3;stroke-miterlimit:10;}
	.st3{fill:none;stroke:#FFFFFF;stroke-width:3;}
	.st4{fill:#FFFFFF;}
	.st5{fill:none;stroke:#000000;stroke-width:3;}
</style>
<g id="Group_162659" transform="translate(0 -9878)">
	<g>
		<defs>
			<rect id="SVGID_1_" y="9878" width="1920" height="911"/>
		</defs>
		<clipPath id="SVGID_00000020358019992608997370000013579657085896801666_">
			<use xlink:href="#SVGID_1_"  style="overflow:visible;"/>
		</clipPath>
		<g id="Mask_Group_5" style="clip-path:url(#SVGID_00000020358019992608997370000013579657085896801666_);">
			
				<image style="overflow:visible;enable-background:new    ;" width="8000" height="4500" id="Gas-01" xlink:href="A898EB39.jpeg"  transform="matrix(0.24 0 0 0.24 0 9736)">
			</image>
		</g>
	</g>
	<g id="Group_162658">
		<g class="st1">
			<path d="M601.9,10752.3c0,0.8-0.3,1.5-0.9,2s-1.4,0.9-2.4,1v0.1c1.2,0.1,2.1,0.4,2.7,1s0.9,1.2,0.9,2.1c0,1.2-0.5,2.1-1.4,2.8
				s-2.3,1-4,1c-1.9,0-3.4-0.2-4.5-0.7v-2.3c0.6,0.3,1.2,0.5,1.9,0.6c0.7,0.1,1.4,0.2,2.1,0.2c2.2,0,3.2-0.6,3.2-1.9
				c0-0.6-0.3-1-1-1.3s-1.7-0.5-3.1-0.5h-1.2v-2.1h1.1c1.4,0,2.3-0.1,3-0.4s0.9-0.7,0.9-1.3c0-0.4-0.2-0.8-0.6-1s-1-0.4-1.8-0.4
				c-1.2,0-2.4,0.3-3.5,1l-1.2-1.8c0.7-0.5,1.5-0.8,2.3-1.1s1.7-0.3,2.7-0.3c1.4,0,2.5,0.3,3.4,0.9S601.9,10751.4,601.9,10752.3z"/>
			<path d="M610.8,10762.2l-0.5-1.3h-0.1c-0.5,0.6-0.9,1-1.4,1.2c-0.5,0.2-1.1,0.3-1.9,0.3c-0.9,0-1.7-0.3-2.2-0.8s-0.8-1.3-0.8-2.3
				c0-1,0.4-1.8,1.1-2.3s1.8-0.8,3.3-0.8l1.7-0.1v-0.4c0-1-0.5-1.5-1.5-1.5c-0.8,0-1.7,0.2-2.8,0.7l-0.9-1.8
				c1.1-0.6,2.4-0.9,3.8-0.9c1.3,0,2.3,0.3,3,0.9s1.1,1.4,1.1,2.6v6.5H610.8z M610,10757.6l-1,0c-0.8,0-1.4,0.2-1.7,0.4
				s-0.6,0.7-0.6,1.2c0,0.8,0.4,1.1,1.3,1.1c0.6,0,1.1-0.2,1.5-0.5s0.6-0.8,0.6-1.4V10757.6z"/>
			<path d="M624.3,10752.4v9.8h-2.7v-7.8h-3.6v7.8h-2.7v-9.8H624.3z"/>
			<path d="M633.4,10762.2l-0.5-1.3h-0.1c-0.5,0.6-0.9,1-1.4,1.2c-0.5,0.2-1.1,0.3-1.9,0.3c-0.9,0-1.7-0.3-2.2-0.8s-0.8-1.3-0.8-2.3
				c0-1,0.4-1.8,1.1-2.3s1.8-0.8,3.3-0.8l1.7-0.1v-0.4c0-1-0.5-1.5-1.5-1.5c-0.8,0-1.7,0.2-2.8,0.7l-0.9-1.8
				c1.1-0.6,2.4-0.9,3.8-0.9c1.3,0,2.3,0.3,3,0.9s1.1,1.4,1.1,2.6v6.5H633.4z M632.6,10757.6l-1,0c-0.8,0-1.4,0.2-1.7,0.4
				s-0.6,0.7-0.6,1.2c0,0.8,0.4,1.1,1.3,1.1c0.6,0,1.1-0.2,1.5-0.5s0.6-0.8,0.6-1.4V10757.6z"/>
			<path d="M648.3,10765.7h-2.4v-3.5h-6.6v3.5h-2.4v-5.5h0.8c0.6-0.9,1-2,1.4-3.3s0.6-2.9,0.8-4.6h6.9v7.9h1.4V10765.7z
				 M644.2,10760.2v-5.9h-2c-0.1,1.1-0.3,2.1-0.6,3.1c-0.3,1-0.6,1.9-1.1,2.8H644.2z"/>
		</g>
		<g class="st1">
			<path d="M1271.2,10749.3h4c1.8,0,3.1,0.3,4,0.8c0.8,0.5,1.2,1.3,1.2,2.5c0,0.8-0.2,1.4-0.5,1.9s-0.8,0.8-1.4,0.9v0.1
				c0.8,0.2,1.4,0.5,1.8,1s0.5,1.2,0.5,2c0,1.2-0.4,2.1-1.3,2.7s-2,1-3.5,1h-4.8V10749.3z M1274,10754.4h1.6c0.7,0,1.3-0.1,1.6-0.3
				s0.5-0.6,0.5-1.1c0-0.5-0.2-0.8-0.5-1.1c-0.4-0.2-0.9-0.3-1.7-0.3h-1.4V10754.4z M1274,10756.6v3.3h1.8c0.8,0,1.3-0.1,1.7-0.4
				s0.5-0.7,0.5-1.3c0-1.1-0.8-1.6-2.3-1.6H1274z"/>
			<path d="M1292.1,10757.3c0,1.6-0.4,2.9-1.3,3.8s-2,1.4-3.5,1.4c-0.9,0-1.8-0.2-2.5-0.6c-0.7-0.4-1.3-1-1.7-1.8s-0.6-1.7-0.6-2.7
				c0-1.6,0.4-2.9,1.3-3.7s2-1.3,3.5-1.3c0.9,0,1.8,0.2,2.5,0.6s1.3,1,1.7,1.8S1292.1,10756.2,1292.1,10757.3z M1285.3,10757.3
				c0,1,0.2,1.7,0.5,2.2s0.8,0.7,1.6,0.7c0.7,0,1.2-0.2,1.5-0.7c0.3-0.5,0.5-1.2,0.5-2.2c0-1-0.2-1.7-0.5-2.2s-0.8-0.7-1.6-0.7
				c-0.7,0-1.2,0.2-1.5,0.7C1285.4,10755.6,1285.3,10756.3,1285.3,10757.3z"/>
			<path d="M1298.3,10762.4c-3.1,0-4.6-1.7-4.6-5c0-1.7,0.4-2.9,1.2-3.8s2-1.3,3.6-1.3c1.1,0,2.2,0.2,3.1,0.7l-0.8,2.1
				c-0.4-0.2-0.8-0.3-1.2-0.4s-0.7-0.2-1.1-0.2c-1.4,0-2.1,1-2.1,3c0,1.9,0.7,2.9,2.1,2.9c0.5,0,1-0.1,1.4-0.2s0.9-0.4,1.3-0.6v2.3
				c-0.4,0.3-0.9,0.5-1.3,0.6S1298.9,10762.4,1298.3,10762.4z"/>
			<path d="M1311.7,10752.4v2h-3.2v7.8h-2.7v-7.8h-3.2v-2H1311.7z"/>
			<path d="M1322.4,10757.3c0,1.6-0.4,2.9-1.3,3.8s-2,1.4-3.5,1.4c-0.9,0-1.8-0.2-2.5-0.6c-0.7-0.4-1.3-1-1.7-1.8s-0.6-1.7-0.6-2.7
				c0-1.6,0.4-2.9,1.3-3.7s2-1.3,3.5-1.3c0.9,0,1.8,0.2,2.5,0.6s1.3,1,1.7,1.8S1322.4,10756.2,1322.4,10757.3z M1315.6,10757.3
				c0,1,0.2,1.7,0.5,2.2s0.8,0.7,1.6,0.7c0.7,0,1.2-0.2,1.5-0.7c0.3-0.5,0.5-1.2,0.5-2.2c0-1-0.2-1.7-0.5-2.2s-0.8-0.7-1.6-0.7
				c-0.7,0-1.2,0.2-1.5,0.7C1315.8,10755.6,1315.6,10756.3,1315.6,10757.3z"/>
			<path d="M1331.1,10752.4h3l-3.9,4.7l4.2,5.1h-3l-4-5v5h-2.7v-9.8h2.7v4.8L1331.1,10752.4z"/>
		</g>
		<line id="Line_655" class="st2" x1="620" y1="10731" x2="1238" y2="10731"/>
		<line id="Line_656" class="st2" x1="1237.9" y1="10731" x2="1301.5" y2="10731"/>
		<g class="st1">
			<path d="M586.9,10692.6c0,6.3-1.3,11.1-4,14.2c-2.7,3.1-6.7,4.7-12.1,4.7c-1.9,0-3.3-0.1-4.3-0.3v-5.4c1.2,0.3,2.5,0.5,3.9,0.5
				c2.3,0,4.1-0.3,5.6-1c1.5-0.7,2.6-1.7,3.4-3.1c0.8-1.4,1.2-3.4,1.3-5.9h-0.3c-0.8,1.4-1.8,2.3-2.9,2.9s-2.5,0.8-4.2,0.8
				c-2.8,0-5-0.9-6.6-2.7c-1.6-1.8-2.4-4.3-2.4-7.5c0-3.4,1-6.2,2.9-8.2c2-2,4.6-3,8-3c2.4,0,4.4,0.6,6.2,1.7
				c1.8,1.1,3.1,2.7,4.1,4.8C586.4,10687.1,586.9,10689.7,586.9,10692.6z M575.3,10684c-1.4,0-2.5,0.5-3.3,1.5s-1.2,2.4-1.2,4.2
				c0,1.6,0.4,2.8,1.1,3.7c0.7,0.9,1.8,1.4,3.3,1.4c1.4,0,2.6-0.5,3.5-1.4c1-0.9,1.5-1.9,1.5-3.1c0-1.7-0.5-3.2-1.4-4.4
				S576.7,10684,575.3,10684z"/>
			<path d="M607.1,10711h-6.8v-18.6l0.1-3.1l0.1-3.3c-1.1,1.1-1.9,1.9-2.4,2.2l-3.7,3l-3.3-4.1l10.3-8.2h5.6V10711z"/>
			<path d="M616.7,10707.9c0-1.2,0.3-2.2,1-2.8s1.6-0.9,2.9-0.9c1.2,0,2.2,0.3,2.8,1c0.7,0.6,1,1.6,1,2.8c0,1.2-0.3,2.1-1,2.7
				c-0.7,0.7-1.6,1-2.8,1c-1.2,0-2.2-0.3-2.9-1C617.1,10710,616.7,10709,616.7,10707.9z"/>
			<path d="M650,10686.1c0,2-0.6,3.7-1.8,5.1s-2.9,2.4-5.1,2.9v0.1c2.6,0.3,4.6,1.1,5.9,2.4c1.3,1.3,2,2.9,2,5.1
				c0,3.1-1.1,5.5-3.4,7.2c-2.2,1.7-5.4,2.6-9.6,2.6c-3.5,0-6.6-0.6-9.3-1.7v-5.8c1.2,0.6,2.6,1.1,4.1,1.5s3,0.6,4.4,0.6
				c2.2,0,3.9-0.4,5-1.1s1.6-2,1.6-3.7c0-1.5-0.6-2.6-1.8-3.2s-3.2-0.9-5.9-0.9h-2.4v-5.2h2.5c2.5,0,4.3-0.3,5.5-1
				c1.2-0.7,1.7-1.8,1.7-3.4c0-2.4-1.5-3.6-4.6-3.6c-1.1,0-2.1,0.2-3.2,0.5c-1.1,0.4-2.3,1-3.6,1.8l-3.1-4.7
				c2.9-2.1,6.4-3.2,10.5-3.2c3.3,0,6,0.7,7.9,2C649,10681.8,650,10683.7,650,10686.1z"/>
			<path d="M669.3,10688.5c0,3.4-0.7,5.9-2,7.6c-1.3,1.7-3.2,2.5-5.7,2.5c-2.4,0-4.3-0.9-5.6-2.6c-1.3-1.7-2-4.2-2-7.5
				c0-6.7,2.5-10,7.6-10c2.5,0,4.4,0.9,5.7,2.6C668.7,10682.8,669.3,10685.2,669.3,10688.5z M659.6,10688.5c0,1.9,0.2,3.2,0.5,4.2
				c0.3,0.9,0.9,1.4,1.6,1.4c1.4,0,2.1-1.8,2.1-5.5c0-3.7-0.7-5.5-2.1-5.5c-0.7,0-1.3,0.5-1.6,1.4
				C659.8,10685.3,659.6,10686.6,659.6,10688.5z M684.4,10678.9l-17.8,32.1h-5.3l17.8-32.1H684.4z M691.8,10701.3
				c0,3.4-0.7,5.9-2,7.6c-1.3,1.7-3.2,2.5-5.7,2.5c-2.4,0-4.3-0.9-5.6-2.6c-1.3-1.7-2-4.2-2-7.5c0-6.7,2.5-10,7.6-10
				c2.5,0,4.4,0.9,5.7,2.6C691.2,10695.6,691.8,10698.1,691.8,10701.3z M682.1,10701.3c0,1.9,0.2,3.2,0.5,4.2
				c0.3,0.9,0.9,1.4,1.6,1.4c1.4,0,2.1-1.8,2.1-5.5c0-3.7-0.7-5.5-2.1-5.5c-0.7,0-1.3,0.5-1.6,1.4
				C682.3,10698.1,682.1,10699.5,682.1,10701.3z"/>
		</g>
		<g class="st1">
			<path d="M1262.5,10679.5c3.1,0,5.6,0.7,7.4,2.1c1.9,1.4,2.8,3.3,2.8,5.7c0,1.6-0.5,3.1-1.4,4.4c-0.9,1.3-2.4,2.4-4.4,3.4
				c2.4,1.3,4.1,2.6,5.2,4c1,1.4,1.6,2.9,1.6,4.6c0,2.6-1,4.8-3.1,6.4c-2.1,1.6-4.8,2.4-8.2,2.4c-3.5,0-6.3-0.7-8.3-2.2
				s-3-3.6-3-6.4c0-1.8,0.5-3.5,1.5-4.9c1-1.4,2.5-2.7,4.7-3.8c-1.8-1.2-3.1-2.4-4-3.7s-1.2-2.8-1.2-4.3c0-2.3,1-4.2,2.9-5.6
				S1259.4,10679.5,1262.5,10679.5z M1257.5,10703.5c0,1.3,0.4,2.2,1.3,2.9s2.1,1.1,3.6,1.1c1.7,0,2.9-0.4,3.8-1.1
				c0.8-0.7,1.3-1.7,1.3-2.9c0-1-0.4-1.9-1.2-2.8c-0.8-0.9-2.2-1.8-4-2.7C1259.1,10699.4,1257.5,10701.3,1257.5,10703.5z
				 M1262.5,10684.4c-1.2,0-2.1,0.3-2.8,0.9c-0.7,0.6-1.1,1.4-1.1,2.4c0,0.9,0.3,1.7,0.8,2.4c0.6,0.7,1.6,1.4,3.1,2.1
				c1.4-0.7,2.4-1.4,3-2.1s0.9-1.5,0.9-2.4c0-1-0.4-1.8-1.1-2.4C1264.5,10684.7,1263.6,10684.4,1262.5,10684.4z"/>
			<path d="M1277.9,10708.9c0-1.2,0.3-2.2,1-2.8s1.6-0.9,2.9-0.9c1.2,0,2.2,0.3,2.8,1c0.7,0.6,1,1.6,1,2.8c0,1.2-0.3,2.1-1,2.7
				c-0.7,0.7-1.6,1-2.8,1c-1.2,0-2.2-0.3-2.9-1C1278.2,10711,1277.9,10710,1277.9,10708.9z"/>
			<path d="M1293.1,10712l12.1-26.4h-15.8v-5.7h23v4.3l-12.2,27.8H1293.1z"/>
			<path d="M1330.5,10689.5c0,3.4-0.7,5.9-2,7.6c-1.3,1.7-3.2,2.5-5.7,2.5c-2.4,0-4.3-0.9-5.6-2.6c-1.3-1.7-2-4.2-2-7.5
				c0-6.7,2.5-10,7.6-10c2.5,0,4.4,0.9,5.7,2.6C1329.8,10683.8,1330.5,10686.2,1330.5,10689.5z M1320.8,10689.5
				c0,1.9,0.2,3.2,0.5,4.2c0.3,0.9,0.9,1.4,1.6,1.4c1.4,0,2.1-1.8,2.1-5.5c0-3.7-0.7-5.5-2.1-5.5c-0.7,0-1.3,0.5-1.6,1.4
				C1320.9,10686.3,1320.8,10687.6,1320.8,10689.5z M1345.6,10679.9l-17.8,32.1h-5.3l17.8-32.1H1345.6z M1353,10702.3
				c0,3.4-0.7,5.9-2,7.6c-1.3,1.7-3.2,2.5-5.7,2.5c-2.4,0-4.3-0.9-5.6-2.6c-1.3-1.7-2-4.2-2-7.5c0-6.7,2.5-10,7.6-10
				c2.5,0,4.4,0.9,5.7,2.6C1352.3,10696.6,1353,10699.1,1353,10702.3z M1343.3,10702.3c0,1.9,0.2,3.2,0.5,4.2
				c0.3,0.9,0.9,1.4,1.6,1.4c1.4,0,2.1-1.8,2.1-5.5c0-3.7-0.7-5.5-2.1-5.5c-0.7,0-1.3,0.5-1.6,1.4
				C1343.4,10699.1,1343.3,10700.5,1343.3,10702.3z"/>
		</g>
		<g id="Ellipse_9400" transform="translate(613 10724)">
			<circle cx="7.5" cy="7.5" r="7.5"/>
			<circle class="st3" cx="7.5" cy="7.5" r="6"/>
		</g>
		<g id="Ellipse_9401" transform="translate(1230 10724)">
			<circle class="st4" cx="7.5" cy="7.5" r="7.5"/>
			<circle class="st5" cx="7.5" cy="7.5" r="6"/>
		</g>
		<g id="Ellipse_9402" transform="translate(1294 10724)">
			<circle cx="7.5" cy="7.5" r="7.5"/>
			<circle class="st3" cx="7.5" cy="7.5" r="6"/>
		</g>
	</g>
</g>
</svg>
