<svg xmlns="http://www.w3.org/2000/svg" width="1290.756" height="562.402" viewBox="0 0 1290.756 562.402">
  <g id="Component_132_1" data-name="Component 132 – 1" transform="translate(0 0.5)">
    <rect id="Rectangle_147965" data-name="Rectangle 147965" width="251.114" height="171.605" transform="translate(0 114.524)" fill="#e7434d" opacity="0.75"/>
    <g id="Group_162747" data-name="Group 162747" transform="translate(813.518 0.001)" opacity="0.75">
      <g id="Group_162767" data-name="Group 162767">
        <rect id="Rectangle_147967" data-name="Rectangle 147967" width="251.114" height="171.605" transform="translate(0 187.188)" fill="#e7434d" stroke="#fff" stroke-miterlimit="10" stroke-width="1"/>
        <rect id="Rectangle_147969" data-name="Rectangle 147969" width="99.629" height="294.477" transform="translate(251.114 64.33)" fill="#e7434d" stroke="#fff" stroke-miterlimit="10" stroke-width="1"/>
      </g>
      <g id="Group_162766" data-name="Group 162766">
        <rect id="Rectangle_147966" data-name="Rectangle 147966" width="251.114" height="187.186" fill="#754c75" stroke="#fff" stroke-miterlimit="10" stroke-width="1"/>
        <rect id="Rectangle_147968" data-name="Rectangle 147968" width="225.623" height="64.329" transform="translate(476.737 64.328) rotate(180)" fill="#754c75" stroke="#fff" stroke-miterlimit="10" stroke-width="1"/>
        <rect id="Rectangle_147970" data-name="Rectangle 147970" width="125.994" height="294.477" transform="translate(350.744 64.328)" fill="#754c75" stroke="#fff" stroke-miterlimit="10" stroke-width="1"/>
      </g>
    </g>
    <path id="Path_84450" data-name="Path 84450" d="M696.174,498.847h-4.726V480.488H685.39V476.55h16.827v3.938h-6.043Z" transform="translate(147.934 -166.392)" fill="#f8fcff"/>
    <path id="Path_84451" data-name="Path 84451" d="M714.935,483.517a6.788,6.788,0,0,1-2.248,5.5,9.552,9.552,0,0,1-6.387,1.9h-2.034v7.934H699.54v-22.3h7.16a9.494,9.494,0,0,1,6.172,1.747A6.4,6.4,0,0,1,714.935,483.517Zm-10.669,3.537h1.561a5.155,5.155,0,0,0,3.251-.859,3.007,3.007,0,0,0,1.088-2.506,3.108,3.108,0,0,0-.9-2.463,4.3,4.3,0,0,0-2.864-.788h-2.148Z" transform="translate(154.048 -166.398)" fill="#f8fcff"/>
    <path id="Path_84452" data-name="Path 84452" d="M731.663,476.554l-6.888,15.753a17.1,17.1,0,0,1-2.435,4.3,7,7,0,0,1-2.692,1.933,10.021,10.021,0,0,1-3.781.63,12.761,12.761,0,0,1-3.552-.487v-4.053a8.676,8.676,0,0,0,3.337.559,3.365,3.365,0,0,0,2.048-.587,4.3,4.3,0,0,0,1.289-2.048L711.27,476.54h5.012l5.485,12.43h.143l.286-.759,4.6-11.671Z" transform="translate(159.116 -166.396)" fill="#f8fcff"/>
    <path id="Path_84453" data-name="Path 84453" d="M732.2,485.114h1.862a11.112,11.112,0,0,1,6.731,1.761,5.872,5.872,0,0,1,2.377,5q0,6.988-9.208,6.974H727.47v-22.3h14.092v3.909H732.2Zm0,9.867h1.59a6.274,6.274,0,0,0,3.509-.773,2.664,2.664,0,0,0,1.1-2.334,2.363,2.363,0,0,0-1.131-2.205,7.848,7.848,0,0,0-3.867-.687h-1.2Z" transform="translate(166.116 -166.392)" fill="#f8fcff"/>
    <path id="Path_84454" data-name="Path 84454" d="M761.927,487.8a12.173,12.173,0,0,1-2.735,8.507,11.929,11.929,0,0,1-15.753,0,12.145,12.145,0,0,1-2.749-8.592,11.972,11.972,0,0,1,2.749-8.492,10.283,10.283,0,0,1,7.891-2.936,10.153,10.153,0,0,1,7.862,2.95A12.129,12.129,0,0,1,761.927,487.8Zm-16.268,0a9.266,9.266,0,0,0,1.432,5.614,4.941,4.941,0,0,0,4.3,1.9c3.781,0,5.657-2.506,5.657-7.518s-1.876-7.533-5.628-7.533a5.013,5.013,0,0,0-4.3,1.89A9.4,9.4,0,0,0,745.659,487.8Z" transform="translate(171.814 -166.515)" fill="#f8fcff"/>
    <path id="Path_84455" data-name="Path 84455" d="M776.4,498.847h-4.712V480.488h-8.263v18.359H758.7v-22.3h17.643Z" transform="translate(179.609 -166.392)" fill="#f8fcff"/>
    <path id="Path_84456" data-name="Path 84456" d="M790.38,483.516a6.788,6.788,0,0,1-2.248,5.5,9.624,9.624,0,0,1-6.4,1.9h-2.019v7.934H775v-22.3h7.16a9.523,9.523,0,0,1,6.172,1.747,6.4,6.4,0,0,1,2.048,5.213Zm-10.669,3.537h1.547a5.171,5.171,0,0,0,3.265-.859,3.008,3.008,0,0,0,1.088-2.506,3.064,3.064,0,0,0-.917-2.463,4.3,4.3,0,0,0-2.864-.788h-2.148Z" transform="translate(186.652 -166.398)" fill="#f8fcff"/>
    <path id="Path_84457" data-name="Path 84457" d="M809.227,487.8a12.1,12.1,0,0,1-2.75,8.506,11.929,11.929,0,0,1-15.753,0,12.215,12.215,0,0,1-2.735-8.592,10.7,10.7,0,0,1,18.5-8.492,12.2,12.2,0,0,1,2.735,8.578Zm-16.268,0a9.266,9.266,0,0,0,1.432,5.614,4.926,4.926,0,0,0,4.3,1.9q5.657,0,5.728-7.518t-5.628-7.533a5.012,5.012,0,0,0-4.3,1.89,9.3,9.3,0,0,0-1.532,5.642Z" transform="translate(192.251 -166.509)" fill="#f8fcff"/>
    <path id="Path_84458" data-name="Path 84458" d="M806,476.56h6.946a13.29,13.29,0,0,1,6.874,1.36,4.669,4.669,0,0,1,2.148,4.3,5.455,5.455,0,0,1-.931,3.279,3.752,3.752,0,0,1-2.506,1.547v.143a5.027,5.027,0,0,1,3.065,1.776,6.43,6.43,0,0,1-1.26,8.206,9.594,9.594,0,0,1-5.986,1.7H806Zm4.726,8.836h2.75a4.969,4.969,0,0,0,2.778-.6,2.191,2.191,0,0,0,.859-1.962,1.948,1.948,0,0,0-.931-1.833,6.029,6.029,0,0,0-2.964-.559h-2.492Zm0,3.752v5.814H813.8a4.6,4.6,0,0,0,2.864-.759,2.75,2.75,0,0,0,.931-2.277c0-1.862-1.332-2.778-3.967-2.778Z" transform="translate(200.046 -166.402)" fill="#f8fcff"/>
    <path id="Path_84459" data-name="Path 84459" d="M841.227,487.8a12.172,12.172,0,0,1-2.735,8.507,11.929,11.929,0,0,1-15.753,0,12.145,12.145,0,0,1-2.75-8.592,11.972,11.972,0,0,1,2.75-8.492,10.3,10.3,0,0,1,7.891-2.936,10.153,10.153,0,0,1,7.862,2.95,12.13,12.13,0,0,1,2.735,8.564Zm-16.268,0a9.265,9.265,0,0,0,1.432,5.614,4.94,4.94,0,0,0,4.3,1.9c3.781,0,5.728-2.506,5.728-7.518s-1.876-7.533-5.628-7.533a5.013,5.013,0,0,0-4.3,1.89A9.394,9.394,0,0,0,824.958,487.8Z" transform="translate(206.078 -166.515)" fill="#f8fcff"/>
    <path id="Path_84460" data-name="Path 84460" d="M836.19,494.909h1.719a52.183,52.183,0,0,0,3.494-8.836,61.22,61.22,0,0,0,1.9-9.523H856.3v18.359h2.979v10.44h-4.568v-6.5H840.744v6.5H836.19Zm10.87-14.421a53.1,53.1,0,0,1-1.633,7.4,50.931,50.931,0,0,1-2.549,7.017h8.707V480.488Z" transform="translate(213.091 -166.392)" fill="#f8fcff"/>
    <path id="Path_84461" data-name="Path 84461" d="M869.952,491.873a6.144,6.144,0,0,1-2.306,5.227,11.3,11.3,0,0,1-6.845,1.747h-6.1v-22.3h4.726v8.592h1.532a10.77,10.77,0,0,1,6.631,1.776A5.886,5.886,0,0,1,869.952,491.873Zm-10.526,3.108h1.246a5.93,5.93,0,0,0,3.408-.773,2.692,2.692,0,0,0,1.088-2.334,2.449,2.449,0,0,0-1.045-2.22,7.261,7.261,0,0,0-3.666-.673h-1.031Zm17.944,3.867h-4.711v-22.3h4.711Z" transform="translate(221.088 -166.392)" fill="#f8fcff"/>
    <path id="Path_84462" data-name="Path 84462" d="M732.189,467.988h-6.444v11.084H714.7V467.988H691.79v-7.876l23.457-34.542h10.425V459.2h6.516ZM714.7,459.2V450.13c0-1.518,0-3.709.186-6.588s.215-4.554.286-5.012H715a40,40,0,0,1-3.265,5.843l-9.81,14.822Z" transform="translate(150.699 -188.417)" fill="#f8fcff"/>
    <path id="Path_84463" data-name="Path 84463" d="M760.367,479.3h-37.32V471.44l13.419-13.59c3.981-4.067,6.573-6.888,7.8-8.464a19.206,19.206,0,0,0,2.635-4.368,11.311,11.311,0,0,0,.8-4.182,6.029,6.029,0,0,0-1.776-4.783,6.846,6.846,0,0,0-4.74-1.575,13.749,13.749,0,0,0-6.043,1.432,31.316,31.316,0,0,0-6.1,4.067l-6.158-7.289a40.94,40.94,0,0,1,6.559-4.754,23.951,23.951,0,0,1,5.728-2.134,28.936,28.936,0,0,1,6.874-.759,20.422,20.422,0,0,1,8.865,1.833A14.134,14.134,0,0,1,756.873,432a13.577,13.577,0,0,1,2.12,7.533,18.532,18.532,0,0,1-1.289,6.931,27.086,27.086,0,0,1-4.024,6.645,96.683,96.683,0,0,1-9.609,9.7l-6.888,6.487v.516H760.5Z" transform="translate(164.137 -188.648)" fill="#f8fcff"/>
    <path id="Path_84464" data-name="Path 84464" d="M753.715,461.164a6.158,6.158,0,0,1,1.647-4.654,6.7,6.7,0,0,1,4.8-1.575,6.473,6.473,0,0,1,4.7,1.618,6.086,6.086,0,0,1,1.675,4.611,6.158,6.158,0,0,1-1.69,4.554,6.388,6.388,0,0,1-4.683,1.661,6.544,6.544,0,0,1-4.754-1.633A6.057,6.057,0,0,1,753.715,461.164Z" transform="translate(177.448 -175.738)" fill="#f8fcff"/>
    <path id="Path_84465" data-name="Path 84465" d="M786.986,444.884a17.256,17.256,0,0,1,12.359,4.3,15.667,15.667,0,0,1,4.6,11.929q0,8.979-5.528,13.805t-15.753,4.826a30.9,30.9,0,0,1-14.421-2.864v-9.738a32.566,32.566,0,0,0,13.977,3.437q10.354,0,10.354-8.492,0-8.105-10.726-8.091a26.506,26.506,0,0,0-4.3.387,33.852,33.852,0,0,0-3.809.816l-4.5-2.406,2.019-27.209h29.014v9.595h-19.1l-.988,10.5,1.289-.258A24.954,24.954,0,0,1,786.986,444.884Z" transform="translate(183.731 -188.413)" fill="#f8fcff"/>
    <path id="Path_84466" data-name="Path 84466" d="M806.83,454.106a8.593,8.593,0,0,1-1.432,5.256,4.712,4.712,0,0,1-3.981,1.762,4.568,4.568,0,0,1-3.881-1.8,8.465,8.465,0,0,1-1.432-5.213q0-6.974,5.256-6.974a4.668,4.668,0,0,1,3.953,1.8,8.293,8.293,0,0,1,1.518,5.17Zm-6.759,0a8.974,8.974,0,0,0,.344,2.864c.229.644.6.96,1.1.96.974,0,1.432-1.275,1.432-3.838s-.5-3.824-1.432-3.824c-.5,0-.874.315-1.1.945a8.976,8.976,0,0,0-.344,2.893Zm17.185-6.688-12.359,22.3h-3.666l12.373-22.3Zm5.127,15.552a8.591,8.591,0,0,1-1.432,5.256,4.7,4.7,0,0,1-3.981,1.761,4.583,4.583,0,0,1-3.881-1.8,8.464,8.464,0,0,1-1.432-5.213c0-4.64,1.761-6.96,5.256-6.96a4.712,4.712,0,0,1,3.967,1.8,8.364,8.364,0,0,1,1.561,5.2Zm-6.759,0a9.023,9.023,0,0,0,.344,2.864c.229.645.6.96,1.117.96.974,0,1.432-1.289,1.432-3.852s-.487-3.809-1.432-3.809q-.773,0-1.117.945a8.817,8.817,0,0,0-.286,2.964Z" transform="translate(195.765 -179.105)" fill="#f8fcff"/>
    <path id="Path_84467" data-name="Path 84467" d="M709.656,318.29a17.256,17.256,0,0,1,12.359,4.3,15.668,15.668,0,0,1,4.6,11.929q0,8.979-5.528,13.805t-15.753,4.826a30.9,30.9,0,0,1-14.421-2.864V340.53a32.566,32.566,0,0,0,14.02,3.48q10.354,0,10.354-8.492,0-8.091-10.726-8.091a26.5,26.5,0,0,0-4.3.387,33.815,33.815,0,0,0-3.809.816l-4.583-2.42L693.9,299h29.014v9.581H703.8l-.988,10.511,1.289-.258A24.96,24.96,0,0,1,709.656,318.29Z" transform="translate(150.319 -243.105)" fill="#f8fcff"/>
    <path id="Path_84468" data-name="Path 84468" d="M725.918,352.474l20.049-43.922H719.56V299h38.394v7.16l-20.235,46.328Z" transform="translate(162.698 -243.105)" fill="#f8fcff"/>
    <path id="Path_84469" data-name="Path 84469" d="M751.005,334.56a6.1,6.1,0,0,1,1.647-4.64,6.7,6.7,0,0,1,4.8-1.575,6.488,6.488,0,0,1,4.7,1.6,7.16,7.16,0,0,1,0,9.18,6.43,6.43,0,0,1-4.683,1.661,6.6,6.6,0,0,1-4.769-1.633,6.13,6.13,0,0,1-1.69-4.6Z" transform="translate(176.277 -230.433)" fill="#f8fcff"/>
    <path id="Path_84470" data-name="Path 84470" d="M784.3,318.29a17.285,17.285,0,0,1,12.359,4.3,15.753,15.753,0,0,1,4.583,11.929q0,8.979-5.528,13.805t-15.753,4.826a30.861,30.861,0,0,1-14.421-2.864V340.53a32.58,32.58,0,0,0,14.006,3.48q10.382,0,10.368-8.492,0-8.091-10.726-8.091a26.5,26.5,0,0,0-4.3.387,33.135,33.135,0,0,0-3.809.816l-4.526-2.42L768.562,299H797.59v9.581h-19.1l-.988,10.511,1.274-.258A25.09,25.09,0,0,1,784.3,318.29Z" transform="translate(182.565 -243.105)" fill="#f8fcff"/>
    <path id="Path_84471" data-name="Path 84471" d="M804.108,327.512a8.591,8.591,0,0,1-1.346,5.27,4.711,4.711,0,0,1-3.981,1.761,4.612,4.612,0,0,1-3.9-1.8,8.594,8.594,0,0,1-1.432-5.227q0-6.96,5.27-6.96a4.668,4.668,0,0,1,3.953,1.8,8.364,8.364,0,0,1,1.432,5.155Zm-6.745,0a8.974,8.974,0,0,0,.344,2.864c.229.644.587.959,1.1.959.974,0,1.432-1.289,1.432-3.838s-.487-3.824-1.432-3.824c-.516,0-.874.315-1.1.945a8.866,8.866,0,0,0-.343,2.936Zm17.185-6.688-12.373,22.3h-3.637l12.359-22.3Zm5.127,15.552a8.593,8.593,0,0,1-1.36,5.256,4.711,4.711,0,0,1-3.981,1.762,4.568,4.568,0,0,1-3.881-1.8,8.463,8.463,0,0,1-1.432-5.213q0-6.96,5.256-6.96a4.669,4.669,0,0,1,3.953,1.8,8.277,8.277,0,0,1,1.5,5.2Zm-6.759,0a9.028,9.028,0,0,0,.344,2.864c.229.63.6.96,1.1.96.974,0,1.432-1.289,1.432-3.852s-.487-3.809-1.432-3.809c-.5,0-.874.315-1.1.945a8.821,8.821,0,0,0-.287,2.964Z" transform="translate(194.62 -233.796)" fill="#f8fcff"/>
    <path id="Path_84472" data-name="Path 84472" d="M706.523,373.037h-4.712V354.678h-8.206v18.359H688.88v-22.3h17.643Z" transform="translate(149.442 -220.749)" fill="#f8fcff"/>
    <path id="Path_84473" data-name="Path 84473" d="M725.672,361.968a12.058,12.058,0,0,1-2.749,8.507,11.872,11.872,0,0,1-15.753,0,14.579,14.579,0,0,1,0-17.042,10.325,10.325,0,0,1,7.891-2.936,10.153,10.153,0,0,1,7.862,2.964,12.114,12.114,0,0,1,2.75,8.507Zm-16.268,0a9.323,9.323,0,0,0,1.432,5.628,4.969,4.969,0,0,0,4.3,1.89q5.657,0,5.657-7.518t-5.628-7.533a4.984,4.984,0,0,0-4.3,1.9,9.209,9.209,0,0,0-1.46,5.628Z" transform="translate(156.156 -220.865)" fill="#f8fcff"/>
    <path id="Path_84474" data-name="Path 84474" d="M737.885,357.692a6.817,6.817,0,0,1-2.248,5.513,9.7,9.7,0,0,1-6.4,1.9h-2.019v7.934H722.49v-22.3h7.16a9.452,9.452,0,0,1,6.158,1.747A6.315,6.315,0,0,1,737.885,357.692Zm-10.669,3.537h1.547a5.17,5.17,0,0,0,3.265-.859,3.569,3.569,0,0,0,.172-4.955,4.211,4.211,0,0,0-2.864-.8h-2.148Z" transform="translate(163.964 -220.757)" fill="#f8fcff"/>
    <path id="Path_84475" data-name="Path 84475" d="M745.429,373.037H740.7V354.678H734.66V350.74h16.827v3.938h-6.058Z" transform="translate(169.222 -220.749)" fill="#f8fcff"/>
    <path id="Path_84476" data-name="Path 84476" d="M764.047,366.063a6.172,6.172,0,0,1-2.306,5.227,11.3,11.3,0,0,1-6.845,1.747H748.81v-22.3h4.726v8.592h1.518a10.912,10.912,0,0,1,6.645,1.776,5.914,5.914,0,0,1,2.349,4.955Zm-10.511,3.093h1.275a5.929,5.929,0,0,0,3.408-.773,2.649,2.649,0,0,0,1.089-2.32,2.42,2.42,0,0,0-1.045-2.22,7.16,7.16,0,0,0-3.666-.673h-1.017Zm17.944,3.881h-4.711v-22.3h4.711Z" transform="translate(175.336 -220.749)" fill="#f8fcff"/>
    <rect id="Rectangle_147971" data-name="Rectangle 147971" width="94.502" height="269.989" transform="translate(899.543 561.903) rotate(-90)" fill="#e7434d" opacity="0.75"/>
    <path id="Path_84477" data-name="Path 84477" d="M173.717,454.227H136.312V446.35l13.433-13.576q5.972-6.1,7.791-8.464a18.479,18.479,0,0,0,2.707-4.382,10.913,10.913,0,0,0,.816-4.167,6.129,6.129,0,0,0-1.776-4.8,6.917,6.917,0,0,0-4.74-1.575,13.72,13.72,0,0,0-6.043,1.432,31.825,31.825,0,0,0-6.115,4.067L136.24,407.6a40.931,40.931,0,0,1,6.545-4.755,23.235,23.235,0,0,1,5.728-2.134,28.94,28.94,0,0,1,6.874-.759,20.406,20.406,0,0,1,8.85,1.833,14.078,14.078,0,0,1,5.972,5.127,13.576,13.576,0,0,1,2.119,7.533,18.258,18.258,0,0,1-1.3,6.931A26.221,26.221,0,0,1,167,428.02a96.606,96.606,0,0,1-9.609,9.7l-6.874,6.487v.5h23.314Z" transform="translate(-89.339 -199.49)" fill="#f8fcff"/>
    <path id="Path_84478" data-name="Path 84478" d="M185.42,419.82a17.185,17.185,0,0,1,12.344,4.3,15.638,15.638,0,0,1,4.6,11.929q0,8.979-5.528,13.805t-15.753,4.826a30.947,30.947,0,0,1-14.421-2.864v-9.767a30.405,30.405,0,0,0,6.745,2.506,29.829,29.829,0,0,0,7.275.96q10.354,0,10.354-8.478,0-8.091-10.712-8.091a26.359,26.359,0,0,0-4.3.387,33.122,33.122,0,0,0-3.809.816l-4.5-2.406,2-27.209h28.928v9.581H179.606l-.988,10.511,1.275-.258A25.088,25.088,0,0,1,185.42,419.82Z" transform="translate(-76.196 -199.238)" fill="#f8fcff"/>
    <path id="Path_84479" data-name="Path 84479" d="M196.935,436.07a6.1,6.1,0,0,1,1.647-4.64,6.7,6.7,0,0,1,4.8-1.575,6.473,6.473,0,0,1,4.7,1.6,7.16,7.16,0,0,1,0,9.165,6.33,6.33,0,0,1-4.683,1.676,6.545,6.545,0,0,1-4.755-1.633A6.072,6.072,0,0,1,196.935,436.07Z" transform="translate(-63.122 -186.574)" fill="#f8fcff"/>
    <path id="Path_84480" data-name="Path 84480" d="M246.335,412.663a12.631,12.631,0,0,1-3.036,8.592,15.753,15.753,0,0,1-8.592,4.826v.215a17.043,17.043,0,0,1,9.81,3.938,11.027,11.027,0,0,1,3.337,8.435,14.321,14.321,0,0,1-5.6,12.029q-5.614,4.3-16,4.3a38.665,38.665,0,0,1-15.438-2.864v-9.624a35.145,35.145,0,0,0,6.845,2.563,28.646,28.646,0,0,0,7.389.988c3.723,0,6.487-.644,8.263-1.9A6.974,6.974,0,0,0,236,438.039a5.528,5.528,0,0,0-3.079-5.342q-3.065-1.561-9.81-1.575h-4.053v-8.664h4.124q6.23,0,9.094-1.633a5.886,5.886,0,0,0,2.864-5.585q0-6.072-7.619-6.072a17.386,17.386,0,0,0-5.356.874,26.525,26.525,0,0,0-6.058,3.036l-5.227-7.79A29.114,29.114,0,0,1,228.406,400c5.528,0,9.91,1.131,13.118,3.365A10.8,10.8,0,0,1,246.335,412.663Z" transform="translate(-57.115 -199.47)" fill="#f8fcff"/>
    <path id="Path_84481" data-name="Path 84481" d="M250.028,429.022a8.592,8.592,0,0,1-1.36,5.27,4.711,4.711,0,0,1-3.981,1.761,4.568,4.568,0,0,1-3.881-1.8,8.593,8.593,0,0,1-1.432-5.227q0-6.96,5.256-6.96a4.669,4.669,0,0,1,3.953,1.8,8.277,8.277,0,0,1,1.446,5.155Zm-6.759,0a8.978,8.978,0,0,0,.344,2.864c.229.644.6.959,1.1.959.974,0,1.432-1.289,1.432-3.838s-.487-3.824-1.432-3.824c-.5,0-.874.315-1.1.945a8.864,8.864,0,0,0-.344,3.007Zm17.185-6.688-12.359,22.3h-3.666l12.373-22.3Zm5.127,15.552a8.592,8.592,0,0,1-1.361,5.256,4.712,4.712,0,0,1-3.9,1.747,4.583,4.583,0,0,1-3.881-1.8,8.492,8.492,0,0,1-1.432-5.213q0-6.96,5.256-6.96a4.712,4.712,0,0,1,3.967,1.8,8.364,8.364,0,0,1,1.4,5.213Zm-6.759,0a9.08,9.08,0,0,0,.344,2.864c.229.63.6.96,1.1.96.988,0,1.432-1.289,1.432-3.852s-.487-3.809-1.432-3.809c-.5,0-.874.315-1.1.945a8.821,8.821,0,0,0-.272,2.964Z" transform="translate(-44.784 -189.937)" fill="#f8fcff"/>
    <line id="Line_711" data-name="Line 711" y2="102.851" transform="translate(1119.553 358.807)" fill="none" stroke="#e7434d" stroke-miterlimit="10" stroke-width="1"/>
    <line id="Line_712" data-name="Line 712" x2="562.404" transform="translate(251.114 234.532)" fill="none" stroke="#e7434d" stroke-miterlimit="10" stroke-width="1"/>
    <path id="Path_84482" data-name="Path 84482" d="M807.892,656.982h-11.3V626.021l.115-5.084.186-5.571a53.946,53.946,0,0,1-3.924,3.709l-6.144,4.941L781.37,617.2l17.185-13.719h9.294Z" transform="translate(189.404 -111.548)" fill="#f8fcff"/>
    <path id="Path_84483" data-name="Path 84483" d="M815.923,656.961l20.049-43.907H809.55V603.53h38.394v7.16l-20.25,46.328Z" transform="translate(201.581 -111.527)" fill="#f8fcff"/>
    <path id="Path_84484" data-name="Path 84484" d="M841.005,639.074a6.116,6.116,0,0,1,1.647-4.654,6.659,6.659,0,0,1,4.783-1.575,6.5,6.5,0,0,1,4.712,1.618,7.16,7.16,0,0,1,0,9.165,6.388,6.388,0,0,1-4.683,1.661,6.545,6.545,0,0,1-4.754-1.633A6.086,6.086,0,0,1,841.005,639.074Z" transform="translate(215.164 -98.867)" fill="#f8fcff"/>
    <path id="Path_84485" data-name="Path 84485" d="M892.492,657.212H855.043V649.35l13.433-13.59c3.981-4.067,6.573-6.888,7.8-8.464a19.2,19.2,0,0,0,2.635-4.368,11.31,11.31,0,0,0,.8-4.182,6.072,6.072,0,0,0-1.776-4.783,6.845,6.845,0,0,0-4.74-1.575,13.749,13.749,0,0,0-6.044,1.432,31.313,31.313,0,0,0-6.1,4.067L854.9,610.6a40.933,40.933,0,0,1,6.559-4.755,24.572,24.572,0,0,1,5.728-2.134,28.944,28.944,0,0,1,6.874-.759,20.321,20.321,0,0,1,8.85,1.833,14.176,14.176,0,0,1,5.972,5.127A13.576,13.576,0,0,1,891,617.444a18.529,18.529,0,0,1-1.289,6.931,26.74,26.74,0,0,1-4.039,6.645,95.875,95.875,0,0,1-9.6,9.71l-6.888,6.473v.516h23.314Z" transform="translate(221.175 -111.779)" fill="#f8fcff"/>
    <path id="Path_84486" data-name="Path 84486" d="M894.12,632.026a8.434,8.434,0,0,1-1.432,5.256,4.683,4.683,0,0,1-3.967,1.761,4.6,4.6,0,0,1-3.9-1.8,8.464,8.464,0,0,1-1.432-5.213q0-6.974,5.27-6.974a4.668,4.668,0,0,1,3.953,1.8A8.392,8.392,0,0,1,894.12,632.026Zm-6.759,0a8.6,8.6,0,0,0,.358,2.864c.215.644.587.959,1.1.959.974,0,1.432-1.274,1.432-3.838s-.487-3.809-1.432-3.809a1.146,1.146,0,0,0-1.1.931,8.59,8.59,0,0,0-.358,2.922Zm17.256-6.688-12.373,22.3h-3.68l12.359-22.3Zm5.113,15.552a8.591,8.591,0,0,1-1.346,5.256,4.74,4.74,0,0,1-3.981,1.761,4.612,4.612,0,0,1-3.9-1.8,8.462,8.462,0,0,1-1.432-5.213q0-6.96,5.27-6.96a4.669,4.669,0,0,1,3.953,1.8,8.364,8.364,0,0,1,1.432,5.184Zm-6.745,0a9.025,9.025,0,0,0,.344,2.864c.229.644.587.959,1.1.959.974,0,1.432-1.289,1.432-3.852s-.487-3.809-1.432-3.809c-.515,0-.874.315-1.1.945a8.824,8.824,0,0,0-.344,2.95Z" transform="translate(233.48 -102.23)" fill="#f8fcff"/>
  </g>
</svg>
