<svg id="Component_132_1" data-name="Component 132 – 1" xmlns="http://www.w3.org/2000/svg" xmlns:xlink="http://www.w3.org/1999/xlink" width="1395.558" height="823.453" viewBox="0 0 1395.558 823.453">
  <defs>
    <clipPath id="clip-path">
      <rect id="Rectangle_147991" data-name="Rectangle 147991" width="1395.558" height="823.453" fill="none"/>
    </clipPath>
    <clipPath id="clip-path-3">
      <rect id="Rectangle_147973" data-name="Rectangle 147973" width="251.118" height="187.193" fill="none"/>
    </clipPath>
    <clipPath id="clip-path-4">
      <rect id="Rectangle_147984" data-name="Rectangle 147984" width="478.174" height="360.231" fill="none"/>
    </clipPath>
    <clipPath id="clip-path-6">
      <rect id="Rectangle_147987" data-name="Rectangle 147987" width="123.453" height="269.988" fill="none"/>
    </clipPath>
    <clipPath id="clip-path-7">
      <rect id="Rectangle_147989" data-name="Rectangle 147989" width="64.33" height="225.624" fill="none"/>
    </clipPath>
  </defs>
  <path id="Path_84450" data-name="Path 84450" d="M696.174,498.847h-4.726V480.488H685.39V476.55h16.827v3.938h-6.043Z" transform="translate(122.157 -86.197)" fill="#f8fcff"/>
  <path id="Path_84451" data-name="Path 84451" d="M714.935,483.517a6.788,6.788,0,0,1-2.248,5.5,9.552,9.552,0,0,1-6.387,1.9h-2.034v7.934H699.54v-22.3h7.16a9.494,9.494,0,0,1,6.172,1.747A6.4,6.4,0,0,1,714.935,483.517Zm-10.669,3.537h1.561a5.155,5.155,0,0,0,3.251-.859,3.007,3.007,0,0,0,1.088-2.506,3.108,3.108,0,0,0-.9-2.463,4.3,4.3,0,0,0-2.864-.788h-2.148Z" transform="translate(128.271 -86.203)" fill="#f8fcff"/>
  <path id="Path_84452" data-name="Path 84452" d="M731.663,476.554l-6.888,15.753a17.1,17.1,0,0,1-2.435,4.3,7,7,0,0,1-2.692,1.933,10.021,10.021,0,0,1-3.781.63,12.761,12.761,0,0,1-3.552-.487v-4.053a8.676,8.676,0,0,0,3.337.559,3.365,3.365,0,0,0,2.048-.587,4.3,4.3,0,0,0,1.289-2.048L711.27,476.54h5.012l5.485,12.43h.143l.286-.759,4.6-11.671Z" transform="translate(133.339 -86.201)" fill="#f8fcff"/>
  <path id="Path_84453" data-name="Path 84453" d="M732.2,485.114h1.862a11.112,11.112,0,0,1,6.731,1.761,5.872,5.872,0,0,1,2.377,5q0,6.988-9.208,6.974H727.47v-22.3h14.092v3.909H732.2Zm0,9.867h1.59a6.274,6.274,0,0,0,3.509-.773,2.664,2.664,0,0,0,1.1-2.334,2.363,2.363,0,0,0-1.131-2.205,7.848,7.848,0,0,0-3.867-.687h-1.2Z" transform="translate(140.338 -86.197)" fill="#f8fcff"/>
  <path id="Path_84454" data-name="Path 84454" d="M761.927,487.8a12.173,12.173,0,0,1-2.735,8.507,11.929,11.929,0,0,1-15.753,0,12.145,12.145,0,0,1-2.749-8.592,11.972,11.972,0,0,1,2.749-8.492,10.283,10.283,0,0,1,7.891-2.936,10.153,10.153,0,0,1,7.862,2.95A12.129,12.129,0,0,1,761.927,487.8Zm-16.268,0a9.266,9.266,0,0,0,1.432,5.614,4.941,4.941,0,0,0,4.3,1.9c3.781,0,5.657-2.506,5.657-7.518s-1.876-7.533-5.628-7.533a5.013,5.013,0,0,0-4.3,1.89A9.4,9.4,0,0,0,745.659,487.8Z" transform="translate(146.037 -86.32)" fill="#f8fcff"/>
  <path id="Path_84455" data-name="Path 84455" d="M776.4,498.847h-4.712V480.488h-8.263v18.359H758.7v-22.3h17.643Z" transform="translate(153.832 -86.197)" fill="#f8fcff"/>
  <path id="Path_84456" data-name="Path 84456" d="M790.38,483.516a6.788,6.788,0,0,1-2.248,5.5,9.624,9.624,0,0,1-6.4,1.9h-2.019v7.934H775v-22.3h7.16a9.523,9.523,0,0,1,6.172,1.747,6.4,6.4,0,0,1,2.048,5.213Zm-10.669,3.537h1.547a5.171,5.171,0,0,0,3.265-.859,3.008,3.008,0,0,0,1.088-2.506,3.064,3.064,0,0,0-.917-2.463,4.3,4.3,0,0,0-2.864-.788h-2.148Z" transform="translate(160.875 -86.203)" fill="#f8fcff"/>
  <path id="Path_84457" data-name="Path 84457" d="M809.227,487.8a12.1,12.1,0,0,1-2.75,8.506,11.929,11.929,0,0,1-15.753,0,12.215,12.215,0,0,1-2.735-8.592,10.7,10.7,0,0,1,18.5-8.492,12.2,12.2,0,0,1,2.735,8.578Zm-16.268,0a9.266,9.266,0,0,0,1.432,5.614,4.926,4.926,0,0,0,4.3,1.9q5.657,0,5.728-7.518t-5.628-7.533a5.012,5.012,0,0,0-4.3,1.89,9.3,9.3,0,0,0-1.532,5.642Z" transform="translate(166.474 -86.314)" fill="#f8fcff"/>
  <path id="Path_84458" data-name="Path 84458" d="M806,476.56h6.946a13.29,13.29,0,0,1,6.874,1.36,4.669,4.669,0,0,1,2.148,4.3,5.455,5.455,0,0,1-.931,3.279,3.752,3.752,0,0,1-2.506,1.547v.143a5.027,5.027,0,0,1,3.065,1.776,6.43,6.43,0,0,1-1.26,8.206,9.594,9.594,0,0,1-5.986,1.7H806Zm4.726,8.836h2.75a4.969,4.969,0,0,0,2.778-.6,2.191,2.191,0,0,0,.859-1.962,1.948,1.948,0,0,0-.931-1.833,6.029,6.029,0,0,0-2.964-.559h-2.492Zm0,3.752v5.814H813.8a4.6,4.6,0,0,0,2.864-.759,2.75,2.75,0,0,0,.931-2.277c0-1.862-1.332-2.778-3.967-2.778Z" transform="translate(174.269 -86.207)" fill="#f8fcff"/>
  <path id="Path_84459" data-name="Path 84459" d="M841.227,487.8a12.172,12.172,0,0,1-2.735,8.507,11.929,11.929,0,0,1-15.753,0,12.145,12.145,0,0,1-2.75-8.592,11.972,11.972,0,0,1,2.75-8.492,10.3,10.3,0,0,1,7.891-2.936,10.153,10.153,0,0,1,7.862,2.95,12.13,12.13,0,0,1,2.735,8.564Zm-16.268,0a9.265,9.265,0,0,0,1.432,5.614,4.94,4.94,0,0,0,4.3,1.9c3.781,0,5.728-2.506,5.728-7.518s-1.876-7.533-5.628-7.533a5.013,5.013,0,0,0-4.3,1.89A9.394,9.394,0,0,0,824.958,487.8Z" transform="translate(180.3 -86.32)" fill="#f8fcff"/>
  <path id="Path_84460" data-name="Path 84460" d="M836.19,494.909h1.719a52.183,52.183,0,0,0,3.494-8.836,61.22,61.22,0,0,0,1.9-9.523H856.3v18.359h2.979v10.44h-4.568v-6.5H840.744v6.5H836.19Zm10.87-14.421a53.1,53.1,0,0,1-1.633,7.4,50.931,50.931,0,0,1-2.549,7.017h8.707V480.488Z" transform="translate(187.314 -86.197)" fill="#f8fcff"/>
  <path id="Path_84461" data-name="Path 84461" d="M869.952,491.873a6.144,6.144,0,0,1-2.306,5.227,11.3,11.3,0,0,1-6.845,1.747h-6.1v-22.3h4.726v8.592h1.532a10.77,10.77,0,0,1,6.631,1.776A5.886,5.886,0,0,1,869.952,491.873Zm-10.526,3.108h1.246a5.93,5.93,0,0,0,3.408-.773,2.692,2.692,0,0,0,1.088-2.334,2.449,2.449,0,0,0-1.045-2.22,7.261,7.261,0,0,0-3.666-.673h-1.031Zm17.944,3.867h-4.711v-22.3h4.711Z" transform="translate(195.311 -86.197)" fill="#f8fcff"/>
  <path id="Path_84462" data-name="Path 84462" d="M732.189,467.988h-6.444v11.084H714.7V467.988H691.79v-7.876l23.457-34.542h10.425V459.2h6.516ZM714.7,459.2V450.13c0-1.518,0-3.709.186-6.588s.215-4.554.286-5.012H715a40,40,0,0,1-3.265,5.843l-9.81,14.822Z" transform="translate(124.922 -108.223)" fill="#f8fcff"/>
  <path id="Path_84463" data-name="Path 84463" d="M760.367,479.3h-37.32V471.44l13.419-13.59c3.981-4.067,6.573-6.888,7.8-8.464a19.206,19.206,0,0,0,2.635-4.368,11.311,11.311,0,0,0,.8-4.182,6.029,6.029,0,0,0-1.776-4.783,6.846,6.846,0,0,0-4.74-1.575,13.749,13.749,0,0,0-6.043,1.432,31.316,31.316,0,0,0-6.1,4.067l-6.158-7.289a40.94,40.94,0,0,1,6.559-4.754,23.951,23.951,0,0,1,5.728-2.134,28.936,28.936,0,0,1,6.874-.759,20.422,20.422,0,0,1,8.865,1.833A14.134,14.134,0,0,1,756.873,432a13.577,13.577,0,0,1,2.12,7.533,18.532,18.532,0,0,1-1.289,6.931,27.086,27.086,0,0,1-4.024,6.645,96.683,96.683,0,0,1-9.609,9.7l-6.888,6.487v.516H760.5Z" transform="translate(138.359 -108.453)" fill="#f8fcff"/>
  <path id="Path_84464" data-name="Path 84464" d="M753.715,461.164a6.158,6.158,0,0,1,1.647-4.654,6.7,6.7,0,0,1,4.8-1.575,6.473,6.473,0,0,1,4.7,1.618,6.086,6.086,0,0,1,1.675,4.611,6.158,6.158,0,0,1-1.69,4.554,6.388,6.388,0,0,1-4.683,1.661,6.544,6.544,0,0,1-4.754-1.633A6.057,6.057,0,0,1,753.715,461.164Z" transform="translate(151.671 -95.543)" fill="#f8fcff"/>
  <path id="Path_84465" data-name="Path 84465" d="M786.986,444.884a17.256,17.256,0,0,1,12.359,4.3,15.667,15.667,0,0,1,4.6,11.929q0,8.979-5.528,13.805t-15.753,4.826a30.9,30.9,0,0,1-14.421-2.864v-9.738a32.566,32.566,0,0,0,13.977,3.437q10.354,0,10.354-8.492,0-8.105-10.726-8.091a26.506,26.506,0,0,0-4.3.387,33.852,33.852,0,0,0-3.809.816l-4.5-2.406,2.019-27.209h29.014v9.595h-19.1l-.988,10.5,1.289-.258A24.954,24.954,0,0,1,786.986,444.884Z" transform="translate(157.954 -108.219)" fill="#f8fcff"/>
  <path id="Path_84466" data-name="Path 84466" d="M806.83,454.106a8.593,8.593,0,0,1-1.432,5.256,4.712,4.712,0,0,1-3.981,1.762,4.568,4.568,0,0,1-3.881-1.8,8.465,8.465,0,0,1-1.432-5.213q0-6.974,5.256-6.974a4.668,4.668,0,0,1,3.953,1.8,8.293,8.293,0,0,1,1.518,5.17Zm-6.759,0a8.974,8.974,0,0,0,.344,2.864c.229.644.6.96,1.1.96.974,0,1.432-1.275,1.432-3.838s-.5-3.824-1.432-3.824c-.5,0-.874.315-1.1.945a8.976,8.976,0,0,0-.344,2.893Zm17.185-6.688-12.359,22.3h-3.666l12.373-22.3Zm5.127,15.552a8.591,8.591,0,0,1-1.432,5.256,4.7,4.7,0,0,1-3.981,1.761,4.583,4.583,0,0,1-3.881-1.8,8.464,8.464,0,0,1-1.432-5.213c0-4.64,1.761-6.96,5.256-6.96a4.712,4.712,0,0,1,3.967,1.8,8.364,8.364,0,0,1,1.561,5.2Zm-6.759,0a9.023,9.023,0,0,0,.344,2.864c.229.645.6.96,1.117.96.974,0,1.432-1.289,1.432-3.852s-.487-3.809-1.432-3.809q-.773,0-1.117.945a8.817,8.817,0,0,0-.286,2.964Z" transform="translate(169.987 -98.91)" fill="#f8fcff"/>
  <path id="Path_84467" data-name="Path 84467" d="M709.656,318.29a17.256,17.256,0,0,1,12.359,4.3,15.668,15.668,0,0,1,4.6,11.929q0,8.979-5.528,13.805t-15.753,4.826a30.9,30.9,0,0,1-14.421-2.864V340.53a32.566,32.566,0,0,0,14.02,3.48q10.354,0,10.354-8.492,0-8.091-10.726-8.091a26.5,26.5,0,0,0-4.3.387,33.815,33.815,0,0,0-3.809.816l-4.583-2.42L693.9,299h29.014v9.581H703.8l-.988,10.511,1.289-.258A24.96,24.96,0,0,1,709.656,318.29Z" transform="translate(124.542 -162.91)" fill="#f8fcff"/>
  <path id="Path_84468" data-name="Path 84468" d="M725.918,352.474l20.049-43.922H719.56V299h38.394v7.16l-20.235,46.328Z" transform="translate(136.92 -162.91)" fill="#f8fcff"/>
  <path id="Path_84469" data-name="Path 84469" d="M751.005,334.56a6.1,6.1,0,0,1,1.647-4.64,6.7,6.7,0,0,1,4.8-1.575,6.488,6.488,0,0,1,4.7,1.6,7.16,7.16,0,0,1,0,9.18,6.43,6.43,0,0,1-4.683,1.661,6.6,6.6,0,0,1-4.769-1.633,6.13,6.13,0,0,1-1.69-4.6Z" transform="translate(150.5 -150.238)" fill="#f8fcff"/>
  <path id="Path_84470" data-name="Path 84470" d="M784.3,318.29a17.285,17.285,0,0,1,12.359,4.3,15.753,15.753,0,0,1,4.583,11.929q0,8.979-5.528,13.805t-15.753,4.826a30.861,30.861,0,0,1-14.421-2.864V340.53a32.58,32.58,0,0,0,14.006,3.48q10.382,0,10.368-8.492,0-8.091-10.726-8.091a26.5,26.5,0,0,0-4.3.387,33.135,33.135,0,0,0-3.809.816l-4.526-2.42L768.562,299H797.59v9.581h-19.1l-.988,10.511,1.274-.258A25.09,25.09,0,0,1,784.3,318.29Z" transform="translate(156.788 -162.91)" fill="#f8fcff"/>
  <path id="Path_84471" data-name="Path 84471" d="M804.108,327.512a8.591,8.591,0,0,1-1.346,5.27,4.711,4.711,0,0,1-3.981,1.761,4.612,4.612,0,0,1-3.9-1.8,8.594,8.594,0,0,1-1.432-5.227q0-6.96,5.27-6.96a4.668,4.668,0,0,1,3.953,1.8,8.364,8.364,0,0,1,1.432,5.155Zm-6.745,0a8.974,8.974,0,0,0,.344,2.864c.229.644.587.959,1.1.959.974,0,1.432-1.289,1.432-3.838s-.487-3.824-1.432-3.824c-.516,0-.874.315-1.1.945a8.866,8.866,0,0,0-.343,2.936Zm17.185-6.688-12.373,22.3h-3.637l12.359-22.3Zm5.127,15.552a8.593,8.593,0,0,1-1.36,5.256,4.711,4.711,0,0,1-3.981,1.762,4.568,4.568,0,0,1-3.881-1.8,8.463,8.463,0,0,1-1.432-5.213q0-6.96,5.256-6.96a4.669,4.669,0,0,1,3.953,1.8,8.277,8.277,0,0,1,1.5,5.2Zm-6.759,0a9.028,9.028,0,0,0,.344,2.864c.229.63.6.96,1.1.96.974,0,1.432-1.289,1.432-3.852s-.487-3.809-1.432-3.809c-.5,0-.874.315-1.1.945a8.821,8.821,0,0,0-.287,2.964Z" transform="translate(168.843 -153.602)" fill="#f8fcff"/>
  <path id="Path_84472" data-name="Path 84472" d="M706.523,373.037h-4.712V354.678h-8.206v18.359H688.88v-22.3h17.643Z" transform="translate(123.665 -140.555)" fill="#f8fcff"/>
  <path id="Path_84473" data-name="Path 84473" d="M725.672,361.968a12.058,12.058,0,0,1-2.749,8.507,11.872,11.872,0,0,1-15.753,0,14.579,14.579,0,0,1,0-17.042,10.325,10.325,0,0,1,7.891-2.936,10.153,10.153,0,0,1,7.862,2.964,12.114,12.114,0,0,1,2.75,8.507Zm-16.268,0a9.323,9.323,0,0,0,1.432,5.628,4.969,4.969,0,0,0,4.3,1.89q5.657,0,5.657-7.518t-5.628-7.533a4.984,4.984,0,0,0-4.3,1.9,9.209,9.209,0,0,0-1.46,5.628Z" transform="translate(130.379 -140.67)" fill="#f8fcff"/>
  <path id="Path_84474" data-name="Path 84474" d="M737.885,357.692a6.817,6.817,0,0,1-2.248,5.513,9.7,9.7,0,0,1-6.4,1.9h-2.019v7.934H722.49v-22.3h7.16a9.452,9.452,0,0,1,6.158,1.747A6.315,6.315,0,0,1,737.885,357.692Zm-10.669,3.537h1.547a5.17,5.17,0,0,0,3.265-.859,3.569,3.569,0,0,0,.172-4.955,4.211,4.211,0,0,0-2.864-.8h-2.148Z" transform="translate(138.187 -140.563)" fill="#f8fcff"/>
  <path id="Path_84475" data-name="Path 84475" d="M745.429,373.037H740.7V354.678H734.66V350.74h16.827v3.938h-6.058Z" transform="translate(143.445 -140.555)" fill="#f8fcff"/>
  <path id="Path_84476" data-name="Path 84476" d="M764.047,366.063a6.172,6.172,0,0,1-2.306,5.227,11.3,11.3,0,0,1-6.845,1.747H748.81v-22.3h4.726v8.592h1.518a10.912,10.912,0,0,1,6.645,1.776,5.914,5.914,0,0,1,2.349,4.955Zm-10.511,3.093h1.275a5.929,5.929,0,0,0,3.408-.773,2.649,2.649,0,0,0,1.089-2.32,2.42,2.42,0,0,0-1.045-2.22,7.16,7.16,0,0,0-3.666-.673h-1.017Zm17.944,3.881h-4.711v-22.3h4.711Z" transform="translate(149.559 -140.555)" fill="#f8fcff"/>
  <g id="Group_162748" data-name="Group 162748" transform="translate(0)">
    <g id="Group_162765" data-name="Group 162765" transform="translate(0)" clip-path="url(#clip-path)">
      <g id="Group_162756" data-name="Group 162756">
        <g id="Group_162755" data-name="Group 162755" clip-path="url(#clip-path)">
          <g id="Group_162751" data-name="Group 162751" transform="translate(113.647)" opacity="0.75">
            <g id="Group_162750" data-name="Group 162750">
              <g id="Group_162749" data-name="Group 162749" clip-path="url(#clip-path-3)">
                <rect id="Rectangle_147972" data-name="Rectangle 147972" width="251.117" height="187.193" transform="translate(0.001)" fill="#5e3b62"/>
              </g>
            </g>
          </g>
          <g id="Group_162754" data-name="Group 162754" transform="translate(787.284 78.901)" opacity="0.75">
            <g id="Group_162753" data-name="Group 162753">
              <g id="Group_162752" data-name="Group 162752" clip-path="url(#clip-path-4)">
                <rect id="Rectangle_147974" data-name="Rectangle 147974" width="251.117" height="187.193" transform="translate(0.716 0.715)" fill="#5e3b62"/>
                <rect id="Rectangle_147975" data-name="Rectangle 147975" width="251.117" height="187.193" transform="translate(0.716 0.715)" fill="none" stroke="#fff" stroke-miterlimit="10" stroke-width="1"/>
                <rect id="Rectangle_147976" data-name="Rectangle 147976" width="251.117" height="171.607" transform="translate(0.716 187.908)" fill="#de2a3b"/>
                <rect id="Rectangle_147977" data-name="Rectangle 147977" width="251.117" height="171.607" transform="translate(0.716 187.908)" fill="none" stroke="#fff" stroke-miterlimit="10" stroke-width="1"/>
                <rect id="Rectangle_147978" data-name="Rectangle 147978" width="225.625" height="64.33" transform="translate(251.833 0.716)" fill="#5e3b62"/>
                <rect id="Rectangle_147979" data-name="Rectangle 147979" width="225.625" height="64.33" transform="translate(251.833 0.716)" fill="none" stroke="#fff" stroke-miterlimit="10" stroke-width="1"/>
                <rect id="Rectangle_147980" data-name="Rectangle 147980" width="99.634" height="294.47" transform="translate(251.833 65.045)" fill="#de2a3b"/>
                <rect id="Rectangle_147981" data-name="Rectangle 147981" width="99.634" height="294.47" transform="translate(251.833 65.045)" fill="none" stroke="#fff" stroke-miterlimit="10" stroke-width="1"/>
                <rect id="Rectangle_147982" data-name="Rectangle 147982" width="125.992" height="294.47" transform="translate(351.465 65.045)" fill="#5e3b62"/>
                <rect id="Rectangle_147983" data-name="Rectangle 147983" width="125.992" height="294.47" transform="translate(351.465 65.045)" fill="none" stroke="#fff" stroke-miterlimit="10" stroke-width="1"/>
              </g>
            </g>
          </g>
        </g>
      </g>
      <path id="Path_84487" data-name="Path 84487" d="M574.867,294.472h-4.727V276.114h-6.052V272.18h16.834v3.934h-6.055Z" transform="translate(243.728 117.601)" fill="#f6fcff"/>
      <g id="Group_162764" data-name="Group 162764">
        <g id="Group_162763" data-name="Group 162763" clip-path="url(#clip-path)">
          <path id="Path_84488" data-name="Path 84488" d="M593.638,279.133a6.816,6.816,0,0,1-2.248,5.5,9.622,9.622,0,0,1-6.4,1.906h-2.028v7.928h-4.727V272.18h7.122q4.056,0,6.168,1.746a6.367,6.367,0,0,1,2.111,5.207m-10.673,3.537h1.555a5.169,5.169,0,0,0,3.262-.862,3.011,3.011,0,0,0,1.083-2.508,3.093,3.093,0,0,0-.906-2.455,4.256,4.256,0,0,0-2.844-.793h-2.149Z" transform="translate(249.841 117.601)" fill="#f6fcff"/>
          <path id="Path_84489" data-name="Path 84489" d="M610.357,272.18l-6.891,15.767a17.1,17.1,0,0,1-2.433,4.268,7.1,7.1,0,0,1-2.691,1.93,10.056,10.056,0,0,1-3.781.632,13.24,13.24,0,0,1-3.555-.457v-4.056a8.883,8.883,0,0,0,3.34.549,3.317,3.317,0,0,0,2.044-.586,4.3,4.3,0,0,0,1.3-2.036l-7.715-16.011h5l5.489,12.427h.152l.275-.762,4.606-11.666Z" transform="translate(254.911 117.601)" fill="#f6fcff"/>
          <path id="Path_84490" data-name="Path 84490" d="M610.892,280.734h1.86a11.121,11.121,0,0,1,6.739,1.769,5.869,5.869,0,0,1,2.379,5q0,6.968-9.21,6.968h-6.5V272.18h14.089v3.9h-9.361Zm0,9.865h1.585a6.281,6.281,0,0,0,3.509-.77A2.639,2.639,0,0,0,617.1,287.5a2.39,2.39,0,0,0-1.127-2.218,8.016,8.016,0,0,0-3.874-.679h-1.2Z" transform="translate(261.908 117.601)" fill="#f6fcff"/>
          <path id="Path_84491" data-name="Path 84491" d="M640.614,283.4q0,5.536-2.744,8.508T630,294.883q-5.123,0-7.868-2.974t-2.745-8.538q0-5.566,2.752-8.5t7.892-2.936q5.136,0,7.859,2.959t2.721,8.508m-16.268,0a9.313,9.313,0,0,0,1.418,5.627,4.958,4.958,0,0,0,4.239,1.89q5.656,0,5.657-7.517t-5.625-7.533a5,5,0,0,0-4.255,1.9,9.268,9.268,0,0,0-1.434,5.634" transform="translate(267.622 117.495)" fill="#f6fcff"/>
          <path id="Path_84492" data-name="Path 84492" d="M655.078,294.472h-4.712V276.114h-8.2v18.358h-4.726V272.18h17.642Z" transform="translate(275.42 117.601)" fill="#f6fcff"/>
          <path id="Path_84493" data-name="Path 84493" d="M669.084,279.133a6.816,6.816,0,0,1-2.248,5.5,9.622,9.622,0,0,1-6.4,1.906h-2.028v7.928h-4.727V272.18h7.122q4.056,0,6.168,1.746a6.367,6.367,0,0,1,2.111,5.207m-10.673,3.537h1.555a5.169,5.169,0,0,0,3.262-.862,3.011,3.011,0,0,0,1.083-2.508,3.093,3.093,0,0,0-.907-2.455,4.256,4.256,0,0,0-2.844-.793h-2.15Z" transform="translate(282.44 117.601)" fill="#f6fcff"/>
          <path id="Path_84494" data-name="Path 84494" d="M687.909,283.4q0,5.536-2.744,8.508t-7.868,2.974q-5.123,0-7.868-2.974t-2.745-8.538q0-5.566,2.752-8.5t7.892-2.936q5.136,0,7.859,2.959t2.721,8.508m-16.268,0a9.313,9.313,0,0,0,1.418,5.627,4.958,4.958,0,0,0,4.239,1.89q5.656,0,5.657-7.517t-5.625-7.533a5,5,0,0,0-4.255,1.9,9.268,9.268,0,0,0-1.433,5.634" transform="translate(288.057 117.495)" fill="#f6fcff"/>
          <path id="Path_84495" data-name="Path 84495" d="M684.731,272.18h6.938q4.741,0,6.884,1.349a4.7,4.7,0,0,1,2.142,4.292,5.4,5.4,0,0,1-.938,3.278,3.74,3.74,0,0,1-2.493,1.541v.152a4.924,4.924,0,0,1,3.057,1.769,5.764,5.764,0,0,1,.938,3.447,5.674,5.674,0,0,1-2.2,4.757,9.528,9.528,0,0,1-5.985,1.707h-8.34Zm4.727,8.829H692.2a5.022,5.022,0,0,0,2.782-.594,2.22,2.22,0,0,0,.862-1.968,1.969,1.969,0,0,0-.937-1.837,6.033,6.033,0,0,0-2.967-.557h-2.485Zm0,3.751v5.81h3.079a4.567,4.567,0,0,0,2.883-.748,2.759,2.759,0,0,0,.929-2.288q0-2.773-3.964-2.774Z" transform="translate(295.855 117.601)" fill="#f6fcff"/>
          <path id="Path_84496" data-name="Path 84496" d="M719.915,283.4q0,5.536-2.744,8.508t-7.868,2.974q-5.123,0-7.868-2.974t-2.745-8.538q0-5.566,2.752-8.5t7.892-2.936q5.136,0,7.859,2.959t2.721,8.508m-16.268,0a9.315,9.315,0,0,0,1.418,5.627,4.959,4.959,0,0,0,4.239,1.89q5.656,0,5.657-7.517t-5.625-7.533a5,5,0,0,0-4.255,1.9,9.268,9.268,0,0,0-1.433,5.634" transform="translate(301.886 117.495)" fill="#f6fcff"/>
          <path id="Path_84497" data-name="Path 84497" d="M714.884,290.538h1.723A52.4,52.4,0,0,0,720.1,281.7a60.565,60.565,0,0,0,1.906-9.522H735v18.358h2.973v10.43h-4.558v-6.5H719.444v6.5h-4.56Zm10.872-14.424a56.841,56.841,0,0,1-4.179,14.424h8.707V276.114Z" transform="translate(308.883 117.601)" fill="#f6fcff"/>
          <path id="Path_84498" data-name="Path 84498" d="M748.647,287.5a6.134,6.134,0,0,1-2.31,5.223q-2.309,1.746-6.838,1.746h-6.1V272.18h4.727v8.554h1.524a10.839,10.839,0,0,1,6.64,1.776,5.9,5.9,0,0,1,2.356,4.994m-10.52,3.1h1.234a5.978,5.978,0,0,0,3.415-.77,2.668,2.668,0,0,0,1.081-2.326,2.445,2.445,0,0,0-1.043-2.225,7.223,7.223,0,0,0-3.669-.672h-1.02Zm17.947,3.872h-4.711V272.18h4.711Z" transform="translate(316.883 117.601)" fill="#f6fcff"/>
          <path id="Path_84499" data-name="Path 84499" d="M610.9,263.608h-6.442V274.7H593.405V263.608H570.571v-7.866L594.028,221.2h10.428v33.628H610.9Zm-17.493-8.783V245.75q0-2.268.183-6.587t.292-5.012h-.292A40.938,40.938,0,0,1,590.332,240l-9.808,14.821Z" transform="translate(246.529 95.573)" fill="#f6fcff"/>
          <path id="Path_84500" data-name="Path 84500" d="M639.087,274.929h-37.4v-7.868l13.43-13.577q5.963-6.109,7.793-8.471a18.637,18.637,0,0,0,2.635-4.372,11.129,11.129,0,0,0,.8-4.172,6.08,6.08,0,0,0-1.774-4.795,6.88,6.88,0,0,0-4.739-1.574,13.607,13.607,0,0,0-6.038,1.428,31.162,31.162,0,0,0-6.112,4.061l-6.148-7.282a40.167,40.167,0,0,1,6.55-4.757,24.1,24.1,0,0,1,5.672-2.141,29.086,29.086,0,0,1,6.88-.75,20.363,20.363,0,0,1,8.856,1.83,14.142,14.142,0,0,1,5.966,5.124,13.62,13.62,0,0,1,2.121,7.538,18.458,18.458,0,0,1-1.3,6.933,26.657,26.657,0,0,1-4.026,6.643,98.37,98.37,0,0,1-9.606,9.7l-6.878,6.476v.513h23.31Z" transform="translate(259.91 95.341)" fill="#f6fcff"/>
          <path id="Path_84501" data-name="Path 84501" d="M632.411,256.777a6.135,6.135,0,0,1,1.646-4.647,6.669,6.669,0,0,1,4.793-1.574,6.489,6.489,0,0,1,4.7,1.61,7.108,7.108,0,0,1-.017,9.168A6.371,6.371,0,0,1,638.85,263a6.558,6.558,0,0,1-4.756-1.63,6.09,6.09,0,0,1-1.683-4.593" transform="translate(273.248 108.258)" fill="#f6fcff"/>
          <path id="Path_84502" data-name="Path 84502" d="M665.707,240.516q7.757,0,12.352,4.355t4.593,11.929q0,8.968-5.526,13.8t-15.809,4.83q-8.93,0-14.418-2.891v-9.77a32.5,32.5,0,0,0,14.016,3.476q10.356,0,10.357-8.489,0-8.088-10.723-8.087a26.777,26.777,0,0,0-4.282.384,31.545,31.545,0,0,0-3.805.822l-4.5-2.414,2.013-27.261h29.018v9.586h-19.1l-.99,10.5,1.282-.256a25.224,25.224,0,0,1,5.525-.513" transform="translate(279.508 95.573)" fill="#f6fcff"/>
          <path id="Path_84503" data-name="Path 84503" d="M685.482,249.733A8.546,8.546,0,0,1,684.126,255a4.716,4.716,0,0,1-3.98,1.761,4.6,4.6,0,0,1-3.888-1.807,8.51,8.51,0,0,1-1.372-5.221q0-6.968,5.26-6.968a4.684,4.684,0,0,1,3.958,1.806,8.381,8.381,0,0,1,1.378,5.163m-6.754.03a9.084,9.084,0,0,0,.344,2.89c.228.634.6.952,1.1.952q1.465,0,1.465-3.842,0-3.811-1.465-3.812c-.507,0-.877.312-1.1.937a8.941,8.941,0,0,0-.344,2.876m17.245-6.679-12.366,22.293h-3.659l12.366-22.293Zm5.124,15.554a8.527,8.527,0,0,1-1.358,5.251,4.716,4.716,0,0,1-3.98,1.761,4.592,4.592,0,0,1-3.888-1.807,8.479,8.479,0,0,1-1.373-5.206q0-6.971,5.261-6.97a4.684,4.684,0,0,1,3.957,1.807,8.364,8.364,0,0,1,1.381,5.163m-6.755.03a9.135,9.135,0,0,0,.342,2.89q.344.952,1.107.952,1.461,0,1.462-3.842,0-3.811-1.462-3.812-.765,0-1.107.938a8.982,8.982,0,0,0-.342,2.874" transform="translate(291.601 104.892)" fill="#f6fcff"/>
          <path id="Path_84504" data-name="Path 84504" d="M588.347,113.928q7.757,0,12.352,4.354t4.593,11.931q0,8.966-5.526,13.8t-15.809,4.83q-8.93,0-14.418-2.891v-9.771a32.473,32.473,0,0,0,14.016,3.477q10.356,0,10.357-8.489,0-8.088-10.723-8.087a26.611,26.611,0,0,0-4.282.384,31.55,31.55,0,0,0-3.805.822l-4.5-2.413,2.013-27.262h29.018v9.586h-19.1l-.99,10.5,1.282-.256a25.234,25.234,0,0,1,5.525-.511" transform="translate(246.083 40.877)" fill="#f6fcff"/>
          <path id="Path_84505" data-name="Path 84505" d="M604.555,148.083l20.089-43.913H598.259V94.656h38.388v7.1l-20.237,46.329Z" transform="translate(258.493 40.898)" fill="#f6fcff"/>
          <path id="Path_84506" data-name="Path 84506" d="M629.717,130.187a6.135,6.135,0,0,1,1.646-4.647,6.676,6.676,0,0,1,4.795-1.574,6.482,6.482,0,0,1,4.7,1.61,7.113,7.113,0,0,1-.017,9.168,6.38,6.38,0,0,1-4.684,1.665,6.562,6.562,0,0,1-4.757-1.63,6.1,6.1,0,0,1-1.683-4.593" transform="translate(272.084 53.562)" fill="#f6fcff"/>
          <path id="Path_84507" data-name="Path 84507" d="M663.014,113.928q7.757,0,12.352,4.354t4.593,11.931q0,8.966-5.526,13.8t-15.809,4.83q-8.93,0-14.418-2.891v-9.771a32.473,32.473,0,0,0,14.016,3.477q10.356,0,10.357-8.489,0-8.088-10.723-8.087a26.612,26.612,0,0,0-4.282.384,31.55,31.55,0,0,0-3.805.822l-4.5-2.413,2.013-27.262H676.3v9.586H657.2l-.99,10.5,1.282-.256a25.233,25.233,0,0,1,5.525-.511" transform="translate(278.344 40.877)" fill="#f6fcff"/>
          <path id="Path_84508" data-name="Path 84508" d="M682.789,123.141a8.551,8.551,0,0,1-1.356,5.269,4.717,4.717,0,0,1-3.98,1.761,4.6,4.6,0,0,1-3.888-1.807,8.511,8.511,0,0,1-1.372-5.223q0-6.966,5.26-6.967a4.684,4.684,0,0,1,3.958,1.806,8.381,8.381,0,0,1,1.378,5.161m-6.754.03a9.069,9.069,0,0,0,.344,2.89c.228.636.6.954,1.1.954q1.465,0,1.465-3.844,0-3.809-1.465-3.811c-.507,0-.876.312-1.1.938a8.919,8.919,0,0,0-.344,2.873m17.245-6.678-12.366,22.293h-3.659l12.366-22.293Zm5.124,15.554a8.526,8.526,0,0,1-1.358,5.251,4.713,4.713,0,0,1-3.98,1.763,4.6,4.6,0,0,1-3.888-1.807,8.485,8.485,0,0,1-1.373-5.207q0-6.971,5.261-6.968a4.68,4.68,0,0,1,3.957,1.807,8.354,8.354,0,0,1,1.38,5.161m-6.755.03a9.135,9.135,0,0,0,.342,2.89c.229.634.6.954,1.107.954q1.461,0,1.462-3.844,0-3.811-1.462-3.812c-.51,0-.878.314-1.107.937a9,9,0,0,0-.342,2.876" transform="translate(290.437 50.196)" fill="#f6fcff"/>
          <path id="Path_84509" data-name="Path 84509" d="M585.222,168.656h-4.711V150.3h-8.2v18.358h-4.726V146.365h17.642Z" transform="translate(245.237 63.24)" fill="#f6fcff"/>
          <path id="Path_84510" data-name="Path 84510" d="M604.361,157.586q0,5.536-2.744,8.508t-7.868,2.974q-5.123,0-7.868-2.974t-2.745-8.538q0-5.566,2.752-8.5t7.892-2.936q5.136,0,7.859,2.959t2.721,8.508m-16.268,0a9.314,9.314,0,0,0,1.418,5.627,4.959,4.959,0,0,0,4.239,1.89q5.656,0,5.657-7.517t-5.625-7.533a5,5,0,0,0-4.255,1.9,9.268,9.268,0,0,0-1.434,5.634" transform="translate(251.958 63.134)" fill="#f6fcff"/>
          <path id="Path_84511" data-name="Path 84511" d="M616.583,153.317a6.816,6.816,0,0,1-2.248,5.5,9.622,9.622,0,0,1-6.4,1.906H605.91v7.928h-4.727V146.364H608.3q4.056,0,6.168,1.746a6.367,6.367,0,0,1,2.111,5.207m-10.673,3.537h1.555a5.169,5.169,0,0,0,3.262-.862,3.011,3.011,0,0,0,1.083-2.508,3.094,3.094,0,0,0-.907-2.455,4.256,4.256,0,0,0-2.844-.793H605.91Z" transform="translate(259.756 63.24)" fill="#f6fcff"/>
          <path id="Path_84512" data-name="Path 84512" d="M624.132,168.656h-4.727V150.3h-6.052v-3.934h16.834V150.3h-6.055Z" transform="translate(265.014 63.24)" fill="#f6fcff"/>
          <path id="Path_84513" data-name="Path 84513" d="M642.752,161.687a6.135,6.135,0,0,1-2.311,5.224q-2.309,1.744-6.838,1.746h-6.1V146.364h4.727v8.555h1.524a10.834,10.834,0,0,1,6.641,1.776,5.891,5.891,0,0,1,2.357,4.992m-10.521,3.1h1.234a5.966,5.966,0,0,0,3.415-.77,2.663,2.663,0,0,0,1.083-2.326,2.441,2.441,0,0,0-1.044-2.224,7.2,7.2,0,0,0-3.667-.672H632.23Zm17.947,3.874h-4.711V146.365h4.711Z" transform="translate(271.128 63.24)" fill="#f6fcff"/>
          <g id="Group_162759" data-name="Group 162759" transform="translate(1232.802 461.236)" opacity="0.75">
            <g id="Group_162758" data-name="Group 162758">
              <g id="Group_162757" data-name="Group 162757" clip-path="url(#clip-path-6)">
                <rect id="Rectangle_147986" data-name="Rectangle 147986" width="123.453" height="269.989" fill="#5e3b62"/>
              </g>
            </g>
          </g>
          <path id="Path_84514" data-name="Path 84514" d="M154.362,135.659h-37.4v-7.868l13.431-13.577q5.961-6.109,7.792-8.471a18.633,18.633,0,0,0,2.635-4.372,11.132,11.132,0,0,0,.8-4.172A6.075,6.075,0,0,0,139.85,92.4a6.88,6.88,0,0,0-4.739-1.574,13.624,13.624,0,0,0-6.038,1.426,31.171,31.171,0,0,0-6.112,4.063l-6.148-7.284a40.232,40.232,0,0,1,6.55-4.756,24.1,24.1,0,0,1,5.672-2.141,29.085,29.085,0,0,1,6.88-.75,20.363,20.363,0,0,1,8.856,1.83,14.13,14.13,0,0,1,5.966,5.123,13.622,13.622,0,0,1,2.121,7.54,18.456,18.456,0,0,1-1.3,6.933,26.657,26.657,0,0,1-4.026,6.643,98.368,98.368,0,0,1-9.606,9.7l-6.877,6.476v.513h23.31Z" transform="translate(50.472 35.166)" fill="#f6fcff"/>
          <path id="Path_84515" data-name="Path 84515" d="M152.394,135.405l20.089-43.913H146.1V81.976h38.388v7.1L164.25,135.405Z" transform="translate(63.125 35.42)" fill="#f6fcff"/>
          <path id="Path_84516" data-name="Path 84516" d="M177.556,117.508a6.136,6.136,0,0,1,1.645-4.647A6.676,6.676,0,0,1,184,111.287a6.488,6.488,0,0,1,4.7,1.61,7.113,7.113,0,0,1-.017,9.168A6.374,6.374,0,0,1,184,123.73a6.562,6.562,0,0,1-4.757-1.63,6.1,6.1,0,0,1-1.683-4.593" transform="translate(76.717 48.084)" fill="#f6fcff"/>
          <path id="Path_84517" data-name="Path 84517" d="M226.942,94.124a12.6,12.6,0,0,1-3.037,8.527,15.746,15.746,0,0,1-8.527,4.83v.219q6.477.806,9.807,3.935a11.017,11.017,0,0,1,3.331,8.433q0,7.722-5.6,12.022t-15.992,4.3a38.827,38.827,0,0,1-15.442-2.891v-9.625a34.711,34.711,0,0,0,6.844,2.562,28.8,28.8,0,0,0,7.392.988q5.6,0,8.27-1.9t2.671-6.112a5.516,5.516,0,0,0-3.073-5.342q-3.076-1.575-9.808-1.575h-4.061v-8.673h4.134q6.221,0,9.1-1.627t2.871-5.582q0-6.075-7.61-6.075a17.441,17.441,0,0,0-5.362.878,26.294,26.294,0,0,0-6.058,3.037l-5.233-7.793a29.081,29.081,0,0,1,17.457-5.27q8.307,0,13.119,3.367a10.8,10.8,0,0,1,4.812,9.369" transform="translate(82.734 35.166)" fill="#f6fcff"/>
          <path id="Path_84518" data-name="Path 84518" d="M230.627,110.464a8.546,8.546,0,0,1-1.356,5.267,4.72,4.72,0,0,1-3.98,1.761,4.6,4.6,0,0,1-3.888-1.807,8.509,8.509,0,0,1-1.372-5.221q0-6.968,5.26-6.968a4.68,4.68,0,0,1,3.958,1.806,8.377,8.377,0,0,1,1.378,5.163m-6.754.03a9.084,9.084,0,0,0,.344,2.89c.228.634.6.952,1.1.952q1.465,0,1.465-3.842,0-3.811-1.465-3.812c-.507,0-.876.312-1.1.937a8.942,8.942,0,0,0-.344,2.876m17.245-6.679-12.366,22.293h-3.659l12.366-22.293Zm5.124,15.552a8.531,8.531,0,0,1-1.358,5.253,4.72,4.72,0,0,1-3.98,1.761,4.591,4.591,0,0,1-3.888-1.807,8.48,8.48,0,0,1-1.373-5.207q0-6.968,5.261-6.968a4.684,4.684,0,0,1,3.957,1.807,8.359,8.359,0,0,1,1.381,5.161m-6.755.03a9.133,9.133,0,0,0,.342,2.89q.344.954,1.107.954,1.461,0,1.462-3.844,0-3.809-1.462-3.811-.765,0-1.107.938a8.975,8.975,0,0,0-.342,2.873" transform="translate(95.07 44.718)" fill="#f6fcff"/>
          <path id="Path_84519" data-name="Path 84519" d="M75.637,282.468q7.684,0,12.386,3.494a11.137,11.137,0,0,1,4.7,9.423,12.306,12.306,0,0,1-2.27,7.3,19.308,19.308,0,0,1-7.318,5.727q6,3.222,8.618,6.715a12.519,12.519,0,0,1,2.616,7.667,12.755,12.755,0,0,1-5.16,10.593q-5.16,4.006-13.576,4.007-8.784,0-13.8-3.732t-5.014-10.576a14.022,14.022,0,0,1,2.433-8.124,20.216,20.216,0,0,1,7.813-6.257,20.029,20.029,0,0,1-6.586-6.185,13.547,13.547,0,0,1-2.013-7.209,11.064,11.064,0,0,1,4.757-9.294q4.758-3.549,12.406-3.55m-8.343,39.961a5.921,5.921,0,0,0,2.2,4.9,9.344,9.344,0,0,0,6,1.756q4.208,0,6.3-1.81A6.021,6.021,0,0,0,83.87,322.5,6.534,6.534,0,0,0,81.8,317.91a26.548,26.548,0,0,0-6.715-4.557q-7.793,3.587-7.793,9.075m8.269-31.69A7.037,7.037,0,0,0,70.9,292.22a4.909,4.909,0,0,0-1.774,3.971,6.09,6.09,0,0,0,1.408,3.934,15.541,15.541,0,0,0,5.107,3.567,14.309,14.309,0,0,0,5.014-3.44,6.257,6.257,0,0,0,1.426-4.061,4.835,4.835,0,0,0-1.83-3.99,7.268,7.268,0,0,0-4.684-1.464" transform="translate(24.553 122.047)" fill="#5e3b62"/>
          <path id="Path_84520" data-name="Path 84520" d="M87.85,318.535a6.135,6.135,0,0,1,1.645-4.647,6.676,6.676,0,0,1,4.795-1.574,6.488,6.488,0,0,1,4.7,1.61,7.113,7.113,0,0,1-.017,9.168,6.374,6.374,0,0,1-4.684,1.665,6.562,6.562,0,0,1-4.757-1.63,6.1,6.1,0,0,1-1.683-4.593" transform="translate(37.958 134.942)" fill="#5e3b62"/>
          <path id="Path_84521" data-name="Path 84521" d="M141,325.365h-6.441v11.089H123.511V325.365H100.677V317.5l23.457-34.544h10.428v33.628H141Zm-17.493-8.783v-9.075q0-2.268.183-6.588t.292-5.012h-.292a40.943,40.943,0,0,1-3.257,5.854l-9.808,14.821Z" transform="translate(43.5 122.257)" fill="#5e3b62"/>
          <path id="Path_84522" data-name="Path 84522" d="M140.921,311.491a8.546,8.546,0,0,1-1.356,5.267,4.716,4.716,0,0,1-3.98,1.761,4.6,4.6,0,0,1-3.888-1.807,8.51,8.51,0,0,1-1.372-5.221q0-6.968,5.26-6.968a4.684,4.684,0,0,1,3.958,1.806,8.38,8.38,0,0,1,1.378,5.163m-6.754.03a9.083,9.083,0,0,0,.344,2.89c.228.634.6.952,1.1.952q1.465,0,1.465-3.842,0-3.811-1.465-3.812c-.507,0-.876.312-1.1.937a8.94,8.94,0,0,0-.344,2.876m17.245-6.679-12.366,22.293h-3.659l12.366-22.293Zm5.124,15.554a8.526,8.526,0,0,1-1.358,5.251,4.716,4.716,0,0,1-3.98,1.761,4.591,4.591,0,0,1-3.888-1.807,8.478,8.478,0,0,1-1.373-5.206q0-6.971,5.261-6.97a4.684,4.684,0,0,1,3.957,1.807,8.364,8.364,0,0,1,1.381,5.163m-6.755.03a9.133,9.133,0,0,0,.342,2.89q.344.952,1.107.952,1.461,0,1.462-3.842,0-3.811-1.462-3.812-.765,0-1.107.938a8.979,8.979,0,0,0-.342,2.874" transform="translate(56.31 131.576)" fill="#5e3b62"/>
          <text id="_21.8" data-name="21.8" transform="translate(1221.168 801.932)" fill="#5e3b62" font-size="72" font-family="FuturaPT-Bold, Futura PT" font-weight="700"><tspan x="0" y="0" letter-spacing="-0.086em">2</tspan><tspan y="0" letter-spacing="-0.061em">1</tspan><tspan y="0">.8</tspan></text>
          <text id="_" data-name="%" transform="translate(1367.61 803.894)" fill="#5e3b62" font-size="31" font-family="FuturaPT-Bold, Futura PT" font-weight="700"><tspan x="0" y="0">%</tspan></text>
          <path id="Path_84523" data-name="Path 84523" d="M882.609,258.555h29.229v88.963" transform="translate(381.353 111.714)" fill="none" stroke="#5e3b62" stroke-miterlimit="10" stroke-width="1"/>
          <line id="Line_713" data-name="Line 713" x2="423.287" transform="translate(364.713 135.315)" fill="none" stroke="#5e3b62" stroke-miterlimit="10" stroke-width="1"/>
          <path id="Path_84524" data-name="Path 84524" d="M44.5,436.55H1063.326V92.358" transform="translate(19.227 39.905)" fill="none" stroke="#5e3b62" stroke-miterlimit="10" stroke-width="1"/>
          <g id="Group_162762" data-name="Group 162762" transform="translate(0 372.826)" opacity="0.75">
            <g id="Group_162761" data-name="Group 162761">
              <g id="Group_162760" data-name="Group 162760" clip-path="url(#clip-path-7)">
                <rect id="Rectangle_147988" data-name="Rectangle 147988" width="64.33" height="225.624" transform="translate(0 0.001)" fill="#5e3b62"/>
              </g>
            </g>
          </g>
        </g>
      </g>
    </g>
  </g>
</svg>
