<?xml version="1.0" encoding="utf-8"?>
<!-- Generator: Adobe Illustrator 26.0.2, SVG Export Plug-In . SVG Version: 6.00 Build 0)  -->
<svg version="1.1" id="Component_65_27" xmlns="http://www.w3.org/2000/svg" xmlns:xlink="http://www.w3.org/1999/xlink" x="0px"
	 y="0px" viewBox="0 0 646.1 597.8" style="enable-background:new 0 0 646.1 597.8;" xml:space="preserve">
<style type="text/css">
	.st0{opacity:0.6;fill:#951B81;enable-background:new    ;}
	.st1{enable-background:new    ;}
	.st2{fill:#FFFFFF;}
</style>
<path id="Path_83167" class="st0" d="M225.6,42L522.2,0l123.8,597.8L0,553.3L225.6,42z"/>
<g class="st1">
	<path class="st2" d="M257.1,92.1c0,1.4-0.5,2.5-1.5,3.4s-2.3,1.5-4,1.7v0.1c2,0.2,3.5,0.7,4.5,1.6s1.6,2,1.6,3.5
		c0,2-0.8,3.5-2.4,4.7s-3.8,1.7-6.6,1.7c-3.1,0-5.7-0.4-7.6-1.2v-3.8c0.9,0.4,2,0.8,3.2,1c1.2,0.2,2.4,0.4,3.5,0.4
		c3.6,0,5.4-1,5.4-3.1c0-0.9-0.6-1.7-1.7-2.2s-2.9-0.8-5.1-0.8h-2v-3.5h1.8c2.3,0,3.9-0.2,5-0.6s1.6-1.1,1.6-2.1
		c0-0.7-0.3-1.3-1-1.8c-0.6-0.4-1.6-0.7-2.9-0.7c-2,0-4,0.6-5.8,1.7l-2-3c1.2-0.8,2.5-1.4,3.9-1.8c1.4-0.4,2.9-0.6,4.6-0.6
		c2.3,0,4.2,0.5,5.6,1.5S257.1,90.5,257.1,92.1z"/>
	<path class="st2" d="M274.9,108.5l-1.6-5.1h-7.8l-1.6,5.1h-4.9l7.6-21.5h5.6l7.6,21.5H274.9z M272.3,99.6c-1.4-4.6-2.2-7.2-2.4-7.8
		s-0.3-1.1-0.4-1.4c-0.3,1.2-1.2,4.3-2.8,9.3H272.3z"/>
	<path class="st2" d="M299.4,108.5h-4.5V90.9H287v17.6h-4.5V87.1h16.9V108.5z"/>
	<path class="st2" d="M317.9,108.5l-1.6-5.1h-7.8l-1.6,5.1h-4.9l7.6-21.5h5.6l7.6,21.5H317.9z M315.3,99.6c-1.4-4.6-2.2-7.2-2.4-7.8
		s-0.3-1.1-0.4-1.4c-0.3,1.2-1.2,4.3-2.8,9.3H315.3z"/>
	<path class="st2" d="M323,104.8h1.7c1.4-2.8,2.5-5.7,3.4-8.5c0.8-2.8,1.4-5.9,1.8-9.1h12.5v17.6h2.9v10h-4.4v-6.2h-13.4v6.2H323
		V104.8z M333.4,90.9c-0.3,2.2-0.8,4.6-1.6,7.1s-1.5,4.8-2.5,6.8h8.4V90.9H333.4z"/>
	<path class="st2" d="M366,108.5h-4.5v-9.2H353v9.2h-4.5V87.1h4.5v8.4h8.5v-8.4h4.5V108.5z"/>
	<path class="st2" d="M384.5,108.5l-1.6-5.1h-7.8l-1.6,5.1h-4.9l7.6-21.5h5.6l7.6,21.5H384.5z M381.9,99.6c-1.4-4.6-2.2-7.2-2.4-7.8
		s-0.3-1.1-0.4-1.4c-0.3,1.2-1.2,4.3-2.8,9.3H381.9z"/>
	<path class="st2" d="M399.3,100.3l-5,8.2h-5l6.1-9.4c-1.2-0.5-2.1-1.2-2.8-2.3s-1-2.2-1-3.6c0-2,0.7-3.5,2.1-4.5s3.4-1.6,6-1.6h7
		v21.4h-4.5v-8.2H399.3z M402.1,90.8h-2.2c-1.2,0-2.1,0.2-2.7,0.6s-1,1.1-1,2.1c0,0.9,0.3,1.7,0.9,2.2s1.6,0.8,2.9,0.8h2.1V90.8z"/>
</g>
<g class="st1">
	<path class="st2" d="M251.4,125.6c-1.7,0-3,0.6-4,1.9s-1.4,3.1-1.4,5.4c0,4.8,1.8,7.2,5.4,7.2c1.5,0,3.3-0.4,5.5-1.1v3.8
		c-1.8,0.7-3.7,1.1-5.9,1.1c-3.1,0-5.5-0.9-7.1-2.8c-1.7-1.9-2.5-4.6-2.5-8.1c0-2.2,0.4-4.2,1.2-5.9c0.8-1.7,2-3,3.5-3.9
		c1.5-0.9,3.3-1.3,5.3-1.3c2.1,0,4.2,0.5,6.3,1.5l-1.5,3.7c-0.8-0.4-1.6-0.7-2.4-1S252.2,125.6,251.4,125.6z"/>
	<path class="st2" d="M261.5,122.1h4.1v10.3l-0.1,2.8l-0.1,3.1h0.1l9.9-16.3h5.4v21.4h-4v-10.3c0-1.4,0.1-3.4,0.3-6.1h-0.1
		l-9.9,16.4h-5.5V122.1z"/>
	<path class="st2" d="M290.7,130.3h1.8c2.8,0,5,0.6,6.5,1.7s2.3,2.7,2.3,4.8c0,4.5-2.9,6.7-8.8,6.7h-6.2v-21.4h13.5v3.8h-9V130.3z
		 M290.7,139.8h1.5c1.5,0,2.7-0.2,3.4-0.7c0.7-0.5,1.1-1.2,1.1-2.2c0-1-0.4-1.7-1.1-2.1c-0.7-0.4-2-0.7-3.7-0.7h-1.2V139.8z"/>
	<path class="st2" d="M305.3,122.1h4.1v10.3l-0.1,2.8l-0.1,3.1h0.1l9.9-16.3h5.4v21.4h-4v-10.3c0-1.4,0.1-3.4,0.3-6.1h-0.1
		l-9.9,16.4h-5.5V122.1z"/>
	<path class="st2" d="M344.8,128.8c0,2.3-0.7,4.1-2.2,5.3s-3.5,1.8-6.1,1.8h-1.9v7.6H330v-21.4h6.8c2.6,0,4.6,0.6,5.9,1.7
		S344.8,126.6,344.8,128.8z M334.5,132.2h1.5c1.4,0,2.4-0.3,3.1-0.8c0.7-0.6,1-1.4,1-2.4c0-1.1-0.3-1.9-0.9-2.4s-1.5-0.8-2.7-0.8
		h-2.1V132.2z"/>
	<path class="st2" d="M363.9,136.8c0,4.5-2.9,6.7-8.8,6.7h-6.2v-21.4h4.5v8.2h1.8c2.8,0,5,0.6,6.5,1.7S363.9,134.8,363.9,136.8z
		 M353.4,139.8h1.5c1.5,0,2.7-0.2,3.4-0.7c0.7-0.5,1.1-1.2,1.1-2.2c0-1-0.4-1.7-1.1-2.1c-0.7-0.4-2-0.7-3.7-0.7h-1.2V139.8z"/>
</g>
<g class="st1">
	<path class="st2" d="M260.3,211c4.8,0,8.6,1.3,11.4,4c2.8,2.7,4.2,6.3,4.2,11c0,5.5-1.7,9.7-5.1,12.7c-3.4,3-8.2,4.4-14.6,4.4
		c-5.5,0-9.9-0.9-13.3-2.7v-9c1.8,0.9,3.8,1.7,6.2,2.3c2.4,0.6,4.6,0.9,6.7,0.9c6.4,0,9.5-2.6,9.5-7.8c0-5-3.3-7.4-9.9-7.4
		c-1.2,0-2.5,0.1-3.9,0.4c-1.4,0.2-2.6,0.5-3.5,0.8l-4.1-2.2l1.9-25.1h26.7v8.8H255l-0.9,9.7l1.2-0.2
		C256.6,211.1,258.3,211,260.3,211z"/>
	<path class="st2" d="M286.7,242.4l18.5-40.4h-24.3v-8.8h35.3v6.5l-18.6,42.7H286.7z"/>
	<path class="st2" d="M322.4,237.6c0-1.9,0.5-3.3,1.5-4.3c1-1,2.5-1.4,4.4-1.4c1.9,0,3.3,0.5,4.3,1.5c1,1,1.5,2.4,1.5,4.2
		c0,1.8-0.5,3.2-1.5,4.2c-1,1-2.5,1.5-4.3,1.5c-1.9,0-3.3-0.5-4.4-1.5S322.4,239.4,322.4,237.6z"/>
	<path class="st2" d="M375,217.8c0,8.6-1.4,15-4.2,19.1c-2.8,4.1-7.2,6.2-13,6.2c-5.7,0-10-2.1-12.9-6.4c-2.9-4.3-4.3-10.6-4.3-18.9
		c0-8.7,1.4-15.1,4.2-19.2c2.8-4.1,7.1-6.2,13-6.2c5.7,0,10,2.2,12.9,6.5C373.6,203.2,375,209.5,375,217.8z M350.9,217.8
		c0,6,0.5,10.4,1.6,13c1,2.6,2.8,3.9,5.3,3.9c2.4,0,4.2-1.3,5.3-4c1.1-2.6,1.6-7,1.6-12.9c0-6-0.5-10.4-1.6-13c-1.1-2.6-2.8-4-5.2-4
		c-2.4,0-4.2,1.3-5.3,4C351.5,207.4,350.9,211.8,350.9,217.8z"/>
	<path class="st2" d="M403,207.9c0,5.2-1,9-3,11.6c-2,2.6-4.9,3.9-8.8,3.9c-3.7,0-6.6-1.3-8.6-4c-2-2.7-3-6.5-3-11.5
		c0-10.3,3.9-15.4,11.6-15.4c3.8,0,6.7,1.3,8.7,4C402,199.1,403,202.9,403,207.9z M388.1,207.9c0,2.9,0.3,5,0.8,6.4
		c0.5,1.4,1.3,2.1,2.4,2.1c2.2,0,3.2-2.8,3.2-8.5c0-5.6-1.1-8.4-3.2-8.4c-1.1,0-1.9,0.7-2.4,2.1C388.3,203,388.1,205.1,388.1,207.9z
		 M426.2,193.2l-27.3,49.3h-8.1l27.3-49.3H426.2z M437.5,227.5c0,5.1-1,9-3,11.6c-2,2.6-4.9,3.9-8.8,3.9c-3.7,0-6.6-1.3-8.6-4
		c-2-2.7-3-6.5-3-11.5c0-10.3,3.9-15.4,11.6-15.4c3.8,0,6.7,1.3,8.7,4C436.5,218.8,437.5,222.6,437.5,227.5z M422.6,227.6
		c0,2.9,0.3,5,0.8,6.4c0.5,1.4,1.3,2.1,2.4,2.1c2.2,0,3.2-2.8,3.2-8.5c0-5.6-1.1-8.4-3.2-8.4c-1.1,0-1.9,0.7-2.4,2.1
		C422.8,222.6,422.6,224.7,422.6,227.6z"/>
</g>
<g class="st1">
	<path class="st2" d="M246.6,288.5h-5.7v-3.2h5.7v-5.7h3.2v5.7h5.7v3.2h-5.7v5.6h-3.2V288.5z"/>
	<path class="st2" d="M272.8,286.8c0,3.7-0.6,6.5-1.8,8.3s-3.1,2.7-5.7,2.7c-2.5,0-4.3-0.9-5.6-2.8s-1.9-4.6-1.9-8.2
		c0-3.8,0.6-6.6,1.8-8.4s3.1-2.7,5.6-2.7c2.5,0,4.3,0.9,5.6,2.8S272.8,283.1,272.8,286.8z M262.4,286.8c0,2.6,0.2,4.5,0.7,5.6
		s1.2,1.7,2.3,1.7c1.1,0,1.8-0.6,2.3-1.7s0.7-3,0.7-5.6c0-2.6-0.2-4.5-0.7-5.7s-1.2-1.7-2.3-1.7c-1.1,0-1.8,0.6-2.3,1.7
		S262.4,284.1,262.4,286.8z"/>
	<path class="st2" d="M275.6,295.4c0-0.8,0.2-1.4,0.7-1.9s1.1-0.6,1.9-0.6c0.8,0,1.4,0.2,1.9,0.6s0.7,1,0.7,1.8
		c0,0.8-0.2,1.4-0.7,1.8c-0.4,0.4-1.1,0.7-1.9,0.7c-0.8,0-1.5-0.2-1.9-0.7C275.8,296.8,275.6,296.2,275.6,295.4z"/>
	<path class="st2" d="M298.5,286.8c0,3.7-0.6,6.5-1.8,8.3s-3.1,2.7-5.7,2.7c-2.5,0-4.3-0.9-5.6-2.8s-1.9-4.6-1.9-8.2
		c0-3.8,0.6-6.6,1.8-8.4s3.1-2.7,5.6-2.7c2.5,0,4.3,0.9,5.6,2.8S298.5,283.1,298.5,286.8z M288,286.8c0,2.6,0.2,4.5,0.7,5.6
		s1.2,1.7,2.3,1.7c1.1,0,1.8-0.6,2.3-1.7s0.7-3,0.7-5.6c0-2.6-0.2-4.5-0.7-5.7s-1.2-1.7-2.3-1.7c-1.1,0-1.8,0.6-2.3,1.7
		S288,284.1,288,286.8z"/>
	<path class="st2" d="M327,297.5h-4.5v-17.6h-7.9v17.6h-4.5V276H327V297.5z"/>
	<path class="st2" d="M331.4,295.4c0-0.8,0.2-1.4,0.7-1.9s1.1-0.6,1.9-0.6c0.8,0,1.4,0.2,1.9,0.6s0.7,1,0.7,1.8
		c0,0.8-0.2,1.4-0.7,1.8c-0.4,0.4-1.1,0.7-1.9,0.7c-0.8,0-1.5-0.2-1.9-0.7C331.7,296.8,331.4,296.2,331.4,295.4z"/>
	<path class="st2" d="M357.9,297.5h-4.5v-17.6h-7.9v17.6H341V276h16.9V297.5z"/>
</g>
</svg>
