<?xml version="1.0" encoding="utf-8"?>
<!-- Generator: Adobe Illustrator 26.0.2, SVG Export Plug-In . SVG Version: 6.00 Build 0)  -->
<svg version="1.1" id="Component_67_5" xmlns="http://www.w3.org/2000/svg" xmlns:xlink="http://www.w3.org/1999/xlink" x="0px"
	 y="0px" viewBox="0 0 782.8 622.7" style="enable-background:new 0 0 782.8 622.7;" xml:space="preserve">
<style type="text/css">
	.st0{opacity:0.4;fill:#F3AE4D;enable-background:new    ;}
	.st1{enable-background:new    ;}
	.st2{fill:#FFFFFF;}
</style>
<path id="Path_83168" class="st0" d="M0,0l560,101.1l222.8,108.4L625.1,622.7l-502.5-26.8L0,0z"/>
<g class="st1">
	<path class="st2" d="M110.3,154.2h6.7c3,0,5.2,0.4,6.6,1.3c1.4,0.9,2.1,2.2,2.1,4.1c0,1.3-0.3,2.3-0.9,3.1s-1.4,1.3-2.4,1.5v0.1
		c1.4,0.3,2.3,0.9,2.9,1.7s0.9,1.9,0.9,3.3c0,2-0.7,3.5-2.1,4.6s-3.3,1.6-5.7,1.6h-8V154.2z M114.9,162.7h2.6c1.2,0,2.1-0.2,2.7-0.6
		s0.8-1,0.8-1.9c0-0.8-0.3-1.4-0.9-1.8s-1.6-0.5-2.8-0.5h-2.4V162.7z M114.9,166.3v5.6h3c1.2,0,2.2-0.2,2.8-0.7s0.9-1.2,0.9-2.2
		c0-1.8-1.3-2.7-3.8-2.7H114.9z"/>
	<path class="st2" d="M149.9,164.9c0,3.5-0.9,6.3-2.6,8.2s-4.3,2.9-7.6,2.9s-5.8-1-7.6-2.9s-2.6-4.6-2.6-8.2s0.9-6.3,2.6-8.2
		c1.8-1.9,4.3-2.8,7.6-2.8s5.8,0.9,7.6,2.8S149.9,161.4,149.9,164.9z M134.3,164.9c0,2.4,0.5,4.2,1.4,5.4s2.3,1.8,4.1,1.8
		c3.6,0,5.4-2.4,5.4-7.2c0-4.8-1.8-7.2-5.4-7.2c-1.8,0-3.2,0.6-4.1,1.8C134.7,160.7,134.3,162.5,134.3,164.9z"/>
	<path class="st2" d="M163.4,157.7c-1.7,0-3,0.6-4,1.9s-1.4,3.1-1.4,5.4c0,4.8,1.8,7.2,5.4,7.2c1.5,0,3.3-0.4,5.5-1.1v3.8
		c-1.8,0.7-3.7,1.1-5.9,1.1c-3.1,0-5.5-0.9-7.1-2.8c-1.7-1.9-2.5-4.6-2.5-8.1c0-2.2,0.4-4.2,1.2-5.9c0.8-1.7,2-3,3.5-3.9
		c1.5-0.9,3.3-1.3,5.3-1.3c2.1,0,4.2,0.5,6.3,1.5l-1.5,3.7c-0.8-0.4-1.6-0.7-2.4-1S164.2,157.7,163.4,157.7z"/>
	<path class="st2" d="M181.7,175.7h-4.5V158h-5.8v-3.8h16.2v3.8h-5.8V175.7z"/>
	<path class="st2" d="M210.3,164.9c0,3.5-0.9,6.3-2.6,8.2s-4.3,2.9-7.6,2.9s-5.8-1-7.6-2.9s-2.6-4.6-2.6-8.2s0.9-6.3,2.6-8.2
		c1.8-1.9,4.3-2.8,7.6-2.8s5.8,0.9,7.6,2.8S210.3,161.4,210.3,164.9z M194.6,164.9c0,2.4,0.5,4.2,1.4,5.4s2.3,1.8,4.1,1.8
		c3.6,0,5.4-2.4,5.4-7.2c0-4.8-1.8-7.2-5.4-7.2c-1.8,0-3.2,0.6-4.1,1.8C195.1,160.7,194.6,162.5,194.6,164.9z"/>
	<path class="st2" d="M231.2,175.7h-4.5v-8.3c-1.5,0.5-2.8,0.9-3.8,1s-2,0.3-2.9,0.3c-2,0-3.6-0.5-4.7-1.5c-1.1-1-1.7-2.4-1.7-4.1
		v-8.8h4.5v7.6c0,1,0.2,1.8,0.7,2.3c0.5,0.5,1.3,0.8,2.4,0.8c0.8,0,1.6-0.1,2.4-0.2c0.8-0.2,1.8-0.4,2.9-0.8v-9.6h4.5V175.7z"/>
	<path class="st2" d="M254.1,175.7h-4.5v-9.2h-8.5v9.2h-4.5v-21.4h4.5v8.4h8.5v-8.4h4.5V175.7z"/>
	<path class="st2" d="M272.6,175.7l-1.6-5.1h-7.8l-1.6,5.1h-4.9l7.6-21.5h5.6l7.6,21.5H272.6z M270,166.7c-1.4-4.6-2.2-7.2-2.4-7.8
		s-0.3-1.1-0.4-1.4c-0.3,1.2-1.2,4.3-2.8,9.3H270z"/>
	<path class="st2" d="M287.4,167.4l-5,8.2h-5l6.1-9.4c-1.2-0.5-2.1-1.2-2.8-2.3s-1-2.2-1-3.6c0-2,0.7-3.5,2.1-4.5s3.4-1.6,6-1.6h7
		v21.4h-4.5v-8.2H287.4z M290.2,158H288c-1.2,0-2.1,0.2-2.7,0.6s-1,1.1-1,2.1c0,0.9,0.3,1.7,0.9,2.2s1.6,0.8,2.9,0.8h2.1V158z"/>
	<path class="st2" d="M317.1,157.7c-1.7,0-3,0.6-4,1.9s-1.4,3.1-1.4,5.4c0,4.8,1.8,7.2,5.4,7.2c1.5,0,3.3-0.4,5.5-1.1v3.8
		c-1.8,0.7-3.7,1.1-5.9,1.1c-3.1,0-5.5-0.9-7.1-2.8c-1.7-1.9-2.5-4.6-2.5-8.1c0-2.2,0.4-4.2,1.2-5.9c0.8-1.7,2-3,3.5-3.9
		c1.5-0.9,3.3-1.3,5.3-1.3c2.1,0,4.2,0.5,6.3,1.5l-1.5,3.7c-0.8-0.4-1.6-0.7-2.4-1S317.8,157.7,317.1,157.7z"/>
	<path class="st2" d="M327.1,154.2h4.1v10.3l-0.1,2.8l-0.1,3.1h0.1l9.9-16.3h5.4v21.4h-4v-10.3c0-1.4,0.1-3.4,0.3-6.1h-0.1
		l-9.9,16.4h-5.5V154.2z"/>
	<path class="st2" d="M356.3,162.5h1.8c2.8,0,5,0.6,6.5,1.7s2.3,2.7,2.3,4.8c0,4.5-2.9,6.7-8.8,6.7h-6.2v-21.4h13.5v3.8h-9V162.5z
		 M356.3,171.9h1.5c1.5,0,2.7-0.2,3.4-0.7c0.7-0.5,1.1-1.2,1.1-2.2c0-1-0.4-1.7-1.1-2.1c-0.7-0.4-2-0.7-3.7-0.7h-1.2V171.9z"/>
	<path class="st2" d="M370.9,154.2h4.1v10.3l-0.1,2.8l-0.1,3.1h0.1l9.9-16.3h5.4v21.4h-4v-10.3c0-1.4,0.1-3.4,0.3-6.1h-0.1
		l-9.9,16.4h-5.5V154.2z"/>
	<path class="st2" d="M410.4,160.9c0,2.3-0.7,4.1-2.2,5.3c-1.4,1.2-3.5,1.8-6.1,1.8h-1.9v7.6h-4.5v-21.4h6.8c2.6,0,4.6,0.6,5.9,1.7
		S410.4,158.7,410.4,160.9z M400.2,164.3h1.5c1.4,0,2.4-0.3,3.1-0.8c0.7-0.6,1-1.4,1-2.4c0-1.1-0.3-1.9-0.9-2.4s-1.5-0.8-2.7-0.8
		h-2.1V164.3z"/>
	<path class="st2" d="M429.5,169c0,4.5-2.9,6.7-8.8,6.7h-6.2v-21.4h4.5v8.2h1.8c2.8,0,5,0.6,6.5,1.7S429.5,166.9,429.5,169z
		 M419,171.9h1.5c1.5,0,2.7-0.2,3.4-0.7c0.7-0.5,1.1-1.2,1.1-2.2c0-1-0.4-1.7-1.1-2.1c-0.7-0.4-2-0.7-3.7-0.7H419V171.9z"/>
</g>
<g class="st1">
	<path class="st2" d="M110.3,189.2h4.1v10.3l-0.1,2.8l-0.1,3.1h0.1l9.9-16.3h5.4v21.4h-4v-10.3c0-1.4,0.1-3.4,0.3-6.1h-0.1
		l-9.9,16.4h-5.5V189.2z"/>
	<path class="st2" d="M140.3,206.9h1.7c1.4-2.8,2.5-5.7,3.4-8.5c0.8-2.8,1.4-5.9,1.8-9.1h12.5v17.6h2.9v10h-4.4v-6.2h-13.4v6.2h-4.4
		V206.9z M150.7,193c-0.3,2.2-0.8,4.6-1.6,7.1s-1.5,4.8-2.5,6.8h8.4V193H150.7z"/>
	<path class="st2" d="M178.8,210.7l-1.6-5.1h-7.8l-1.6,5.1H163l7.6-21.5h5.6l7.6,21.5H178.8z M176.2,201.7c-1.4-4.6-2.2-7.2-2.4-7.8
		s-0.3-1.1-0.4-1.4c-0.3,1.2-1.2,4.3-2.8,9.3H176.2z"/>
	<path class="st2" d="M203.4,210.7h-4.5V193h-5.2l-0.2,2c-0.6,5-1.1,8.5-1.6,10.5c-0.5,2-1.1,3.4-2,4.3s-2.1,1.2-3.6,1.2
		c-0.8,0-1.5-0.1-2.2-0.3v-3.7c0.6,0.2,1.1,0.3,1.6,0.3c0.5,0,0.9-0.2,1.2-0.7c0.3-0.5,0.6-1.4,0.9-2.6c0.3-1.3,0.6-3.4,1.1-6.3
		s0.8-5.7,1.1-8.3h13.5V210.7z"/>
	<path class="st2" d="M223.9,204c0,4.5-2.9,6.7-8.8,6.7h-6.2v-21.4h4.5v8.2h1.8c2.8,0,5,0.6,6.5,1.7S223.9,201.9,223.9,204z
		 M213.3,206.9h1.5c1.5,0,2.7-0.2,3.4-0.7c0.7-0.5,1.1-1.2,1.1-2.2c0-1-0.4-1.7-1.1-2.1c-0.7-0.4-2-0.7-3.7-0.7h-1.2V206.9z"/>
	<path class="st2" d="M245.5,210.7H241v-9.2h-8.5v9.2h-4.5v-21.4h4.5v8.4h8.5v-8.4h4.5V210.7z"/>
	<path class="st2" d="M250.9,189.2h4.1v10.3l-0.1,2.8l-0.1,3.1h0.1l9.9-16.3h5.4v21.4h-4v-10.3c0-1.4,0.1-3.4,0.3-6.1h-0.1
		l-9.9,16.4h-5.5V189.2z"/>
	<path class="st2" d="M275.6,189.2h4.1v10.3l-0.1,2.8l-0.1,3.1h0.1l9.9-16.3h5.4v21.4h-4v-10.3c0-1.4,0.1-3.4,0.3-6.1H291l-9.9,16.4
		h-5.5V189.2z M292.3,182.3c-0.2,1.8-0.9,3.2-2.1,4c-1.2,0.8-2.9,1.3-5.2,1.3c-2.3,0-4-0.4-5.1-1.2s-1.7-2.1-1.9-4h4
		c0.1,1,0.3,1.7,0.8,2.1c0.4,0.4,1.2,0.6,2.3,0.6c1,0,1.7-0.2,2.2-0.7c0.5-0.4,0.8-1.1,0.9-2.1H292.3z"/>
	<path class="st2" d="M308.1,189.2h6.7c3,0,5.2,0.4,6.6,1.3c1.4,0.9,2.1,2.2,2.1,4.1c0,1.3-0.3,2.3-0.9,3.1s-1.4,1.3-2.4,1.5v0.1
		c1.4,0.3,2.3,0.9,2.9,1.7s0.9,1.9,0.9,3.3c0,2-0.7,3.5-2.1,4.6s-3.3,1.6-5.7,1.6h-8V189.2z M312.6,197.7h2.6c1.2,0,2.1-0.2,2.7-0.6
		s0.8-1,0.8-1.9c0-0.8-0.3-1.4-0.9-1.8s-1.6-0.5-2.8-0.5h-2.4V197.7z M312.6,201.3v5.6h3c1.2,0,2.2-0.2,2.8-0.7s0.9-1.2,0.9-2.2
		c0-1.8-1.3-2.7-3.8-2.7H312.6z"/>
	<path class="st2" d="M347.7,199.9c0,3.5-0.9,6.3-2.6,8.2s-4.3,2.9-7.6,2.9s-5.8-1-7.6-2.9s-2.6-4.6-2.6-8.2s0.9-6.3,2.6-8.2
		c1.8-1.9,4.3-2.8,7.6-2.8s5.8,0.9,7.6,2.8S347.7,196.4,347.7,199.9z M332,199.9c0,2.4,0.5,4.2,1.4,5.4s2.3,1.8,4.1,1.8
		c3.6,0,5.4-2.4,5.4-7.2c0-4.8-1.8-7.2-5.4-7.2c-1.8,0-3.2,0.6-4.1,1.8C332.5,195.7,332,197.5,332,199.9z"/>
	<path class="st2" d="M361.2,192.7c-1.7,0-3,0.6-4,1.9s-1.4,3.1-1.4,5.4c0,4.8,1.8,7.2,5.4,7.2c1.5,0,3.3-0.4,5.5-1.1v3.8
		c-1.8,0.7-3.7,1.1-5.9,1.1c-3.1,0-5.5-0.9-7.1-2.8c-1.7-1.9-2.5-4.6-2.5-8.1c0-2.2,0.4-4.2,1.2-5.9c0.8-1.7,2-3,3.5-3.9
		c1.5-0.9,3.3-1.3,5.3-1.3c2.1,0,4.2,0.5,6.3,1.5l-1.5,3.7c-0.8-0.4-1.6-0.7-2.4-1S362,192.7,361.2,192.7z"/>
	<path class="st2" d="M379.5,210.7h-4.5V193h-5.8v-3.8h16.2v3.8h-5.8V210.7z"/>
	<path class="st2" d="M408,199.9c0,3.5-0.9,6.3-2.6,8.2s-4.3,2.9-7.6,2.9s-5.8-1-7.6-2.9s-2.6-4.6-2.6-8.2s0.9-6.3,2.6-8.2
		c1.8-1.9,4.3-2.8,7.6-2.8s5.8,0.9,7.6,2.8S408,196.4,408,199.9z M392.4,199.9c0,2.4,0.5,4.2,1.4,5.4s2.3,1.8,4.1,1.8
		c3.6,0,5.4-2.4,5.4-7.2c0-4.8-1.8-7.2-5.4-7.2c-1.8,0-3.2,0.6-4.1,1.8C392.9,195.7,392.4,197.5,392.4,199.9z"/>
	<path class="st2" d="M429.9,210.7h-5.2l-7.8-10.9v10.9h-4.5v-21.4h4.5v10.4l7.7-10.4h4.8l-7.8,10.3L429.9,210.7z"/>
</g>
</svg>
