<svg version="1.1" width="646.1" height="597.8" id="Component_65_8" xmlns="http://www.w3.org/2000/svg" xmlns:xlink="http://www.w3.org/1999/xlink" x="0px"
	 y="0px" viewBox="0 0 646.1 597.8" style="enable-background:new 0 0 646.1 597.8;" xml:space="preserve">
<style type="text/css">
	.st0{opacity:0.6;fill:#36A39D;enable-background:new    ;}
	.st1{enable-background:new    ;}
	.st2{fill:#FFFFFF;}
</style>
<path id="Path_83167" class="st0" d="M225.6,42L522.2,0l123.8,597.8L0,553.3L225.6,42z"/>
<g class="st1">
	<path class="st2" d="M257.1,92.1c0,1.4-0.5,2.5-1.5,3.4s-2.3,1.5-4,1.7v0.1c2,0.2,3.5,0.7,4.5,1.6s1.6,2,1.6,3.5
		c0,2-0.8,3.5-2.4,4.7s-3.8,1.7-6.6,1.7c-3.1,0-5.7-0.4-7.6-1.2v-3.8c0.9,0.4,2,0.8,3.2,1c1.2,0.2,2.4,0.4,3.5,0.4
		c3.6,0,5.4-1,5.4-3.1c0-0.9-0.6-1.7-1.7-2.2s-2.9-0.8-5.1-0.8h-2v-3.5h1.8c2.3,0,3.9-0.2,5-0.6s1.6-1.1,1.6-2.1
		c0-0.7-0.3-1.3-1-1.8c-0.6-0.4-1.6-0.7-2.9-0.7c-2,0-4,0.6-5.8,1.7l-2-3c1.2-0.8,2.5-1.4,3.9-1.8c1.4-0.4,2.9-0.6,4.6-0.6
		c2.3,0,4.2,0.5,5.6,1.5S257.1,90.5,257.1,92.1z"/>
	<path class="st2" d="M274.9,108.5l-1.6-5.1h-7.8l-1.6,5.1h-4.9l7.6-21.5h5.6l7.6,21.5H274.9z M272.3,99.6c-1.4-4.6-2.2-7.2-2.4-7.8
		s-0.3-1.1-0.4-1.4c-0.3,1.2-1.2,4.3-2.8,9.3H272.3z"/>
	<path class="st2" d="M299.4,108.5h-4.5V90.9H287v17.6h-4.5V87.1h16.9V108.5z"/>
	<path class="st2" d="M317.9,108.5l-1.6-5.1h-7.8l-1.6,5.1h-4.9l7.6-21.5h5.6l7.6,21.5H317.9z M315.3,99.6c-1.4-4.6-2.2-7.2-2.4-7.8
		s-0.3-1.1-0.4-1.4c-0.3,1.2-1.2,4.3-2.8,9.3H315.3z"/>
	<path class="st2" d="M323,104.8h1.7c1.4-2.8,2.5-5.7,3.4-8.5c0.8-2.8,1.4-5.9,1.8-9.1h12.5v17.6h2.9v10h-4.4v-6.2h-13.4v6.2H323
		V104.8z M333.4,90.9c-0.3,2.2-0.8,4.6-1.6,7.1c-0.7,2.5-1.5,4.8-2.5,6.8h8.4V90.9H333.4z"/>
	<path class="st2" d="M366,108.5h-4.5v-9.2H353v9.2h-4.5V87.1h4.5v8.4h8.5v-8.4h4.5V108.5z"/>
	<path class="st2" d="M384.5,108.5l-1.6-5.1h-7.8l-1.6,5.1h-4.9l7.6-21.5h5.6l7.6,21.5H384.5z M381.9,99.6c-1.4-4.6-2.2-7.2-2.4-7.8
		s-0.3-1.1-0.4-1.4c-0.3,1.2-1.2,4.3-2.8,9.3H381.9z"/>
	<path class="st2" d="M399.3,100.3l-5,8.2h-5l6.1-9.4c-1.2-0.5-2.1-1.2-2.8-2.3s-1-2.2-1-3.6c0-2,0.7-3.5,2.1-4.5
		c1.4-1.1,3.4-1.6,6-1.6h7v21.4h-4.5v-8.2H399.3z M402.1,90.8h-2.2c-1.2,0-2.1,0.2-2.7,0.6s-1,1.1-1,2.1c0,0.9,0.3,1.7,0.9,2.2
		s1.6,0.8,2.9,0.8h2.1V90.8z"/>
</g>
<g class="st1">
	<path class="st2" d="M251.4,125.6c-1.7,0-3,0.6-4,1.9s-1.4,3.1-1.4,5.4c0,4.8,1.8,7.2,5.4,7.2c1.5,0,3.3-0.4,5.5-1.1v3.8
		c-1.8,0.7-3.7,1.1-5.9,1.1c-3.1,0-5.5-0.9-7.1-2.8c-1.7-1.9-2.5-4.6-2.5-8.1c0-2.2,0.4-4.2,1.2-5.9c0.8-1.7,2-3,3.5-3.9
		c1.5-0.9,3.3-1.3,5.3-1.3c2.1,0,4.2,0.5,6.3,1.5l-1.5,3.7c-0.8-0.4-1.6-0.7-2.4-1S252.2,125.6,251.4,125.6z"/>
	<path class="st2" d="M261.5,122.1h4.1v10.3l-0.1,2.8l-0.1,3.1h0.1l9.9-16.3h5.4v21.4h-4v-10.3c0-1.4,0.1-3.4,0.3-6.1h-0.1
		l-9.9,16.4h-5.5V122.1z"/>
	<path class="st2" d="M290.7,130.3h1.8c2.8,0,5,0.6,6.5,1.7s2.3,2.7,2.3,4.8c0,4.5-2.9,6.7-8.8,6.7h-6.2v-21.4h13.5v3.8h-9V130.3z
		 M290.7,139.8h1.5c1.5,0,2.7-0.2,3.4-0.7c0.7-0.5,1.1-1.2,1.1-2.2c0-1-0.4-1.7-1.1-2.1c-0.7-0.4-2-0.7-3.7-0.7h-1.2V139.8z"/>
	<path class="st2" d="M305.3,122.1h4.1v10.3l-0.1,2.8l-0.1,3.1h0.1l9.9-16.3h5.4v21.4h-4v-10.3c0-1.4,0.1-3.4,0.3-6.1h-0.1
		l-9.9,16.4h-5.5V122.1z"/>
	<path class="st2" d="M344.8,128.8c0,2.3-0.7,4.1-2.2,5.3c-1.4,1.2-3.5,1.8-6.1,1.8h-1.9v7.6H330v-21.4h6.8c2.6,0,4.6,0.6,5.9,1.7
		S344.8,126.6,344.8,128.8z M334.5,132.2h1.5c1.4,0,2.4-0.3,3.1-0.8c0.7-0.6,1-1.4,1-2.4c0-1.1-0.3-1.9-0.9-2.4s-1.5-0.8-2.7-0.8
		h-2.1V132.2z"/>
	<path class="st2" d="M363.9,136.8c0,4.5-2.9,6.7-8.8,6.7h-6.2v-21.4h4.5v8.2h1.8c2.8,0,5,0.6,6.5,1.7S363.9,134.8,363.9,136.8z
		 M353.4,139.8h1.5c1.5,0,2.7-0.2,3.4-0.7c0.7-0.5,1.1-1.2,1.1-2.2c0-1-0.4-1.7-1.1-2.1c-0.7-0.4-2-0.7-3.7-0.7h-1.2V139.8z"/>
</g>
<g class="st1">
	<path class="st2" d="M276.5,218.7c0,11.2-4.8,24.6-18.8,24.6c-5.3,0-11-2-14.1-9.1l6-2.7c1.8,3.9,5,5.5,8.1,5.5
		c6.6,0,11.6-7,11.4-15.4c-2.1,3-5.9,5-10.5,5c-9.2,0-15.5-7-15.5-14.9s6.3-14.9,16.1-14.9C270.4,196.7,276.5,206,276.5,218.7z
		 M268.9,212.1c0-5-3.9-8.8-9.2-8.9c-5.5,0-9.5,3.7-9.5,8.6c0,4.8,3.7,8.3,8.8,8.6C264.5,220.3,268.7,216.9,268.9,212.1z"/>
	<path class="st2" d="M298.2,196.7h0.3v45.7h-6.8v-35.9l-9.7,3.9v-6.5L298.2,196.7z"/>
	<path class="st2" d="M308.7,238.6c0-2.6,2.2-4.6,4.8-4.6c2.6,0,4.8,1.9,4.8,4.6s-2.2,4.6-4.8,4.6
		C310.9,243.1,308.7,241.2,308.7,238.6z"/>
	<path class="st2" d="M357.6,227.7c0,9.4-7,15.6-16.3,15.6c-7.6,0-13.6-4.3-16.4-10.1l5.6-3.2c1.7,3.9,5.5,6.8,10.5,6.8
		c5.7,0,9.8-3.7,9.8-9c0-5.4-4.2-8.9-9.5-8.9c-3.7,0-7.5,1.7-10.8,4.2l-4.1-3.2l3.9-22.6h24.4v6.4h-18.8l-2.4,12.4
		c2.5-1.9,5.9-3,9.5-3C351.5,213,357.6,218.9,357.6,227.7z"/>
	<path class="st2" d="M363.1,205.2c0-5.1,4-9.2,9.2-9.2c5.1,0,9.2,4.1,9.2,9.2c0,5.2-4.1,9.2-9.2,9.2
		C367.1,214.4,363.1,210.4,363.1,205.2z M376.9,205.2c0-2.6-2.1-4.6-4.6-4.6c-2.7,0-4.6,2.1-4.6,4.6c0,2.7,1.9,4.6,4.6,4.6
		C374.8,209.9,376.9,207.9,376.9,205.2z M368.9,242.4l23-47.5h4.4l-23.1,47.5H368.9z M383.6,233.9c0-5.1,4-9.2,9.2-9.2
		c5.1,0,9.2,4.1,9.2,9.2c0,5.2-4.1,9.2-9.2,9.2C387.6,243.1,383.6,239.1,383.6,233.9z M397.4,233.9c0-2.6-2.1-4.7-4.6-4.7
		c-2.6,0-4.6,2.1-4.6,4.7c0,2.6,1.9,4.6,4.6,4.6C395.3,238.5,397.4,236.6,397.4,233.9z"/>
</g>
<g class="st1">
	<path class="st2" d="M253.6,288.4v2.7h-4.8v4.8h-2.7v-4.8h-4.8v-2.7h4.8v-4.8h2.7v4.8H253.6z"/>
	<path class="st2" d="M261.6,294.6h7.7v2.8h-12.6v-1.4l7.4-8.9c1.2-1.4,1.9-2.9,1.9-3.7c0-1.8-1.3-3-3.3-3c-2,0-3.4,1.2-3.5,2.9
		l-2.6-0.5c0.4-3.1,2.7-5.2,6.2-5.2c3.8,0,6.2,2.3,6.2,5.8c0,1.6-1,3.6-2.2,5.1L261.6,294.6z"/>
	<path class="st2" d="M272.5,295.8c0-1.1,1-2,2.1-2c1.1,0,2.1,0.8,2.1,2c0,1.1-1,2-2.1,2C273.5,297.8,272.5,296.9,272.5,295.8z"/>
	<path class="st2" d="M285.1,277.6h0.1v19.9h-2.9v-15.6l-4.2,1.7v-2.8L285.1,277.6z"/>
	<path class="st2" d="M298.3,276.8h15.2v20.7h-3.1v-17.9h-9.1v17.9h-3.1V276.8z"/>
	<path class="st2" d="M317.6,295.8c0-1.1,1-2,2.1-2c1.1,0,2.1,0.8,2.1,2c0,1.1-1,2-2.1,2C318.6,297.8,317.6,296.9,317.6,295.8z"/>
	<path class="st2" d="M325.9,276.8h15.2v20.7H338v-17.9H329v17.9h-3.1V276.8z"/>
</g>
</svg>
