<?xml version="1.0" encoding="utf-8"?>
<!-- Generator: Adobe Illustrator 26.0.2, SVG Export Plug-In . SVG Version: 6.00 Build 0)  -->
<svg version="1.1" id="Component_64_9" xmlns="http://www.w3.org/2000/svg" xmlns:xlink="http://www.w3.org/1999/xlink" x="0px"
	 y="0px" viewBox="0 0 505.5 658" style="enable-background:new 0 0 505.5 658;" xml:space="preserve">
<style type="text/css">
	.st0{opacity:0.6;fill:#E9454F;enable-background:new    ;}
	.st1{enable-background:new    ;}
	.st2{fill:#FFFFFF;}
</style>
<path id="Path_83166" class="st0" d="M50,48.6L412.3,0l93.1,144.8L279,658L0,451.5L50,48.6z"/>
<g class="st1">
	<path class="st2" d="M150,133h-12.3v-21.4H150v3.7h-7.8v4.7h7.3v3.7h-7.3v5.5h7.8V133z"/>
	<path class="st2" d="M154.4,111.6h6.7c3,0,5.2,0.4,6.6,1.3c1.4,0.9,2.1,2.2,2.1,4.1c0,1.3-0.3,2.3-0.9,3.1s-1.4,1.3-2.4,1.5v0.1
		c1.4,0.3,2.3,0.9,2.9,1.7s0.9,1.9,0.9,3.3c0,2-0.7,3.5-2.1,4.6s-3.3,1.6-5.7,1.6h-8V111.6z M159,120.1h2.6c1.2,0,2.1-0.2,2.7-0.6
		s0.8-1,0.8-1.9c0-0.8-0.3-1.4-0.9-1.8s-1.6-0.5-2.8-0.5H159V120.1z M159,123.7v5.6h3c1.2,0,2.2-0.2,2.8-0.7s0.9-1.2,0.9-2.2
		c0-1.8-1.3-2.7-3.8-2.7H159z"/>
	<path class="st2" d="M189.4,118.2c0,2.3-0.7,4.1-2.2,5.3s-3.5,1.8-6.1,1.8h-1.9v7.6h-4.5v-21.4h6.8c2.6,0,4.6,0.6,5.9,1.7
		S189.4,116,189.4,118.2z M179.1,121.6h1.5c1.4,0,2.4-0.3,3.1-0.8c0.7-0.6,1-1.4,1-2.4c0-1.1-0.3-1.9-0.9-2.4s-1.5-0.8-2.7-0.8h-2.1
		V121.6z"/>
	<path class="st2" d="M212.9,122.2c0,3.5-0.9,6.3-2.6,8.2s-4.3,2.9-7.6,2.9s-5.8-1-7.6-2.9s-2.6-4.6-2.6-8.2s0.9-6.3,2.6-8.2
		c1.8-1.9,4.3-2.8,7.6-2.8s5.8,0.9,7.6,2.8S212.9,118.7,212.9,122.2z M197.2,122.2c0,2.4,0.5,4.2,1.4,5.4s2.3,1.8,4.1,1.8
		c3.6,0,5.4-2.4,5.4-7.2c0-4.8-1.8-7.2-5.4-7.2c-1.8,0-3.2,0.6-4.1,1.8C197.7,118.1,197.2,119.9,197.2,122.2z"/>
	<path class="st2" d="M234.2,133h-4.5v-17.6h-7.9V133h-4.5v-21.4h16.9V133z"/>
	<path class="st2" d="M252,133h-12.3v-21.4H252v3.7h-7.8v4.7h7.3v3.7h-7.3v5.5h7.8V133z"/>
	<path class="st2" d="M256.4,111.6h4.1v10.3l-0.1,2.8l-0.1,3.1h0.1l9.9-16.3h5.4V133h-4v-10.3c0-1.4,0.1-3.4,0.3-6.1h-0.1l-9.9,16.4
		h-5.5V111.6z M273.2,104.6c-0.2,1.8-0.9,3.2-2.1,4c-1.2,0.8-2.9,1.3-5.2,1.3c-2.3,0-4-0.4-5.1-1.2s-1.7-2.1-1.9-4h4
		c0.1,1,0.3,1.7,0.8,2.1c0.4,0.4,1.2,0.6,2.3,0.6c1,0,1.7-0.2,2.2-0.7c0.5-0.4,0.8-1.1,0.9-2.1H273.2z"/>
	<path class="st2" d="M290.2,115c-1.7,0-3,0.6-4,1.9s-1.4,3.1-1.4,5.4c0,4.8,1.8,7.2,5.4,7.2c1.5,0,3.3-0.4,5.5-1.1v3.8
		c-1.8,0.7-3.7,1.1-5.9,1.1c-3.1,0-5.5-0.9-7.1-2.8c-1.7-1.9-2.5-4.6-2.5-8.1c0-2.2,0.4-4.2,1.2-5.9c0.8-1.7,2-3,3.5-3.9
		c1.5-0.9,3.3-1.3,5.3-1.3c2.1,0,4.2,0.5,6.3,1.5l-1.5,3.7c-0.8-0.4-1.6-0.7-2.4-1S291,115,290.2,115z"/>
	<path class="st2" d="M317.7,133h-5.2l-7.8-10.9V133h-4.5v-21.4h4.5v10.4l7.7-10.4h4.8l-7.8,10.3L317.7,133z"/>
	<path class="st2" d="M333.5,133l-1.6-5.1h-7.8l-1.6,5.1h-4.9l7.6-21.5h5.6l7.6,21.5H333.5z M330.9,124.1c-1.4-4.6-2.2-7.2-2.4-7.8
		s-0.3-1.1-0.4-1.4c-0.3,1.2-1.2,4.3-2.8,9.3H330.9z"/>
	<path class="st2" d="M348.3,124.8l-5,8.2h-5l6.1-9.4c-1.2-0.5-2.1-1.2-2.8-2.3s-1-2.2-1-3.6c0-2,0.7-3.5,2.1-4.5s3.4-1.6,6-1.6h7
		V133h-4.5v-8.2H348.3z M351.1,115.3h-2.2c-1.2,0-2.1,0.2-2.7,0.6s-1,1.1-1,2.1c0,0.9,0.3,1.7,0.9,2.2s1.6,0.8,2.9,0.8h2.1V115.3z"
		/>
</g>
<g class="st1">
	<path class="st2" d="M154.1,168h-4.5v-8.3c-1.5,0.5-2.8,0.9-3.8,1s-2,0.3-2.9,0.3c-2,0-3.6-0.5-4.7-1.5c-1.1-1-1.7-2.4-1.7-4.1
		v-8.8h4.5v7.6c0,1,0.2,1.8,0.7,2.3c0.5,0.5,1.3,0.8,2.4,0.8c0.8,0,1.6-0.1,2.4-0.2c0.8-0.2,1.8-0.4,2.9-0.8v-9.6h4.5V168z"/>
	<path class="st2" d="M172.6,168l-1.6-5.1h-7.8l-1.6,5.1h-4.9l7.6-21.5h5.6l7.6,21.5H172.6z M169.9,159.1c-1.4-4.6-2.2-7.2-2.4-7.8
		s-0.3-1.1-0.4-1.4c-0.3,1.2-1.2,4.3-2.8,9.3H169.9z"/>
	<path class="st2" d="M189.3,150c-1.7,0-3,0.6-4,1.9s-1.4,3.1-1.4,5.4c0,4.8,1.8,7.2,5.4,7.2c1.5,0,3.3-0.4,5.5-1.1v3.8
		c-1.8,0.7-3.7,1.1-5.9,1.1c-3.1,0-5.5-0.9-7.1-2.8c-1.7-1.9-2.5-4.6-2.5-8.1c0-2.2,0.4-4.2,1.2-5.9c0.8-1.7,2-3,3.5-3.9
		c1.5-0.9,3.3-1.3,5.3-1.3c2.1,0,4.2,0.5,6.3,1.5l-1.5,3.7c-0.8-0.4-1.6-0.7-2.4-1S190,150,189.3,150z"/>
	<path class="st2" d="M207.5,168H203v-17.6h-5.8v-3.8h16.2v3.8h-5.8V168z"/>
	<path class="st2" d="M231.7,161.3c0,4.5-2.9,6.7-8.8,6.7h-6.2v-21.4h4.5v8.2h1.8c2.8,0,5,0.6,6.5,1.7S231.7,159.2,231.7,161.3z
		 M221.2,164.3h1.5c1.5,0,2.7-0.2,3.4-0.7c0.7-0.5,1.1-1.2,1.1-2.2c0-1-0.4-1.7-1.1-2.1c-0.7-0.4-2-0.7-3.7-0.7h-1.2V164.3z"/>
</g>
<g class="st1">
	<path class="st2" d="M152.4,188.2c0,2.3-0.7,4.1-2.2,5.3s-3.5,1.8-6.1,1.8h-1.9v7.6h-4.5v-21.4h6.8c2.6,0,4.6,0.6,5.9,1.7
		S152.4,186,152.4,188.2z M142.2,191.6h1.5c1.4,0,2.4-0.3,3.1-0.8c0.7-0.6,1-1.4,1-2.4c0-1.1-0.3-1.9-0.9-2.4s-1.5-0.8-2.7-0.8h-2.1
		V191.6z"/>
	<path class="st2" d="M175.9,192.2c0,3.5-0.9,6.3-2.6,8.2s-4.3,2.9-7.6,2.9s-5.8-1-7.6-2.9s-2.6-4.6-2.6-8.2s0.9-6.3,2.6-8.2
		c1.8-1.9,4.3-2.8,7.6-2.8s5.8,0.9,7.6,2.8S175.9,188.7,175.9,192.2z M160.3,192.2c0,2.4,0.5,4.2,1.4,5.4s2.3,1.8,4.1,1.8
		c3.6,0,5.4-2.4,5.4-7.2c0-4.8-1.8-7.2-5.4-7.2c-1.8,0-3.2,0.6-4.1,1.8C160.7,188.1,160.3,189.9,160.3,192.2z"/>
	<path class="st2" d="M189.4,185c-1.7,0-3,0.6-4,1.9s-1.4,3.1-1.4,5.4c0,4.8,1.8,7.2,5.4,7.2c1.5,0,3.3-0.4,5.5-1.1v3.8
		c-1.8,0.7-3.7,1.1-5.9,1.1c-3.1,0-5.5-0.9-7.1-2.8c-1.7-1.9-2.5-4.6-2.5-8.1c0-2.2,0.4-4.2,1.2-5.9c0.8-1.7,2-3,3.5-3.9
		c1.5-0.9,3.3-1.3,5.3-1.3c2.1,0,4.2,0.5,6.3,1.5l-1.5,3.7c-0.8-0.4-1.6-0.7-2.4-1S190.2,185,189.4,185z"/>
	<path class="st2" d="M208.5,185c-1.7,0-3,0.6-4,1.9s-1.4,3.1-1.4,5.4c0,4.8,1.8,7.2,5.4,7.2c1.5,0,3.3-0.4,5.5-1.1v3.8
		c-1.8,0.7-3.7,1.1-5.9,1.1c-3.1,0-5.5-0.9-7.1-2.8c-1.7-1.9-2.5-4.6-2.5-8.1c0-2.2,0.4-4.2,1.2-5.9c0.8-1.7,2-3,3.5-3.9
		c1.5-0.9,3.3-1.3,5.3-1.3c2.1,0,4.2,0.5,6.3,1.5l-1.5,3.7c-0.8-0.4-1.6-0.7-2.4-1S209.3,185,208.5,185z"/>
	<path class="st2" d="M218.6,181.6h4.1v10.3l-0.1,2.8l-0.1,3.1h0.1l9.9-16.3h5.4V203h-4v-10.3c0-1.4,0.1-3.4,0.3-6.1H234L224,203
		h-5.5V181.6z"/>
	<path class="st2" d="M243.3,181.6h4.1v10.3l-0.1,2.8l-0.1,3.1h0.1l9.9-16.3h5.4V203h-4v-10.3c0-1.4,0.1-3.4,0.3-6.1h-0.1l-9.9,16.4
		h-5.5V181.6z"/>
</g>
<g class="st1">
	<path class="st2" d="M172.1,304.2h-34.4V297l12.4-12.5c3.7-3.8,6.1-6.4,7.2-7.8c1.1-1.4,1.9-2.8,2.4-4c0.5-1.2,0.7-2.5,0.7-3.8
		c0-2-0.5-3.4-1.6-4.4c-1.1-1-2.5-1.4-4.4-1.4c-1.9,0-3.8,0.4-5.6,1.3c-1.8,0.9-3.7,2.1-5.6,3.7l-5.7-6.7c2.4-2.1,4.4-3.5,6-4.4
		c1.6-0.9,3.3-1.5,5.2-2s4-0.7,6.3-0.7c3.1,0,5.8,0.6,8.2,1.7s4.2,2.7,5.5,4.7c1.3,2,2,4.3,2,6.9c0,2.3-0.4,4.4-1.2,6.4
		c-0.8,2-2,4-3.7,6.1c-1.7,2.1-4.6,5.1-8.8,8.9l-6.3,6v0.5h21.5V304.2z"/>
	<path class="st2" d="M194.1,254.3c4.7,0,8.5,1.1,11.4,3.2c2.9,2.1,4.3,5,4.3,8.7c0,2.5-0.7,4.8-2.1,6.7c-1.4,2-3.6,3.7-6.7,5.3
		c3.7,2,6.3,4,7.9,6.2s2.4,4.5,2.4,7.1c0,4-1.6,7.3-4.8,9.8c-3.2,2.5-7.3,3.7-12.5,3.7c-5.4,0-9.6-1.1-12.7-3.4
		c-3.1-2.3-4.6-5.5-4.6-9.7c0-2.8,0.7-5.3,2.2-7.5s3.9-4.1,7.2-5.8c-2.8-1.8-4.8-3.7-6.1-5.7c-1.2-2-1.9-4.2-1.9-6.6
		c0-3.5,1.5-6.4,4.4-8.6C185.6,255.4,189.4,254.3,194.1,254.3z M186.4,291.1c0,1.9,0.7,3.4,2,4.5s3.2,1.6,5.5,1.6
		c2.6,0,4.5-0.6,5.8-1.7c1.3-1.1,1.9-2.6,1.9-4.4c0-1.5-0.6-2.9-1.9-4.2c-1.3-1.3-3.3-2.7-6.2-4.2
		C188.8,285,186.4,287.7,186.4,291.1z M194,261.9c-1.8,0-3.2,0.5-4.3,1.4c-1.1,0.9-1.6,2.1-1.6,3.7c0,1.3,0.4,2.6,1.3,3.6
		s2.4,2.2,4.7,3.3c2.2-1,3.7-2.1,4.6-3.2s1.3-2.3,1.3-3.7c0-1.5-0.6-2.8-1.7-3.7C197.2,262.4,195.7,261.9,194,261.9z"/>
	<path class="st2" d="M217.6,299.4c0-1.9,0.5-3.3,1.5-4.3s2.5-1.4,4.4-1.4c1.9,0,3.3,0.5,4.3,1.5c1,1,1.5,2.4,1.5,4.2
		c0,1.8-0.5,3.2-1.5,4.2c-1,1-2.5,1.5-4.3,1.5c-1.9,0-3.3-0.5-4.4-1.5C218.2,302.6,217.6,301.2,217.6,299.4z"/>
	<path class="st2" d="M270.4,276c0,9.7-2,16.9-6.1,21.7c-4.1,4.8-10.3,7.2-18.6,7.2c-2.9,0-5.1-0.2-6.6-0.5v-8.4
		c1.9,0.5,3.9,0.7,5.9,0.7c3.5,0,6.3-0.5,8.6-1.5c2.2-1,4-2.6,5.2-4.8c1.2-2.2,1.9-5.2,2.1-9h-0.4c-1.3,2.1-2.8,3.6-4.5,4.4
		c-1.7,0.9-3.8,1.3-6.4,1.3c-4.3,0-7.7-1.4-10.1-4.1c-2.5-2.8-3.7-6.6-3.7-11.5c0-5.3,1.5-9.5,4.5-12.5c3-3.1,7.1-4.6,12.2-4.6
		c3.6,0,6.8,0.9,9.6,2.6c2.7,1.7,4.8,4.2,6.3,7.4C269.6,267.6,270.4,271.5,270.4,276z M252.5,262.7c-2.2,0-3.8,0.7-5.1,2.2
		s-1.8,3.6-1.8,6.4c0,2.4,0.6,4.3,1.7,5.7c1.1,1.4,2.8,2.1,5,2.1c2.1,0,3.9-0.7,5.4-2.1c1.5-1.4,2.3-3,2.3-4.8
		c0-2.7-0.7-4.9-2.1-6.8C256.5,263.7,254.7,262.7,252.5,262.7z"/>
	<path class="st2" d="M298.3,269.6c0,5.2-1,9-3,11.6c-2,2.6-4.9,3.9-8.8,3.9c-3.7,0-6.6-1.3-8.6-4c-2-2.7-3-6.5-3-11.5
		c0-10.3,3.9-15.4,11.6-15.4c3.8,0,6.7,1.3,8.7,4C297.3,260.9,298.3,264.7,298.3,269.6z M283.4,269.7c0,2.9,0.3,5,0.8,6.4
		c0.5,1.4,1.3,2.1,2.4,2.1c2.2,0,3.2-2.8,3.2-8.5c0-5.6-1.1-8.4-3.2-8.4c-1.1,0-1.9,0.7-2.4,2.1
		C283.6,264.7,283.4,266.9,283.4,269.7z M321.5,255l-27.3,49.3h-8.1l27.3-49.3H321.5z M332.8,289.3c0,5.1-1,9-3,11.6
		c-2,2.6-4.9,3.9-8.8,3.9c-3.7,0-6.6-1.3-8.6-4c-2-2.7-3-6.5-3-11.5c0-10.3,3.9-15.4,11.6-15.4c3.8,0,6.7,1.3,8.7,4
		C331.8,280.6,332.8,284.4,332.8,289.3z M317.9,289.4c0,2.9,0.3,5,0.8,6.4c0.5,1.4,1.3,2.1,2.4,2.1c2.2,0,3.2-2.8,3.2-8.5
		c0-5.6-1.1-8.4-3.2-8.4c-1.1,0-1.9,0.7-2.4,2.1C318.1,284.4,317.9,286.5,317.9,289.4z"/>
</g>
<g class="st1">
	<path class="st2" d="M135.8,353v-3.7h7.9v3.7H135.8z"/>
	<path class="st2" d="M160.6,348.5c0,3.7-0.6,6.5-1.8,8.3s-3.1,2.7-5.7,2.7c-2.5,0-4.3-0.9-5.6-2.8s-1.9-4.6-1.9-8.2
		c0-3.8,0.6-6.6,1.8-8.4s3.1-2.7,5.6-2.7c2.5,0,4.3,0.9,5.6,2.8S160.6,344.9,160.6,348.5z M150.2,348.5c0,2.6,0.2,4.5,0.7,5.6
		s1.2,1.7,2.3,1.7c1.1,0,1.8-0.6,2.3-1.7s0.7-3,0.7-5.6c0-2.6-0.2-4.5-0.7-5.7s-1.2-1.7-2.3-1.7c-1.1,0-1.8,0.6-2.3,1.7
		S150.2,345.9,150.2,348.5z"/>
	<path class="st2" d="M163.4,357.2c0-0.8,0.2-1.4,0.7-1.9s1.1-0.6,1.9-0.6c0.8,0,1.4,0.2,1.9,0.6s0.7,1,0.7,1.8
		c0,0.8-0.2,1.4-0.7,1.8c-0.4,0.4-1.1,0.7-1.9,0.7c-0.8,0-1.5-0.2-1.9-0.7C163.6,358.6,163.4,358,163.4,357.2z"/>
	<path class="st2" d="M171.3,350.2c0-4.2,0.9-7.4,2.7-9.5s4.5-3.1,8-3.1c1.2,0,2.2,0.1,2.9,0.2v3.6c-0.9-0.2-1.7-0.3-2.6-0.3
		c-1.6,0-2.8,0.2-3.8,0.7s-1.7,1.2-2.2,2.1s-0.8,2.2-0.9,3.9h0.2c1-1.7,2.5-2.5,4.6-2.5c1.9,0,3.4,0.6,4.5,1.8s1.6,2.9,1.6,5
		c0,2.3-0.6,4.1-1.9,5.4c-1.3,1.3-3.1,2-5.4,2c-1.6,0-3-0.4-4.1-1.1s-2.1-1.8-2.7-3.2S171.3,352.1,171.3,350.2z M179,355.9
		c1,0,1.7-0.3,2.2-1s0.8-1.6,0.8-2.8c0-1-0.2-1.9-0.7-2.5c-0.5-0.6-1.2-0.9-2.2-0.9c-0.9,0-1.7,0.3-2.4,0.9s-1,1.3-1,2.1
		c0,1.2,0.3,2.1,0.9,2.9S178.1,355.9,179,355.9z"/>
	<path class="st2" d="M214.8,359.3h-4.5v-17.6h-7.9v17.6h-4.5v-21.4h16.9V359.3z"/>
	<path class="st2" d="M219.2,357.2c0-0.8,0.2-1.4,0.7-1.9s1.1-0.6,1.9-0.6c0.8,0,1.4,0.2,1.9,0.6s0.7,1,0.7,1.8
		c0,0.8-0.2,1.4-0.7,1.8c-0.4,0.4-1.1,0.7-1.9,0.7c-0.8,0-1.5-0.2-1.9-0.7C219.5,358.6,219.2,358,219.2,357.2z"/>
	<path class="st2" d="M245.7,359.3h-4.5v-17.6h-7.9v17.6h-4.5v-21.4h16.9V359.3z"/>
</g>
</svg>
