<svg version="1.1" id="Component_65_8" xmlns="http://www.w3.org/2000/svg" xmlns:xlink="http://www.w3.org/1999/xlink" x="0px"
	 y="0px" viewBox="0 0 646.1 597.8" width="646.1" height="597.8" style="enable-background:new 0 0 646.1 597.8;" xml:space="preserve">
<style type="text/css">
	.st0{opacity:0.4;fill:#36A39D;enable-background:new    ;}
	.st1{enable-background:new    ;}
	.st2{fill:#FFFFFF;}
</style>
<path id="Path_83167" class="st0" d="M225.6,42L522.2,0l123.8,597.8L0,553.3L225.6,42z"/>
<g class="st1">
	<path class="st2" d="M257.1,92c0,1.4-0.5,2.5-1.5,3.4s-2.3,1.5-4,1.7v0.1c2,0.2,3.5,0.7,4.5,1.6s1.6,2,1.6,3.5c0,2-0.8,3.5-2.4,4.7
		s-3.8,1.7-6.6,1.7c-3.1,0-5.7-0.4-7.6-1.2v-3.8c0.9,0.4,2,0.8,3.2,1c1.2,0.2,2.4,0.4,3.5,0.4c3.6,0,5.4-1,5.4-3.1
		c0-0.9-0.6-1.7-1.7-2.2s-2.9-0.8-5.1-0.8h-2v-3.5h1.8c2.3,0,3.9-0.2,5-0.6s1.6-1.1,1.6-2.1c0-0.7-0.3-1.3-1-1.8
		c-0.6-0.4-1.6-0.7-2.9-0.7c-2,0-4,0.6-5.8,1.7l-2-3c1.2-0.8,2.5-1.4,3.9-1.8c1.4-0.4,2.9-0.6,4.6-0.6c2.3,0,4.2,0.5,5.6,1.5
		S257.1,90.4,257.1,92z"/>
	<path class="st2" d="M274.9,108.4l-1.6-5.1h-7.8l-1.6,5.1h-4.9l7.6-21.5h5.6l7.6,21.5H274.9z M272.3,99.5c-1.4-4.6-2.2-7.2-2.4-7.8
		s-0.3-1.1-0.4-1.4c-0.3,1.2-1.2,4.3-2.8,9.3H272.3z"/>
	<path class="st2" d="M299.4,108.4h-4.5V90.7H287v17.6h-4.5V87h16.9V108.4z"/>
	<path class="st2" d="M317.9,108.4l-1.6-5.1h-7.8l-1.6,5.1h-4.9l7.6-21.5h5.6l7.6,21.5H317.9z M315.3,99.5c-1.4-4.6-2.2-7.2-2.4-7.8
		s-0.3-1.1-0.4-1.4c-0.3,1.2-1.2,4.3-2.8,9.3H315.3z"/>
	<path class="st2" d="M323,104.6h1.7c1.4-2.8,2.5-5.7,3.4-8.5c0.8-2.8,1.4-5.9,1.8-9.1h12.5v17.6h2.9v10h-4.4v-6.2h-13.4v6.2H323
		V104.6z M333.4,90.7c-0.3,2.2-0.8,4.6-1.6,7.1c-0.7,2.5-1.5,4.8-2.5,6.8h8.4V90.7H333.4z"/>
	<path class="st2" d="M366,108.4h-4.5v-9.2H353v9.2h-4.5V87h4.5v8.4h8.5V87h4.5V108.4z"/>
	<path class="st2" d="M384.5,108.4l-1.6-5.1h-7.8l-1.6,5.1h-4.9l7.6-21.5h5.6l7.6,21.5H384.5z M381.9,99.5c-1.4-4.6-2.2-7.2-2.4-7.8
		s-0.3-1.1-0.4-1.4c-0.3,1.2-1.2,4.3-2.8,9.3H381.9z"/>
	<path class="st2" d="M399.3,100.2l-5,8.2h-5l6.1-9.4c-1.2-0.5-2.1-1.2-2.8-2.3s-1-2.2-1-3.6c0-2,0.7-3.5,2.1-4.5
		c1.4-1.1,3.4-1.6,6-1.6h7v21.4h-4.5v-8.2H399.3z M402.1,90.7h-2.2c-1.2,0-2.1,0.2-2.7,0.6s-1,1.1-1,2.1c0,0.9,0.3,1.7,0.9,2.2
		s1.6,0.8,2.9,0.8h2.1V90.7z"/>
</g>
<g class="st1">
	<path class="st2" d="M251.4,125.4c-1.7,0-3,0.6-4,1.9s-1.4,3.1-1.4,5.4c0,4.8,1.8,7.2,5.4,7.2c1.5,0,3.3-0.4,5.5-1.1v3.8
		c-1.8,0.7-3.7,1.1-5.9,1.1c-3.1,0-5.5-0.9-7.1-2.8c-1.7-1.9-2.5-4.6-2.5-8.1c0-2.2,0.4-4.2,1.2-5.9c0.8-1.7,2-3,3.5-3.9
		c1.5-0.9,3.3-1.3,5.3-1.3c2.1,0,4.2,0.5,6.3,1.5l-1.5,3.7c-0.8-0.4-1.6-0.7-2.4-1S252.2,125.4,251.4,125.4z"/>
	<path class="st2" d="M261.5,122h4.1v10.3l-0.1,2.8l-0.1,3.1h0.1l9.9-16.3h5.4v21.4h-4v-10.3c0-1.4,0.1-3.4,0.3-6.1h-0.1l-9.9,16.4
		h-5.5V122z"/>
	<path class="st2" d="M290.7,130.2h1.8c2.8,0,5,0.6,6.5,1.7s2.3,2.7,2.3,4.8c0,4.5-2.9,6.7-8.8,6.7h-6.2V122h13.5v3.8h-9V130.2z
		 M290.7,139.7h1.5c1.5,0,2.7-0.2,3.4-0.7c0.7-0.5,1.1-1.2,1.1-2.2c0-1-0.4-1.7-1.1-2.1c-0.7-0.4-2-0.7-3.7-0.7h-1.2V139.7z"/>
	<path class="st2" d="M305.3,122h4.1v10.3l-0.1,2.8l-0.1,3.1h0.1l9.9-16.3h5.4v21.4h-4v-10.3c0-1.4,0.1-3.4,0.3-6.1h-0.1l-9.9,16.4
		h-5.5V122z"/>
	<path class="st2" d="M344.8,128.6c0,2.3-0.7,4.1-2.2,5.3c-1.4,1.2-3.5,1.8-6.1,1.8h-1.9v7.6H330V122h6.8c2.6,0,4.6,0.6,5.9,1.7
		S344.8,126.4,344.8,128.6z M334.5,132h1.5c1.4,0,2.4-0.3,3.1-0.8c0.7-0.6,1-1.4,1-2.4c0-1.1-0.3-1.9-0.9-2.4s-1.5-0.8-2.7-0.8h-2.1
		V132z"/>
	<path class="st2" d="M363.9,136.7c0,4.5-2.9,6.7-8.8,6.7h-6.2V122h4.5v8.2h1.8c2.8,0,5,0.6,6.5,1.7S363.9,134.6,363.9,136.7z
		 M353.4,139.7h1.5c1.5,0,2.7-0.2,3.4-0.7c0.7-0.5,1.1-1.2,1.1-2.2c0-1-0.4-1.7-1.1-2.1c-0.7-0.4-2-0.7-3.7-0.7h-1.2V139.7z"/>
</g>
</svg>
