<?xml version="1.0" encoding="utf-8"?>
<!-- Generator: Adobe Illustrator 26.0.2, SVG Export Plug-In . SVG Version: 6.00 Build 0)  -->
<svg version="1.1" id="Component_64_9" xmlns="http://www.w3.org/2000/svg" xmlns:xlink="http://www.w3.org/1999/xlink" x="0px"
	 y="0px" viewBox="0 0 505.5 658" style="enable-background:new 0 0 505.5 658;" xml:space="preserve">
<style type="text/css">
	.st0{opacity:0.4;fill:#EA3742;enable-background:new    ;}
	.st1{enable-background:new    ;}
	.st2{fill:#FFFFFF;}
</style>
<path id="Path_83166" class="st0" d="M50,48.6L412.3,0l93.1,144.8L279,658L0,451.5L50,48.6z"/>
<g class="st1">
	<path class="st2" d="M150,132.8h-12.3v-21.4H150v3.7h-7.8v4.7h7.3v3.7h-7.3v5.5h7.8V132.8z"/>
	<path class="st2" d="M154.4,111.4h6.7c3,0,5.2,0.4,6.6,1.3c1.4,0.9,2.1,2.2,2.1,4.1c0,1.3-0.3,2.3-0.9,3.1s-1.4,1.3-2.4,1.5v0.1
		c1.4,0.3,2.3,0.9,2.9,1.7s0.9,1.9,0.9,3.3c0,2-0.7,3.5-2.1,4.6s-3.3,1.6-5.7,1.6h-8V111.4z M159,119.9h2.6c1.2,0,2.1-0.2,2.7-0.6
		s0.8-1,0.8-1.9c0-0.8-0.3-1.4-0.9-1.8s-1.6-0.5-2.8-0.5H159V119.9z M159,123.5v5.6h3c1.2,0,2.2-0.2,2.8-0.7s0.9-1.2,0.9-2.2
		c0-1.8-1.3-2.7-3.8-2.7H159z"/>
	<path class="st2" d="M189.4,118.1c0,2.3-0.7,4.1-2.2,5.3s-3.5,1.8-6.1,1.8h-1.9v7.6h-4.5v-21.4h6.8c2.6,0,4.6,0.6,5.9,1.7
		S189.4,115.9,189.4,118.1z M179.1,121.5h1.5c1.4,0,2.4-0.3,3.1-0.8c0.7-0.6,1-1.4,1-2.4c0-1.1-0.3-1.9-0.9-2.4s-1.5-0.8-2.7-0.8
		h-2.1V121.5z"/>
	<path class="st2" d="M212.9,122.1c0,3.5-0.9,6.3-2.6,8.2s-4.3,2.9-7.6,2.9s-5.8-1-7.6-2.9s-2.6-4.6-2.6-8.2s0.9-6.3,2.6-8.2
		c1.8-1.9,4.3-2.8,7.6-2.8s5.8,0.9,7.6,2.8S212.9,118.5,212.9,122.1z M197.2,122.1c0,2.4,0.5,4.2,1.4,5.4s2.3,1.8,4.1,1.8
		c3.6,0,5.4-2.4,5.4-7.2c0-4.8-1.8-7.2-5.4-7.2c-1.8,0-3.2,0.6-4.1,1.8C197.7,117.9,197.2,119.7,197.2,122.1z"/>
	<path class="st2" d="M234.2,132.8h-4.5v-17.6h-7.9v17.6h-4.5v-21.4h16.9V132.8z"/>
	<path class="st2" d="M252,132.8h-12.3v-21.4H252v3.7h-7.8v4.7h7.3v3.7h-7.3v5.5h7.8V132.8z"/>
	<path class="st2" d="M256.4,111.4h4.1v10.3l-0.1,2.8l-0.1,3.1h0.1l9.9-16.3h5.4v21.4h-4v-10.3c0-1.4,0.1-3.4,0.3-6.1h-0.1
		l-9.9,16.4h-5.5V111.4z M273.2,104.4c-0.2,1.8-0.9,3.2-2.1,4c-1.2,0.8-2.9,1.3-5.2,1.3c-2.3,0-4-0.4-5.1-1.2s-1.7-2.1-1.9-4h4
		c0.1,1,0.3,1.7,0.8,2.1c0.4,0.4,1.2,0.6,2.3,0.6c1,0,1.7-0.2,2.2-0.7c0.5-0.4,0.8-1.1,0.9-2.1H273.2z"/>
	<path class="st2" d="M290.2,114.9c-1.7,0-3,0.6-4,1.9s-1.4,3.1-1.4,5.4c0,4.8,1.8,7.2,5.4,7.2c1.5,0,3.3-0.4,5.5-1.1v3.8
		c-1.8,0.7-3.7,1.1-5.9,1.1c-3.1,0-5.5-0.9-7.1-2.8c-1.7-1.9-2.5-4.6-2.5-8.1c0-2.2,0.4-4.2,1.2-5.9c0.8-1.7,2-3,3.5-3.9
		c1.5-0.9,3.3-1.3,5.3-1.3c2.1,0,4.2,0.5,6.3,1.5l-1.5,3.7c-0.8-0.4-1.6-0.7-2.4-1S291,114.9,290.2,114.9z"/>
	<path class="st2" d="M317.7,132.8h-5.2l-7.8-10.9v10.9h-4.5v-21.4h4.5v10.4l7.7-10.4h4.8l-7.8,10.3L317.7,132.8z"/>
	<path class="st2" d="M333.5,132.8l-1.6-5.1h-7.8l-1.6,5.1h-4.9l7.6-21.5h5.6l7.6,21.5H333.5z M330.9,123.9
		c-1.4-4.6-2.2-7.2-2.4-7.8s-0.3-1.1-0.4-1.4c-0.3,1.2-1.2,4.3-2.8,9.3H330.9z"/>
	<path class="st2" d="M348.3,124.6l-5,8.2h-5l6.1-9.4c-1.2-0.5-2.1-1.2-2.8-2.3s-1-2.2-1-3.6c0-2,0.7-3.5,2.1-4.5s3.4-1.6,6-1.6h7
		v21.4h-4.5v-8.2H348.3z M351.1,115.1h-2.2c-1.2,0-2.1,0.2-2.7,0.6s-1,1.1-1,2.1c0,0.9,0.3,1.7,0.9,2.2s1.6,0.8,2.9,0.8h2.1V115.1z"
		/>
</g>
<g class="st1">
	<path class="st2" d="M154.1,167.8h-4.5v-8.3c-1.5,0.5-2.8,0.9-3.8,1s-2,0.3-2.9,0.3c-2,0-3.6-0.5-4.7-1.5c-1.1-1-1.7-2.4-1.7-4.1
		v-8.8h4.5v7.6c0,1,0.2,1.8,0.7,2.3c0.5,0.5,1.3,0.8,2.4,0.8c0.8,0,1.6-0.1,2.4-0.2c0.8-0.2,1.8-0.4,2.9-0.8v-9.6h4.5V167.8z"/>
	<path class="st2" d="M172.6,167.8l-1.6-5.1h-7.8l-1.6,5.1h-4.9l7.6-21.5h5.6l7.6,21.5H172.6z M169.9,158.9
		c-1.4-4.6-2.2-7.2-2.4-7.8s-0.3-1.1-0.4-1.4c-0.3,1.2-1.2,4.3-2.8,9.3H169.9z"/>
	<path class="st2" d="M189.3,149.9c-1.7,0-3,0.6-4,1.9s-1.4,3.1-1.4,5.4c0,4.8,1.8,7.2,5.4,7.2c1.5,0,3.3-0.4,5.5-1.1v3.8
		c-1.8,0.7-3.7,1.1-5.9,1.1c-3.1,0-5.5-0.9-7.1-2.8c-1.7-1.9-2.5-4.6-2.5-8.1c0-2.2,0.4-4.2,1.2-5.9c0.8-1.7,2-3,3.5-3.9
		c1.5-0.9,3.3-1.3,5.3-1.3c2.1,0,4.2,0.5,6.3,1.5l-1.5,3.7c-0.8-0.4-1.6-0.7-2.4-1S190,149.9,189.3,149.9z"/>
	<path class="st2" d="M207.5,167.8H203v-17.6h-5.8v-3.8h16.2v3.8h-5.8V167.8z"/>
	<path class="st2" d="M231.7,161.1c0,4.5-2.9,6.7-8.8,6.7h-6.2v-21.4h4.5v8.2h1.8c2.8,0,5,0.6,6.5,1.7S231.7,159.1,231.7,161.1z
		 M221.2,164.1h1.5c1.5,0,2.7-0.2,3.4-0.7c0.7-0.5,1.1-1.2,1.1-2.2c0-1-0.4-1.7-1.1-2.1c-0.7-0.4-2-0.7-3.7-0.7h-1.2V164.1z"/>
</g>
<g class="st1">
	<path class="st2" d="M152.4,188.1c0,2.3-0.7,4.1-2.2,5.3s-3.5,1.8-6.1,1.8h-1.9v7.6h-4.5v-21.4h6.8c2.6,0,4.6,0.6,5.9,1.7
		S152.4,185.9,152.4,188.1z M142.2,191.5h1.5c1.4,0,2.4-0.3,3.1-0.8c0.7-0.6,1-1.4,1-2.4c0-1.1-0.3-1.9-0.9-2.4s-1.5-0.8-2.7-0.8
		h-2.1V191.5z"/>
	<path class="st2" d="M175.9,192.1c0,3.5-0.9,6.3-2.6,8.2s-4.3,2.9-7.6,2.9s-5.8-1-7.6-2.9s-2.6-4.6-2.6-8.2s0.9-6.3,2.6-8.2
		c1.8-1.9,4.3-2.8,7.6-2.8s5.8,0.9,7.6,2.8S175.9,188.5,175.9,192.1z M160.3,192.1c0,2.4,0.5,4.2,1.4,5.4s2.3,1.8,4.1,1.8
		c3.6,0,5.4-2.4,5.4-7.2c0-4.8-1.8-7.2-5.4-7.2c-1.8,0-3.2,0.6-4.1,1.8C160.7,187.9,160.3,189.7,160.3,192.1z"/>
	<path class="st2" d="M189.4,184.9c-1.7,0-3,0.6-4,1.9s-1.4,3.1-1.4,5.4c0,4.8,1.8,7.2,5.4,7.2c1.5,0,3.3-0.4,5.5-1.1v3.8
		c-1.8,0.7-3.7,1.1-5.9,1.1c-3.1,0-5.5-0.9-7.1-2.8c-1.7-1.9-2.5-4.6-2.5-8.1c0-2.2,0.4-4.2,1.2-5.9c0.8-1.7,2-3,3.5-3.9
		c1.5-0.9,3.3-1.3,5.3-1.3c2.1,0,4.2,0.5,6.3,1.5l-1.5,3.7c-0.8-0.4-1.6-0.7-2.4-1S190.2,184.9,189.4,184.9z"/>
	<path class="st2" d="M208.5,184.9c-1.7,0-3,0.6-4,1.9s-1.4,3.1-1.4,5.4c0,4.8,1.8,7.2,5.4,7.2c1.5,0,3.3-0.4,5.5-1.1v3.8
		c-1.8,0.7-3.7,1.1-5.9,1.1c-3.1,0-5.5-0.9-7.1-2.8c-1.7-1.9-2.5-4.6-2.5-8.1c0-2.2,0.4-4.2,1.2-5.9c0.8-1.7,2-3,3.5-3.9
		c1.5-0.9,3.3-1.3,5.3-1.3c2.1,0,4.2,0.5,6.3,1.5l-1.5,3.7c-0.8-0.4-1.6-0.7-2.4-1S209.3,184.9,208.5,184.9z"/>
	<path class="st2" d="M218.6,181.4h4.1v10.3l-0.1,2.8l-0.1,3.1h0.1l9.9-16.3h5.4v21.4h-4v-10.3c0-1.4,0.1-3.4,0.3-6.1H234l-9.9,16.4
		h-5.5V181.4z"/>
	<path class="st2" d="M243.3,181.4h4.1v10.3l-0.1,2.8l-0.1,3.1h0.1l9.9-16.3h5.4v21.4h-4v-10.3c0-1.4,0.1-3.4,0.3-6.1h-0.1
		l-9.9,16.4h-5.5V181.4z"/>
</g>
</svg>
