<?xml version="1.0" encoding="utf-8"?>
<!-- Generator: Adobe Illustrator 26.0.1, SVG Export Plug-In . SVG Version: 6.00 Build 0)  -->
<svg version="1.1" id="Component_74_1" xmlns="http://www.w3.org/2000/svg" xmlns:xlink="http://www.w3.org/1999/xlink" x="0px"
	 y="0px" viewBox="0 0 317 131.5" style="enable-background:new 0 0 317 131.5;" xml:space="preserve">
<style type="text/css">
	.st0{opacity:0.4;fill:#45B838;enable-background:new    ;}
	.st1{enable-background:new    ;}
</style>
<path id="Path_83208" class="st0" d="M17.8,12.3L115.1,0l31.1,45.8L0,122.5L17.8,12.3z"/>
<g class="st1">
	<path d="M91.5,48.7h6.7V31h4.5v21.4H75.7V31h4.5v17.6h6.7V31h4.6V48.7z"/>
	<path d="M120.4,52.5H108V31h12.3v3.7h-7.8v4.7h7.3v3.7h-7.3v5.5h7.8V52.5z"/>
	<path d="M141.8,52.5h-4.5V34.8H132l-0.2,2c-0.6,5-1.1,8.5-1.6,10.5c-0.5,2-1.1,3.4-2,4.3s-2.1,1.2-3.6,1.2c-0.8,0-1.5-0.1-2.2-0.3
		v-3.7c0.6,0.2,1.1,0.3,1.6,0.3c0.5,0,0.9-0.2,1.2-0.7c0.3-0.5,0.6-1.4,0.9-2.6c0.3-1.3,0.6-3.4,1.1-6.3s0.8-5.7,1.1-8.3h13.5V52.5z
		"/>
	<path d="M162.3,45.8c0,4.5-2.9,6.7-8.8,6.7h-6.2V31h4.5v8.2h1.8c2.8,0,5,0.6,6.5,1.7S162.3,43.7,162.3,45.8z M151.7,48.7h1.5
		c1.5,0,2.7-0.2,3.4-0.7c0.7-0.5,1.1-1.2,1.1-2.2c0-1-0.4-1.7-1.1-2.1c-0.7-0.4-2-0.7-3.7-0.7h-1.2V48.7z"/>
	<path d="M174.5,52.7v-3.3h-0.3c-1.8,0-3.4-0.3-4.8-1c-1.4-0.6-2.4-1.6-3.2-2.9c-0.8-1.3-1.2-2.7-1.2-4.3c0-1.5,0.3-2.9,1-4.1
		c0.7-1.2,1.7-2.2,3-2.9c1.3-0.7,2.9-1,4.7-1h0.8v-2.6h4.1v2.6h0.8c1.8,0,3.3,0.3,4.6,1c1.3,0.7,2.3,1.6,3,2.9
		c0.7,1.2,1.1,2.6,1.1,4.1c0,1.6-0.4,3-1.2,4.3c-0.8,1.3-1.9,2.2-3.2,2.9c-1.4,0.6-3,1-4.8,1h-0.3v3.3H174.5z M174.5,36.9h-0.6
		c-1.4,0-2.6,0.4-3.4,1.2s-1.2,1.9-1.2,3.2c0,1.4,0.4,2.5,1.3,3.4s2.1,1.3,3.7,1.3h0.2V36.9z M178.6,46h0.2c1.6,0,2.8-0.4,3.7-1.2
		c0.9-0.8,1.3-2,1.3-3.4c0-1.3-0.4-2.4-1.2-3.2c-0.8-0.8-2-1.2-3.4-1.2h-0.6V46z"/>
</g>
<g class="st1">
	<path d="M93.2,87.5H88l-7.8-10.9v10.9h-4.5V66h4.5v10.4L87.9,66h4.8l-7.8,10.3L93.2,87.5z"/>
	<path d="M109,87.5l-1.6-5.1h-7.8L98,87.5h-4.9l7.6-21.5h5.6l7.6,21.5H109z M106.3,78.5c-1.4-4.6-2.2-7.2-2.4-7.8s-0.3-1.1-0.4-1.4
		c-0.3,1.2-1.2,4.3-2.8,9.3H106.3z"/>
	<path d="M125.6,69.5c-1.7,0-3,0.6-4,1.9s-1.4,3.1-1.4,5.4c0,4.8,1.8,7.2,5.4,7.2c1.5,0,3.3-0.4,5.5-1.1v3.8
		c-1.8,0.7-3.7,1.1-5.9,1.1c-3.1,0-5.5-0.9-7.1-2.8c-1.7-1.9-2.5-4.6-2.5-8.1c0-2.2,0.4-4.2,1.2-5.9c0.8-1.7,2-3,3.5-3.9
		c1.5-0.9,3.3-1.3,5.3-1.3c2.1,0,4.2,0.5,6.3,1.5l-1.5,3.7c-0.8-0.4-1.6-0.7-2.4-1S126.4,69.5,125.6,69.5z"/>
	<path d="M152.6,87.5h-4.5V69.8h-7.9v17.6h-4.5V66h16.9V87.5z"/>
	<path d="M158,66h4.1v10.3l-0.1,2.8l-0.1,3.1h0.1l9.9-16.3h5.4v21.4h-4V77.2c0-1.4,0.1-3.4,0.3-6.1h-0.1l-9.9,16.4H158V66z"/>
	<path d="M182.7,66h4.1v10.3l-0.1,2.8l-0.1,3.1h0.1l9.9-16.3h5.4v21.4h-4V77.2c0-1.4,0.1-3.4,0.3-6.1h-0.1l-9.9,16.4h-5.5V66z
		 M199.5,59.1c-0.2,1.8-0.9,3.2-2.1,4c-1.2,0.8-2.9,1.3-5.2,1.3c-2.3,0-4-0.4-5.1-1.2c-1.1-0.8-1.7-2.1-1.9-4h4
		c0.1,1,0.3,1.7,0.8,2.1c0.4,0.4,1.2,0.6,2.3,0.6c1,0,1.7-0.2,2.2-0.7c0.5-0.4,0.8-1.1,0.9-2.1H199.5z"/>
	<path d="M216.5,69.5c-1.7,0-3,0.6-4,1.9s-1.4,3.1-1.4,5.4c0,4.8,1.8,7.2,5.4,7.2c1.5,0,3.3-0.4,5.5-1.1v3.8
		c-1.8,0.7-3.7,1.1-5.9,1.1c-3.1,0-5.5-0.9-7.1-2.8c-1.7-1.9-2.5-4.6-2.5-8.1c0-2.2,0.4-4.2,1.2-5.9c0.8-1.7,2-3,3.5-3.9
		c1.5-0.9,3.3-1.3,5.3-1.3c2.1,0,4.2,0.5,6.3,1.5l-1.5,3.7c-0.8-0.4-1.6-0.7-2.4-1S217.3,69.5,216.5,69.5z"/>
	<path d="M244,87.5h-5.2l-7.8-10.9v10.9h-4.5V66h4.5v10.4l7.7-10.4h4.8l-7.8,10.3L244,87.5z"/>
	<path d="M266.1,76.7c0,3.5-0.9,6.3-2.6,8.2s-4.3,2.9-7.6,2.9s-5.8-1-7.6-2.9s-2.6-4.6-2.6-8.2s0.9-6.3,2.6-8.2
		c1.8-1.9,4.3-2.8,7.6-2.8s5.8,0.9,7.6,2.8C265.3,70.4,266.1,73.2,266.1,76.7z M250.5,76.7c0,2.4,0.5,4.2,1.4,5.4s2.3,1.8,4.1,1.8
		c3.6,0,5.4-2.4,5.4-7.2c0-4.8-1.8-7.2-5.4-7.2c-1.8,0-3.2,0.6-4.1,1.8C251,72.5,250.5,74.3,250.5,76.7z"/>
	<path d="M284.1,66v3.8h-9v17.7h-4.5V66H284.1z"/>
	<path d="M306.8,76.7c0,3.5-0.9,6.3-2.6,8.2s-4.3,2.9-7.6,2.9s-5.8-1-7.6-2.9s-2.6-4.6-2.6-8.2s0.9-6.3,2.6-8.2
		c1.8-1.9,4.3-2.8,7.6-2.8s5.8,0.9,7.6,2.8C306,70.4,306.8,73.2,306.8,76.7z M291.2,76.7c0,2.4,0.5,4.2,1.4,5.4s2.3,1.8,4.1,1.8
		c3.6,0,5.4-2.4,5.4-7.2c0-4.8-1.8-7.2-5.4-7.2c-1.8,0-3.2,0.6-4.1,1.8C291.7,72.5,291.2,74.3,291.2,76.7z"/>
</g>
<g class="st1">
	<path d="M84.8,122.5l-5.2-16.8h-0.1c0.2,3.4,0.3,5.7,0.3,6.8v10h-4.1V101h6.2l5.1,16.4H87l5.4-16.4h6.2v21.4h-4.2v-10.1
		c0-0.5,0-1,0-1.7s0.1-2.3,0.2-5h-0.1l-5.5,16.8H84.8z"/>
	<path d="M123.4,111.7c0,3.5-0.9,6.3-2.6,8.2s-4.3,2.9-7.6,2.9s-5.8-1-7.6-2.9s-2.6-4.6-2.6-8.2s0.9-6.3,2.6-8.2
		c1.8-1.9,4.3-2.8,7.6-2.8s5.8,0.9,7.6,2.8S123.4,108.2,123.4,111.7z M107.8,111.7c0,2.4,0.5,4.2,1.4,5.4s2.3,1.8,4.1,1.8
		c3.6,0,5.4-2.4,5.4-7.2c0-4.8-1.8-7.2-5.4-7.2c-1.8,0-3.2,0.6-4.1,1.8C108.2,107.5,107.8,109.3,107.8,111.7z"/>
	<path d="M142.7,107.7c0,2.3-0.7,4.1-2.2,5.3s-3.5,1.8-6.1,1.8h-1.9v7.6h-4.5V101h6.8c2.6,0,4.6,0.6,5.9,1.7
		S142.7,105.5,142.7,107.7z M132.4,111.1h1.5c1.4,0,2.4-0.3,3.1-0.8c0.7-0.6,1-1.4,1-2.4c0-1.1-0.3-1.9-0.9-2.4s-1.5-0.8-2.7-0.8
		h-2.1V111.1z"/>
	<path d="M153.9,114.2l-5,8.2h-5l6.1-9.4c-1.2-0.5-2.1-1.2-2.8-2.3s-1-2.2-1-3.6c0-2,0.7-3.5,2.1-4.5s3.4-1.6,6-1.6h7v21.4h-4.5
		v-8.2H153.9z M156.7,104.8h-2.2c-1.2,0-2.1,0.2-2.7,0.6s-1,1.1-1,2.1c0,0.9,0.3,1.7,0.9,2.2s1.6,0.8,2.9,0.8h2.1V104.8z"/>
</g>
</svg>
