<?xml version="1.0" encoding="utf-8"?>
<!-- Generator: Adobe Illustrator 26.0.1, SVG Export Plug-In . SVG Version: 6.00 Build 0)  -->
<svg version="1.1" id="Component_124_1" xmlns="http://www.w3.org/2000/svg" xmlns:xlink="http://www.w3.org/1999/xlink" x="0px"
	 y="0px" viewBox="0 0 162 198.8" style="enable-background:new 0 0 162 198.8;" xml:space="preserve">
<style type="text/css">
	.st0{opacity:0.6;fill:#45B838;enable-background:new    ;}
	.st1{enable-background:new    ;}
</style>
<path id="Path_84403" class="st0" d="M44.7,128.1l4.3,9.3l17.5,16.9l3.9,24.6l-11.6,19.9l-55-38v-18.1L44.7,128.1z"/>
<g class="st1">
	<path d="M37.9,49.4c0,8.6-1.4,15-4.2,19.1s-7.2,6.2-13,6.2c-5.7,0-10-2.1-12.9-6.4S3.5,57.7,3.5,49.4c0-8.7,1.4-15.1,4.2-19.2
		c2.8-4.1,7.1-6.2,13-6.2c5.7,0,10,2.2,12.9,6.5S37.9,41.1,37.9,49.4z M13.8,49.4c0,6,0.5,10.4,1.6,13c1,2.6,2.8,3.9,5.3,3.9
		c2.4,0,4.2-1.3,5.3-4c1.1-2.6,1.6-7,1.6-12.9c0-6-0.5-10.4-1.6-13c-1.1-2.6-2.8-4-5.2-4c-2.4,0-4.2,1.3-5.3,4
		C14.4,39,13.8,43.3,13.8,49.4z"/>
	<path d="M44.3,69.2c0-1.9,0.5-3.3,1.5-4.3s2.5-1.4,4.4-1.4c1.9,0,3.3,0.5,4.3,1.5c1,1,1.5,2.4,1.5,4.2c0,1.8-0.5,3.2-1.5,4.2
		c-1,1-2.5,1.5-4.3,1.5c-1.9,0-3.3-0.5-4.4-1.5C44.8,72.4,44.3,71,44.3,69.2z"/>
	<path d="M97.3,74H62.8v-7.2l12.4-12.5c3.7-3.8,6.1-6.4,7.2-7.8c1.1-1.4,1.9-2.8,2.4-4c0.5-1.2,0.7-2.5,0.7-3.8c0-2-0.5-3.4-1.6-4.4
		c-1.1-1-2.5-1.4-4.4-1.4c-1.9,0-3.8,0.4-5.6,1.3c-1.8,0.9-3.7,2.1-5.6,3.7l-5.7-6.7c2.4-2.1,4.4-3.5,6-4.4c1.6-0.9,3.3-1.5,5.2-2
		s4-0.7,6.3-0.7c3.1,0,5.8,0.6,8.2,1.7c2.4,1.1,4.2,2.7,5.5,4.7c1.3,2,2,4.3,2,6.9c0,2.3-0.4,4.4-1.2,6.4c-0.8,2-2,4-3.7,6.1
		s-4.6,5.1-8.8,8.9l-6.3,6v0.5h21.5V74z"/>
	<path d="M125,39.4c0,5.2-1,9-3,11.6c-2,2.6-4.9,3.9-8.8,3.9c-3.7,0-6.6-1.3-8.6-4c-2-2.7-3-6.5-3-11.5c0-10.3,3.9-15.4,11.6-15.4
		c3.8,0,6.7,1.3,8.7,4C124,30.7,125,34.5,125,39.4z M110.1,39.5c0,2.9,0.3,5,0.8,6.4c0.5,1.4,1.3,2.1,2.4,2.1c2.2,0,3.2-2.8,3.2-8.5
		c0-5.6-1.1-8.4-3.2-8.4c-1.1,0-1.9,0.7-2.4,2.1C110.3,34.5,110.1,36.6,110.1,39.5z M148.2,24.7L120.8,74h-8.1l27.3-49.3H148.2z
		 M159.5,59.1c0,5.1-1,9-3,11.6c-2,2.6-4.9,3.9-8.8,3.9c-3.7,0-6.6-1.3-8.6-4c-2-2.7-3-6.5-3-11.5c0-10.3,3.9-15.4,11.6-15.4
		c3.8,0,6.7,1.3,8.7,4C158.5,50.4,159.5,54.2,159.5,59.1z M144.6,59.2c0,2.9,0.3,5,0.8,6.4c0.5,1.4,1.3,2.1,2.4,2.1
		c2.2,0,3.2-2.8,3.2-8.5c0-5.6-1.1-8.4-3.2-8.4c-1.1,0-1.9,0.7-2.4,2.1C144.8,54.2,144.6,56.3,144.6,59.2z"/>
</g>
<g class="st1">
	<path d="M7,110.1H1.3v-3.2H7v-5.7h3.2v5.7h5.7v3.2h-5.7v5.6H7V110.1z"/>
	<path d="M33.2,108.4c0,3.7-0.6,6.5-1.8,8.3s-3.1,2.7-5.7,2.7c-2.5,0-4.3-0.9-5.6-2.8s-1.9-4.6-1.9-8.2c0-3.8,0.6-6.6,1.8-8.4
		s3.1-2.7,5.6-2.7c2.5,0,4.3,0.9,5.6,2.8S33.2,104.8,33.2,108.4z M22.7,108.4c0,2.6,0.2,4.5,0.7,5.6s1.2,1.7,2.3,1.7
		c1.1,0,1.8-0.6,2.3-1.7s0.7-3,0.7-5.6c0-2.6-0.2-4.5-0.7-5.7s-1.2-1.7-2.3-1.7c-1.1,0-1.8,0.6-2.3,1.7S22.7,105.8,22.7,108.4z"/>
	<path d="M36,117c0-0.8,0.2-1.4,0.7-1.9s1.1-0.6,1.9-0.6c0.8,0,1.4,0.2,1.9,0.6s0.7,1,0.7,1.8c0,0.8-0.2,1.4-0.7,1.8
		c-0.4,0.4-1.1,0.7-1.9,0.7c-0.8,0-1.5-0.2-1.9-0.7C36.2,118.4,36,117.8,36,117z"/>
	<path d="M59,119.1H44v-3.1l5.4-5.4c1.6-1.6,2.6-2.8,3.1-3.4c0.5-0.6,0.8-1.2,1.1-1.8s0.3-1.1,0.3-1.7c0-0.9-0.2-1.5-0.7-1.9
		s-1.1-0.6-1.9-0.6c-0.8,0-1.6,0.2-2.4,0.6s-1.6,0.9-2.4,1.6l-2.5-2.9c1.1-0.9,1.9-1.5,2.6-1.9s1.5-0.7,2.3-0.9
		c0.8-0.2,1.7-0.3,2.8-0.3c1.3,0,2.5,0.2,3.5,0.7s1.8,1.2,2.4,2.1s0.8,1.9,0.8,3c0,1-0.2,1.9-0.5,2.8c-0.3,0.9-0.9,1.8-1.6,2.7
		s-2,2.2-3.8,3.9l-2.8,2.6v0.2H59V119.1z"/>
	<path d="M87.4,119.1h-4.5v-17.6H75v17.6h-4.5V97.7h16.9V119.1z"/>
	<path d="M91.8,117c0-0.8,0.2-1.4,0.7-1.9s1.1-0.6,1.9-0.6c0.8,0,1.4,0.2,1.9,0.6c0.4,0.4,0.7,1,0.7,1.8c0,0.8-0.2,1.4-0.7,1.8
		c-0.4,0.4-1.1,0.7-1.9,0.7c-0.8,0-1.5-0.2-1.9-0.7C92,118.4,91.8,117.8,91.8,117z"/>
	<path d="M118.3,119.1h-4.5v-17.6h-7.9v17.6h-4.5V97.7h16.9V119.1z"/>
</g>
</svg>
