<?xml version="1.0" encoding="utf-8"?>
<!-- Generator: Adobe Illustrator 26.0.1, SVG Export Plug-In . SVG Version: 6.00 Build 0)  -->
<svg version="1.1" id="Component_74_1" xmlns="http://www.w3.org/2000/svg" xmlns:xlink="http://www.w3.org/1999/xlink" x="0px"
	 y="0px" viewBox="0 0 230 134.3" style="enable-background:new 0 0 230 134.3;" xml:space="preserve">
<style type="text/css">
	.st0{opacity:0.6;fill:#45B838;enable-background:new    ;}
	.st1{enable-background:new    ;}
</style>
<path id="Path_83208" class="st0" d="M17.8,12.3L115.1,0l31.1,45.8L0,122.5L17.8,12.3z"/>
<g class="st1">
	<path d="M88.7,30.3c4.7,0,8.5,1.1,11.4,3.2c2.9,2.1,4.3,5,4.3,8.7c0,2.5-0.7,4.8-2.1,6.7c-1.4,2-3.6,3.7-6.7,5.3
		c3.7,2,6.3,4,7.9,6.2s2.4,4.5,2.4,7.1c0,4-1.6,7.3-4.8,9.8c-3.2,2.5-7.3,3.7-12.5,3.7c-5.4,0-9.6-1.1-12.7-3.4
		c-3.1-2.3-4.6-5.5-4.6-9.7c0-2.8,0.7-5.3,2.2-7.5s3.9-4.1,7.2-5.8c-2.8-1.8-4.8-3.7-6.1-5.7c-1.2-2-1.9-4.2-1.9-6.6
		c0-3.5,1.5-6.4,4.4-8.6C80.2,31.4,84,30.3,88.7,30.3z M81.1,67.1c0,1.9,0.7,3.4,2,4.5s3.2,1.6,5.5,1.6c2.6,0,4.5-0.6,5.8-1.7
		c1.3-1.1,1.9-2.6,1.9-4.4c0-1.5-0.6-2.9-1.9-4.2c-1.3-1.3-3.3-2.7-6.2-4.2C83.5,61,81.1,63.8,81.1,67.1z M88.7,38
		c-1.8,0-3.2,0.5-4.3,1.4c-1.1,0.9-1.6,2.1-1.6,3.7c0,1.3,0.4,2.6,1.3,3.6s2.4,2.2,4.7,3.3c2.2-1,3.7-2.1,4.6-3.2s1.3-2.3,1.3-3.7
		c0-1.5-0.6-2.8-1.7-3.7C91.9,38.4,90.4,38,88.7,38z"/>
	<path d="M112.3,75.4c0-1.9,0.5-3.3,1.5-4.3s2.5-1.4,4.4-1.4c1.9,0,3.3,0.5,4.3,1.5s1.5,2.4,1.5,4.2c0,1.8-0.5,3.2-1.5,4.2
		c-1,1-2.5,1.5-4.3,1.5c-1.9,0-3.3-0.5-4.4-1.5C112.8,78.7,112.3,77.2,112.3,75.4z"/>
	<path d="M135.7,80.2l18.5-40.4h-24.3v-8.8h35.3v6.5l-18.6,42.7H135.7z"/>
	<path d="M193,45.7c0,5.2-1,9-3,11.6c-2,2.6-4.9,3.9-8.8,3.9c-3.7,0-6.6-1.3-8.6-4c-2-2.7-3-6.5-3-11.5c0-10.3,3.9-15.4,11.6-15.4
		c3.8,0,6.7,1.3,8.7,4C192,36.9,193,40.7,193,45.7z M178.1,45.7c0,2.9,0.3,5,0.8,6.4c0.5,1.4,1.3,2.1,2.4,2.1c2.2,0,3.2-2.8,3.2-8.5
		c0-5.6-1.1-8.4-3.2-8.4c-1.1,0-1.9,0.7-2.4,2.1C178.3,40.8,178.1,42.9,178.1,45.7z M216.2,31l-27.3,49.3h-8.1L208.1,31H216.2z
		 M227.5,65.4c0,5.1-1,9-3,11.6c-2,2.6-4.9,3.9-8.8,3.9c-3.7,0-6.6-1.3-8.6-4c-2-2.7-3-6.5-3-11.5c0-10.3,3.9-15.4,11.6-15.4
		c3.8,0,6.7,1.3,8.7,4C226.5,56.6,227.5,60.4,227.5,65.4z M212.6,65.4c0,2.9,0.3,5,0.8,6.4c0.5,1.4,1.3,2.1,2.4,2.1
		c2.2,0,3.2-2.8,3.2-8.5c0-5.6-1.1-8.4-3.2-8.4c-1.1,0-1.9,0.7-2.4,2.1C212.8,60.5,212.6,62.6,212.6,65.4z"/>
</g>
<g class="st1">
	<path d="M75,116.4h-5.7v-3.2H75v-5.7h3.2v5.7h5.7v3.2h-5.7v5.6H75V116.4z"/>
	<path d="M101.2,114.6c0,3.7-0.6,6.5-1.8,8.3s-3.1,2.7-5.7,2.7c-2.5,0-4.3-0.9-5.6-2.8s-1.9-4.6-1.9-8.2c0-3.8,0.6-6.6,1.8-8.4
		s3.1-2.7,5.6-2.7c2.5,0,4.3,0.9,5.6,2.8S101.2,111,101.2,114.6z M90.7,114.6c0,2.6,0.2,4.5,0.7,5.6s1.2,1.7,2.3,1.7
		c1.1,0,1.8-0.6,2.3-1.7s0.7-3,0.7-5.6c0-2.6-0.2-4.5-0.7-5.7s-1.2-1.7-2.3-1.7c-1.1,0-1.8,0.6-2.3,1.7S90.7,112,90.7,114.6z"/>
	<path d="M104,123.2c0-0.8,0.2-1.4,0.7-1.9s1.1-0.6,1.9-0.6c0.8,0,1.4,0.2,1.9,0.6s0.7,1,0.7,1.8c0,0.8-0.2,1.4-0.7,1.8
		c-0.4,0.4-1.1,0.7-1.9,0.7c-0.8,0-1.5-0.2-1.9-0.7C104.2,124.6,104,124,104,123.2z"/>
	<path d="M126.1,108.7c0,1.3-0.4,2.5-1.2,3.4s-1.9,1.6-3.4,1.9v0.1c1.7,0.2,3,0.7,3.9,1.6c0.9,0.8,1.3,2,1.3,3.4
		c0,2.1-0.7,3.7-2.2,4.8s-3.6,1.7-6.4,1.7c-2.3,0-4.4-0.4-6.2-1.2v-3.9c0.8,0.4,1.7,0.8,2.7,1s2,0.4,3,0.4c1.5,0,2.6-0.3,3.3-0.8
		s1.1-1.3,1.1-2.4c0-1-0.4-1.7-1.2-2.1s-2.1-0.6-3.9-0.6h-1.6v-3.5h1.7c1.7,0,2.9-0.2,3.6-0.7c0.8-0.4,1.1-1.2,1.1-2.2
		c0-1.6-1-2.4-3-2.4c-0.7,0-1.4,0.1-2.1,0.4c-0.7,0.2-1.5,0.6-2.4,1.2l-2.1-3.1c2-1.4,4.3-2.1,7-2.1c2.2,0,4,0.4,5.3,1.3
		C125.5,105.9,126.1,107.1,126.1,108.7z"/>
	<path d="M155.4,125.3h-4.5v-17.6H143v17.6h-4.5v-21.4h16.9V125.3z"/>
	<path d="M159.8,123.2c0-0.8,0.2-1.4,0.7-1.9s1.1-0.6,1.9-0.6c0.8,0,1.4,0.2,1.9,0.6c0.4,0.4,0.7,1,0.7,1.8c0,0.8-0.2,1.4-0.7,1.8
		c-0.4,0.4-1.1,0.7-1.9,0.7c-0.8,0-1.5-0.2-1.9-0.7C160,124.6,159.8,124,159.8,123.2z"/>
	<path d="M186.3,125.3h-4.5v-17.6h-7.9v17.6h-4.5v-21.4h16.9V125.3z"/>
</g>
</svg>
