<?xml version="1.0" encoding="utf-8"?>
<!-- Generator: Adobe Illustrator 26.0.1, SVG Export Plug-In . SVG Version: 6.00 Build 0)  -->
<svg version="1.1" id="Component_125_1" xmlns="http://www.w3.org/2000/svg" xmlns:xlink="http://www.w3.org/1999/xlink" x="0px"
	 y="0px" viewBox="0 0 253.9 169.7" style="enable-background:new 0 0 253.9 169.7;" xml:space="preserve">
<style type="text/css">
	.st0{opacity:0.4;fill:#45B838;enable-background:new    ;}
	.st1{enable-background:new    ;}
</style>
<path id="Path_84405" class="st0" d="M20.2,134.8l2.1,4.6l8.6,8.3l1.9,12.2l-5.7,9.8L0,151v-8.9L20.2,134.8z"/>
<g class="st1">
	<path d="M39.3,28.2H46V10.6h4.5V32H23.5V10.6h4.5v17.6h6.7V10.6h4.6V28.2z"/>
	<path d="M68.2,32H55.9V10.6h12.3v3.7h-7.8V19h7.3v3.7h-7.3v5.5h7.8V32z"/>
	<path d="M89.6,32h-4.5V14.4h-5.2l-0.2,2c-0.6,5-1.1,8.5-1.6,10.5c-0.5,2-1.1,3.4-2,4.3s-2.1,1.2-3.6,1.2c-0.8,0-1.5-0.1-2.2-0.3
		v-3.7c0.6,0.2,1.1,0.3,1.6,0.3c0.5,0,0.9-0.2,1.2-0.7c0.3-0.5,0.6-1.4,0.9-2.6c0.3-1.3,0.6-3.4,1.1-6.3s0.8-5.7,1.1-8.3h13.5V32z"
		/>
	<path d="M110.1,25.3c0,4.5-2.9,6.7-8.8,6.7H95V10.6h4.5v8.2h1.8c2.8,0,5,0.6,6.5,1.7S110.1,23.2,110.1,25.3z M99.6,28.3h1.5
		c1.5,0,2.7-0.2,3.4-0.7c0.7-0.5,1.1-1.2,1.1-2.2c0-1-0.4-1.7-1.1-2.1c-0.7-0.4-2-0.7-3.7-0.7h-1.2V28.3z"/>
	<path d="M122.4,32.3V29H122c-1.8,0-3.4-0.3-4.8-1c-1.4-0.6-2.4-1.6-3.2-2.9s-1.2-2.7-1.2-4.3c0-1.5,0.3-2.9,1-4.1
		c0.7-1.2,1.7-2.2,3-2.9c1.3-0.7,2.9-1,4.7-1h0.8v-2.6h4.1v2.6h0.8c1.8,0,3.3,0.3,4.6,1c1.3,0.7,2.3,1.6,3,2.9
		c0.7,1.2,1.1,2.6,1.1,4.1c0,1.6-0.4,3-1.2,4.3s-1.9,2.2-3.2,2.9c-1.4,0.6-3,1-4.8,1h-0.3v3.3H122.4z M122.4,16.5h-0.6
		c-1.4,0-2.6,0.4-3.4,1.2s-1.2,1.9-1.2,3.2c0,1.4,0.4,2.5,1.3,3.4s2.1,1.3,3.7,1.3h0.2V16.5z M126.4,25.5h0.2c1.6,0,2.8-0.4,3.7-1.2
		c0.9-0.8,1.3-2,1.3-3.4c0-1.3-0.4-2.4-1.2-3.2c-0.8-0.8-2-1.2-3.4-1.2h-0.6V25.5z"/>
</g>
<g class="st1">
	<path d="M28.1,53.8h1.8c2.8,0,5,0.6,6.5,1.7s2.3,2.7,2.3,4.8c0,4.5-2.9,6.7-8.8,6.7h-6.2V45.6h13.5v3.8h-9V53.8z M28.1,63.3h1.5
		c1.5,0,2.7-0.2,3.4-0.7c0.7-0.5,1.1-1.2,1.1-2.2c0-1-0.4-1.7-1.1-2.1c-0.7-0.4-2-0.7-3.7-0.7h-1.2V63.3z"/>
	<path d="M55.8,67l-1.6-5.1h-7.8L44.9,67H40l7.6-21.5h5.6L60.7,67H55.8z M53.2,58.1c-1.4-4.6-2.2-7.2-2.4-7.8s-0.3-1.1-0.4-1.4
		c-0.3,1.2-1.2,4.3-2.8,9.3H53.2z"/>
	<path d="M80.3,67h-4.5V49.4h-5.2l-0.2,2c-0.6,5-1.1,8.5-1.6,10.5c-0.5,2-1.1,3.4-2,4.3s-2.1,1.2-3.6,1.2c-0.8,0-1.5-0.1-2.2-0.3
		v-3.7c0.6,0.2,1.1,0.3,1.6,0.3c0.5,0,0.9-0.2,1.2-0.7c0.3-0.5,0.6-1.4,0.9-2.6c0.3-1.3,0.6-3.4,1.1-6.3s0.8-5.7,1.1-8.3h13.5V67z"
		/>
	<path d="M94,67h-4.5V49.4h-5.8v-3.8h16.2v3.8H94V67z"/>
	<path d="M103.1,45.6h4.1v10.3l-0.1,2.8l-0.1,3.1h0.1l9.9-16.3h5.4V67h-4V56.7c0-1.4,0.1-3.4,0.3-6.1h-0.1L108.6,67h-5.5V45.6z"/>
	<path d="M127.8,45.6h4.1v10.3l-0.1,2.8l-0.1,3.1h0.1l9.9-16.3h5.4V67h-4V56.7c0-1.4,0.1-3.4,0.3-6.1h-0.1L133.3,67h-5.5V45.6z
		 M144.6,38.6c-0.2,1.8-0.9,3.2-2.1,4c-1.2,0.8-2.9,1.3-5.2,1.3c-2.3,0-4-0.4-5.1-1.2s-1.7-2.1-1.9-4h4c0.1,1,0.3,1.7,0.8,2.1
		c0.4,0.4,1.2,0.6,2.3,0.6c1,0,1.7-0.2,2.2-0.7c0.5-0.4,0.8-1.1,0.9-2.1H144.6z"/>
	<path d="M161.6,49.1c-1.7,0-3,0.6-4,1.9s-1.4,3.1-1.4,5.4c0,4.8,1.8,7.2,5.4,7.2c1.5,0,3.3-0.4,5.5-1.1v3.8
		c-1.8,0.7-3.7,1.1-5.9,1.1c-3.1,0-5.5-0.9-7.1-2.8c-1.7-1.9-2.5-4.6-2.5-8.1c0-2.2,0.4-4.2,1.2-5.9c0.8-1.7,2-3,3.5-3.9
		c1.5-0.9,3.3-1.3,5.3-1.3c2.1,0,4.2,0.5,6.3,1.5l-1.5,3.7c-0.8-0.4-1.6-0.7-2.4-1S162.4,49.1,161.6,49.1z"/>
	<path d="M189.1,67h-5.2l-7.8-10.9V67h-4.5V45.6h4.5V56l7.7-10.4h4.8l-7.8,10.3L189.1,67z"/>
	<path d="M211.2,56.3c0,3.5-0.9,6.3-2.6,8.2s-4.3,2.9-7.6,2.9s-5.8-1-7.6-2.9s-2.6-4.6-2.6-8.2s0.9-6.3,2.6-8.2
		c1.8-1.9,4.3-2.8,7.6-2.8s5.8,0.9,7.6,2.8S211.2,52.7,211.2,56.3z M195.6,56.3c0,2.4,0.5,4.2,1.4,5.4s2.3,1.8,4.1,1.8
		c3.6,0,5.4-2.4,5.4-7.2c0-4.8-1.8-7.2-5.4-7.2c-1.8,0-3.2,0.6-4.1,1.8C196.1,52.1,195.6,53.9,195.6,56.3z"/>
	<path d="M229.2,45.6v3.8h-9V67h-4.5V45.6H229.2z"/>
	<path d="M251.9,56.3c0,3.5-0.9,6.3-2.6,8.2s-4.3,2.9-7.6,2.9s-5.8-1-7.6-2.9s-2.6-4.6-2.6-8.2s0.9-6.3,2.6-8.2
		c1.8-1.9,4.3-2.8,7.6-2.8s5.8,0.9,7.6,2.8S251.9,52.7,251.9,56.3z M236.3,56.3c0,2.4,0.5,4.2,1.4,5.4s2.3,1.8,4.1,1.8
		c3.6,0,5.4-2.4,5.4-7.2c0-4.8-1.8-7.2-5.4-7.2c-1.8,0-3.2,0.6-4.1,1.8C236.8,52.1,236.3,53.9,236.3,56.3z"/>
</g>
<g class="st1">
	<path d="M32.6,102l-5.2-16.8h-0.1c0.2,3.4,0.3,5.7,0.3,6.8v10h-4.1V80.6h6.2L34.8,97h0.1l5.4-16.4h6.2V102h-4.2V91.9
		c0-0.5,0-1,0-1.7s0.1-2.3,0.2-5h-0.1L36.8,102H32.6z"/>
	<path d="M71.3,91.3c0,3.5-0.9,6.3-2.6,8.2s-4.3,2.9-7.6,2.9s-5.8-1-7.6-2.9s-2.6-4.6-2.6-8.2s0.9-6.3,2.6-8.2
		c1.8-1.9,4.3-2.8,7.6-2.8s5.8,0.9,7.6,2.8S71.3,87.7,71.3,91.3z M55.6,91.3c0,2.4,0.5,4.2,1.4,5.4s2.3,1.8,4.1,1.8
		c3.6,0,5.4-2.4,5.4-7.2c0-4.8-1.8-7.2-5.4-7.2c-1.8,0-3.2,0.6-4.1,1.8C56.1,87.1,55.6,88.9,55.6,91.3z"/>
	<path d="M90.5,87.3c0,2.3-0.7,4.1-2.2,5.3s-3.5,1.8-6.1,1.8h-1.9v7.6h-4.5V80.6h6.8c2.6,0,4.6,0.6,5.9,1.7S90.5,85,90.5,87.3z
		 M80.3,90.7h1.5c1.4,0,2.4-0.3,3.1-0.8c0.7-0.6,1-1.4,1-2.4c0-1.1-0.3-1.9-0.9-2.4s-1.5-0.8-2.7-0.8h-2.1V90.7z"/>
	<path d="M101.8,93.8l-5,8.2h-5l6.1-9.4c-1.2-0.5-2.1-1.2-2.8-2.3s-1-2.2-1-3.6c0-2,0.7-3.5,2.1-4.5s3.4-1.6,6-1.6h7V102h-4.5v-8.2
		H101.8z M104.6,84.3h-2.2c-1.2,0-2.1,0.2-2.7,0.6s-1,1.1-1,2.1c0,0.9,0.3,1.7,0.9,2.2s1.6,0.8,2.9,0.8h2.1V84.3z"/>
</g>
</svg>
