<?xml version="1.0" encoding="utf-8"?>
<!-- Generator: Adobe Illustrator 26.0.1, SVG Export Plug-In . SVG Version: 6.00 Build 0)  -->
<svg version="1.1" id="Component_125_1" xmlns="http://www.w3.org/2000/svg" xmlns:xlink="http://www.w3.org/1999/xlink" x="0px"
	 y="0px" viewBox="0 0 233.9 183.9" style="enable-background:new 0 0 233.9 183.9;" xml:space="preserve">
<style type="text/css">
	.st0{opacity:0.6;fill:#45B838;enable-background:new    ;}
	.st1{enable-background:new    ;}
</style>
<path id="Path_84405" class="st0" d="M20.2,149l2.1,4.6l8.6,8.3l1.9,12.2l-5.7,9.8L0,165.2v-8.9L20.2,149z"/>
<g class="st1">
	<path d="M70.8,49.4c0,8.6-1.4,15-4.2,19.1s-7.2,6.2-13,6.2c-5.7,0-10-2.1-12.9-6.4s-4.3-10.6-4.3-18.9c0-8.7,1.4-15.1,4.2-19.2
		c2.8-4.1,7.1-6.2,13-6.2c5.7,0,10,2.2,12.9,6.5S70.8,41.1,70.8,49.4z M46.7,49.4c0,6,0.5,10.4,1.6,13c1,2.6,2.8,3.9,5.3,3.9
		c2.4,0,4.2-1.3,5.3-4c1.1-2.6,1.6-7,1.6-12.9c0-6-0.5-10.4-1.6-13c-1.1-2.6-2.8-4-5.2-4c-2.4,0-4.2,1.3-5.3,4
		C47.2,39,46.7,43.3,46.7,49.4z"/>
	<path d="M77.2,69.2c0-1.9,0.5-3.3,1.5-4.3s2.5-1.4,4.4-1.4c1.9,0,3.3,0.5,4.3,1.5c1,1,1.5,2.4,1.5,4.2c0,1.8-0.5,3.2-1.5,4.2
		c-1,1-2.5,1.5-4.3,1.5c-1.9,0-3.3-0.5-4.4-1.5C77.7,72.4,77.2,71,77.2,69.2z"/>
	<path d="M129.8,49.4c0,8.6-1.4,15-4.2,19.1c-2.8,4.1-7.2,6.2-13,6.2c-5.7,0-10-2.1-12.9-6.4s-4.3-10.6-4.3-18.9
		c0-8.7,1.4-15.1,4.2-19.2c2.8-4.1,7.1-6.2,13-6.2c5.7,0,10,2.2,12.9,6.5C128.4,34.8,129.8,41.1,129.8,49.4z M105.7,49.4
		c0,6,0.5,10.4,1.6,13c1,2.6,2.8,3.9,5.3,3.9c2.4,0,4.2-1.3,5.3-4c1.1-2.6,1.6-7,1.6-12.9c0-6-0.5-10.4-1.6-13c-1.1-2.6-2.8-4-5.2-4
		c-2.4,0-4.2,1.3-5.3,4C106.3,39,105.7,43.3,105.7,49.4z"/>
	<path d="M160.8,74h-10.4V45.5l0.1-4.7l0.2-5.1c-1.7,1.7-2.9,2.9-3.6,3.4l-5.7,4.5l-5-6.3l15.9-12.6h8.6V74z"/>
	<path d="M197.2,39.4c0,5.2-1,9-3,11.6c-2,2.6-4.9,3.9-8.8,3.9c-3.7,0-6.6-1.3-8.6-4c-2-2.7-3-6.5-3-11.5c0-10.3,3.9-15.4,11.6-15.4
		c3.8,0,6.7,1.3,8.7,4C196.2,30.7,197.2,34.5,197.2,39.4z M182.3,39.5c0,2.9,0.3,5,0.8,6.4c0.5,1.4,1.3,2.1,2.4,2.1
		c2.2,0,3.2-2.8,3.2-8.5c0-5.6-1.1-8.4-3.2-8.4c-1.1,0-1.9,0.7-2.4,2.1C182.5,34.5,182.3,36.6,182.3,39.5z M220.4,24.7L193.1,74H185
		l27.3-49.3H220.4z M231.7,59.1c0,5.1-1,9-3,11.6c-2,2.6-4.9,3.9-8.8,3.9c-3.7,0-6.6-1.3-8.6-4c-2-2.7-3-6.5-3-11.5
		c0-10.3,3.9-15.4,11.6-15.4c3.8,0,6.7,1.3,8.7,4C230.7,50.4,231.7,54.2,231.7,59.1z M216.8,59.2c0,2.9,0.3,5,0.8,6.4
		c0.5,1.4,1.3,2.1,2.4,2.1c2.2,0,3.2-2.8,3.2-8.5c0-5.6-1.1-8.4-3.2-8.4c-1.1,0-1.9,0.7-2.4,2.1C217,54.2,216.8,56.3,216.8,59.2z"/>
</g>
<g class="st1">
	<path d="M39.8,110.1h-5.7v-3.2h5.7v-5.7H43v5.7h5.7v3.2H43v5.6h-3.2V110.1z"/>
	<path d="M66,108.4c0,3.7-0.6,6.5-1.8,8.3s-3.1,2.7-5.7,2.7c-2.5,0-4.3-0.9-5.6-2.8s-1.9-4.6-1.9-8.2c0-3.8,0.6-6.6,1.8-8.4
		s3.1-2.7,5.6-2.7c2.5,0,4.3,0.9,5.6,2.8S66,104.8,66,108.4z M55.6,108.4c0,2.6,0.2,4.5,0.7,5.6s1.2,1.7,2.3,1.7
		c1.1,0,1.8-0.6,2.3-1.7s0.7-3,0.7-5.6c0-2.6-0.2-4.5-0.7-5.7s-1.2-1.7-2.3-1.7c-1.1,0-1.8,0.6-2.3,1.7S55.6,105.8,55.6,108.4z"/>
	<path d="M68.8,117c0-0.8,0.2-1.4,0.7-1.9s1.1-0.6,1.9-0.6c0.8,0,1.4,0.2,1.9,0.6s0.7,1,0.7,1.8c0,0.8-0.2,1.4-0.7,1.8
		c-0.4,0.4-1.1,0.7-1.9,0.7c-0.8,0-1.5-0.2-1.9-0.7C69,118.4,68.8,117.8,68.8,117z"/>
	<path d="M91.7,108.4c0,3.7-0.6,6.5-1.8,8.3s-3.1,2.7-5.7,2.7c-2.5,0-4.3-0.9-5.6-2.8s-1.9-4.6-1.9-8.2c0-3.8,0.6-6.6,1.8-8.4
		s3.1-2.7,5.6-2.7c2.5,0,4.3,0.9,5.6,2.8S91.7,104.8,91.7,108.4z M81.2,108.4c0,2.6,0.2,4.5,0.7,5.6s1.2,1.7,2.3,1.7
		c1.1,0,1.8-0.6,2.3-1.7s0.7-3,0.7-5.6c0-2.6-0.2-4.5-0.7-5.7s-1.2-1.7-2.3-1.7c-1.1,0-1.8,0.6-2.3,1.7S81.2,105.8,81.2,108.4z"/>
	<path d="M120.2,119.1h-4.5v-17.6h-7.9v17.6h-4.5V97.7h16.9V119.1z"/>
	<path d="M124.6,117c0-0.8,0.2-1.4,0.7-1.9s1.1-0.6,1.9-0.6c0.8,0,1.4,0.2,1.9,0.6s0.7,1,0.7,1.8c0,0.8-0.2,1.4-0.7,1.8
		c-0.4,0.4-1.1,0.7-1.9,0.7c-0.8,0-1.5-0.2-1.9-0.7C124.9,118.4,124.6,117.8,124.6,117z"/>
	<path d="M151.1,119.1h-4.5v-17.6h-7.9v17.6h-4.5V97.7h16.9V119.1z"/>
</g>
</svg>
