<?xml version="1.0" encoding="utf-8"?>
<!-- Generator: Adobe Illustrator 26.0.1, SVG Export Plug-In . SVG Version: 6.00 Build 0)  -->
<svg version="1.1" id="Component_75_1" xmlns="http://www.w3.org/2000/svg" xmlns:xlink="http://www.w3.org/1999/xlink" x="0px"
	 y="0px" viewBox="0 0 228.7 300.8" style="enable-background:new 0 0 228.7 300.8;" xml:space="preserve">
<style type="text/css">
	.st0{opacity:0.6;fill:#45B838;enable-background:new    ;}
	.st1{enable-background:new    ;}
</style>
<path id="Path_83209" class="st0" d="M100.5,124.1l103.7,49.1l24.5,127.6L164.1,273L100.5,124.1z"/>
<g class="st1">
	<path d="M20.7,24.1c4.7,0,8.5,1.1,11.4,3.2c2.9,2.1,4.3,5,4.3,8.7c0,2.5-0.7,4.8-2.1,6.7c-1.4,2-3.6,3.7-6.7,5.3
		c3.7,2,6.3,4,7.9,6.2s2.4,4.5,2.4,7.1c0,4-1.6,7.3-4.8,9.8c-3.2,2.5-7.3,3.7-12.5,3.7c-5.4,0-9.6-1.1-12.7-3.4
		c-3.1-2.3-4.6-5.5-4.6-9.7c0-2.8,0.7-5.3,2.2-7.5s3.9-4.1,7.2-5.8c-2.8-1.8-4.8-3.7-6.1-5.7c-1.2-2-1.9-4.2-1.9-6.6
		c0-3.5,1.5-6.4,4.4-8.6C12.2,25.2,16,24.1,20.7,24.1z M13.1,60.9c0,1.9,0.7,3.4,2,4.5s3.2,1.6,5.5,1.6c2.6,0,4.5-0.6,5.8-1.7
		c1.3-1.1,1.9-2.6,1.9-4.4c0-1.5-0.6-2.9-1.9-4.2c-1.3-1.3-3.3-2.7-6.2-4.2C15.5,54.7,13.1,57.5,13.1,60.9z M20.7,31.7
		c-1.8,0-3.2,0.5-4.3,1.4c-1.1,0.9-1.6,2.1-1.6,3.7c0,1.3,0.4,2.6,1.3,3.6s2.4,2.2,4.7,3.3c2.2-1,3.7-2.1,4.6-3.2s1.3-2.3,1.3-3.7
		c0-1.5-0.6-2.8-1.7-3.7C23.9,32.2,22.4,31.7,20.7,31.7z"/>
	<path d="M48,74l18.5-40.4H42.2v-8.8h35.3v6.5L58.9,74H48z"/>
	<path d="M83.7,69.2c0-1.9,0.5-3.3,1.5-4.3s2.5-1.4,4.4-1.4c1.9,0,3.3,0.5,4.3,1.5c1,1,1.5,2.4,1.5,4.2c0,1.8-0.5,3.2-1.5,4.2
		c-1,1-2.5,1.5-4.3,1.5c-1.9,0-3.3-0.5-4.4-1.5C84.2,72.4,83.7,71,83.7,69.2z"/>
	<path d="M134.7,35.8c0,3.1-0.9,5.7-2.8,7.9s-4.5,3.6-7.9,4.4v0.2c4,0.5,7,1.7,9,3.6c2,1.9,3.1,4.5,3.1,7.8c0,4.7-1.7,8.4-5.2,11.1
		c-3.4,2.6-8.3,4-14.7,4c-5.3,0-10.1-0.9-14.2-2.7v-8.9c1.9,1,4,1.8,6.3,2.4s4.6,0.9,6.8,0.9c3.4,0,6-0.6,7.6-1.8
		c1.6-1.2,2.5-3,2.5-5.6c0-2.3-0.9-4-2.8-4.9s-4.9-1.4-9-1.4h-3.7v-8h3.8c3.8,0,6.6-0.5,8.4-1.5s2.6-2.7,2.6-5.1
		c0-3.7-2.3-5.6-7-5.6c-1.6,0-3.3,0.3-4.9,0.8s-3.5,1.5-5.6,2.8l-4.8-7.2c4.5-3.2,9.8-4.9,16.1-4.9c5.1,0,9.1,1,12.1,3.1
		C133.2,29.2,134.7,32.1,134.7,35.8z"/>
	<path d="M164.4,39.4c0,5.2-1,9-3,11.6c-2,2.6-4.9,3.9-8.8,3.9c-3.7,0-6.6-1.3-8.6-4c-2-2.7-3-6.5-3-11.5c0-10.3,3.9-15.4,11.6-15.4
		c3.8,0,6.7,1.3,8.7,4C163.4,30.7,164.4,34.5,164.4,39.4z M149.4,39.5c0,2.9,0.3,5,0.8,6.4c0.5,1.4,1.3,2.1,2.4,2.1
		c2.2,0,3.2-2.8,3.2-8.5c0-5.6-1.1-8.4-3.2-8.4c-1.1,0-1.9,0.7-2.4,2.1C149.7,34.5,149.4,36.6,149.4,39.5z M187.5,24.7L160.2,74
		h-8.1l27.3-49.3H187.5z M198.9,59.1c0,5.1-1,9-3,11.6c-2,2.6-4.9,3.9-8.8,3.9c-3.7,0-6.6-1.3-8.6-4c-2-2.7-3-6.5-3-11.5
		c0-10.3,3.9-15.4,11.6-15.4c3.8,0,6.7,1.3,8.7,4C197.9,50.4,198.9,54.2,198.9,59.1z M183.9,59.2c0,2.9,0.3,5,0.8,6.4
		c0.5,1.4,1.3,2.1,2.4,2.1c2.2,0,3.2-2.8,3.2-8.5c0-5.6-1.1-8.4-3.2-8.4c-1.1,0-1.9,0.7-2.4,2.1C184.2,54.2,183.9,56.3,183.9,59.2z"
		/>
</g>
<g class="st1">
	<path d="M7,110.1H1.3v-3.2H7v-5.7h3.2v5.7h5.7v3.2h-5.7v5.6H7V110.1z"/>
	<path d="M33.2,108.4c0,3.7-0.6,6.5-1.8,8.3s-3.1,2.7-5.7,2.7c-2.5,0-4.3-0.9-5.6-2.8s-1.9-4.6-1.9-8.2c0-3.8,0.6-6.6,1.8-8.4
		s3.1-2.7,5.6-2.7c2.5,0,4.3,0.9,5.6,2.8S33.2,104.8,33.2,108.4z M22.7,108.4c0,2.6,0.2,4.5,0.7,5.6s1.2,1.7,2.3,1.7
		c1.1,0,1.8-0.6,2.3-1.7s0.7-3,0.7-5.6c0-2.6-0.2-4.5-0.7-5.7s-1.2-1.7-2.3-1.7c-1.1,0-1.8,0.6-2.3,1.7S22.7,105.8,22.7,108.4z"/>
	<path d="M36,117c0-0.8,0.2-1.4,0.7-1.9s1.1-0.6,1.9-0.6c0.8,0,1.4,0.2,1.9,0.6s0.7,1,0.7,1.8c0,0.8-0.2,1.4-0.7,1.8
		c-0.4,0.4-1.1,0.7-1.9,0.7c-0.8,0-1.5-0.2-1.9-0.7C36.2,118.4,36,117.8,36,117z"/>
	<path d="M55.2,119.1h-4.5v-12.4l0-2l0.1-2.2c-0.8,0.8-1.3,1.2-1.6,1.5l-2.5,2l-2.2-2.7l6.9-5.5h3.7V119.1z"/>
	<path d="M87.4,119.1h-4.5v-17.6H75v17.6h-4.5V97.7h16.9V119.1z"/>
	<path d="M91.8,117c0-0.8,0.2-1.4,0.7-1.9s1.1-0.6,1.9-0.6c0.8,0,1.4,0.2,1.9,0.6s0.7,1,0.7,1.8c0,0.8-0.2,1.4-0.7,1.8
		c-0.4,0.4-1.1,0.7-1.9,0.7c-0.8,0-1.5-0.2-1.9-0.7C92,118.4,91.8,117.8,91.8,117z"/>
	<path d="M118.3,119.1h-4.5v-17.6h-7.9v17.6h-4.5V97.7h16.9V119.1z"/>
</g>
</svg>
