<?xml version="1.0" encoding="utf-8"?>
<!-- Generator: Adobe Illustrator 26.0.1, SVG Export Plug-In . SVG Version: 6.00 Build 0)  -->
<svg version="1.1" id="Component_123_1" xmlns="http://www.w3.org/2000/svg" xmlns:xlink="http://www.w3.org/1999/xlink" x="0px"
	 y="0px" viewBox="0 0 161.3 241.6" style="enable-background:new 0 0 161.3 241.6;" xml:space="preserve">
<style type="text/css">
	.st0{enable-background:new    ;}
	.st1{opacity:0.6;fill:#45B838;enable-background:new    ;}
</style>
<g class="st0">
	<path d="M35.6,35.8c0,3.1-0.9,5.7-2.8,7.9c-1.9,2.2-4.5,3.6-7.9,4.4v0.2c4,0.5,7,1.7,9,3.6c2,1.9,3.1,4.5,3.1,7.8
		c0,4.7-1.7,8.4-5.2,11.1c-3.4,2.6-8.3,4-14.7,4c-5.3,0-10.1-0.9-14.2-2.7v-8.9c1.9,1,4,1.8,6.3,2.4s4.6,0.9,6.8,0.9
		c3.4,0,6-0.6,7.6-1.8c1.6-1.2,2.5-3,2.5-5.6c0-2.3-0.9-4-2.8-4.9s-4.9-1.4-9-1.4h-3.7v-8h3.8c3.8,0,6.6-0.5,8.4-1.5
		s2.6-2.7,2.6-5.1c0-3.7-2.3-5.6-7-5.6c-1.6,0-3.3,0.3-4.9,0.8s-3.5,1.5-5.6,2.8L3,28.9c4.5-3.2,9.8-4.9,16.1-4.9
		c5.1,0,9.1,1,12.1,3.1C34.1,29.2,35.6,32.1,35.6,35.8z"/>
	<path d="M43.6,69.2c0-1.9,0.5-3.3,1.5-4.3s2.5-1.4,4.4-1.4c1.9,0,3.3,0.5,4.3,1.5c1,1,1.5,2.4,1.5,4.2c0,1.8-0.5,3.2-1.5,4.2
		c-1,1-2.5,1.5-4.3,1.5c-1.9,0-3.3-0.5-4.4-1.5C44.2,72.4,43.6,71,43.6,69.2z"/>
	<path d="M79.1,24.1c4.7,0,8.5,1.1,11.4,3.2c2.9,2.1,4.3,5,4.3,8.7c0,2.5-0.7,4.8-2.1,6.7c-1.4,2-3.6,3.7-6.7,5.3
		c3.7,2,6.3,4,7.9,6.2c1.6,2.1,2.4,4.5,2.4,7.1c0,4-1.6,7.3-4.8,9.8c-3.2,2.5-7.3,3.7-12.5,3.7c-5.4,0-9.6-1.1-12.7-3.4
		c-3.1-2.3-4.6-5.5-4.6-9.7c0-2.8,0.7-5.3,2.2-7.5s3.9-4.1,7.2-5.8c-2.8-1.8-4.8-3.7-6.1-5.7c-1.2-2-1.9-4.2-1.9-6.6
		c0-3.5,1.5-6.4,4.4-8.6C70.6,25.2,74.4,24.1,79.1,24.1z M71.4,60.9c0,1.9,0.7,3.4,2,4.5S76.6,67,79,67c2.6,0,4.5-0.6,5.8-1.7
		c1.3-1.1,1.9-2.6,1.9-4.4c0-1.5-0.6-2.9-1.9-4.2c-1.3-1.3-3.3-2.7-6.2-4.2C73.8,54.7,71.4,57.5,71.4,60.9z M79.1,31.7
		c-1.8,0-3.2,0.5-4.3,1.4c-1.1,0.9-1.6,2.1-1.6,3.7c0,1.3,0.4,2.6,1.3,3.6s2.4,2.2,4.7,3.3c2.2-1,3.7-2.1,4.6-3.2s1.3-2.3,1.3-3.7
		c0-1.5-0.6-2.8-1.7-3.7C82.2,32.2,80.8,31.7,79.1,31.7z"/>
	<path d="M124.3,39.4c0,5.2-1,9-3,11.6c-2,2.6-4.9,3.9-8.8,3.9c-3.7,0-6.6-1.3-8.6-4c-2-2.7-3-6.5-3-11.5c0-10.3,3.9-15.4,11.6-15.4
		c3.8,0,6.7,1.3,8.7,4C123.3,30.7,124.3,34.5,124.3,39.4z M109.4,39.5c0,2.9,0.3,5,0.8,6.4c0.5,1.4,1.3,2.1,2.4,2.1
		c2.2,0,3.2-2.8,3.2-8.5c0-5.6-1.1-8.4-3.2-8.4c-1.1,0-1.9,0.7-2.4,2.1C109.6,34.5,109.4,36.6,109.4,39.5z M147.5,24.7L120.2,74
		h-8.1l27.3-49.3H147.5z M158.8,59.1c0,5.1-1,9-3,11.6c-2,2.6-4.9,3.9-8.8,3.9c-3.7,0-6.6-1.3-8.6-4c-2-2.7-3-6.5-3-11.5
		c0-10.3,3.9-15.4,11.6-15.4c3.8,0,6.7,1.3,8.7,4C157.8,50.4,158.8,54.2,158.8,59.1z M143.9,59.2c0,2.9,0.3,5,0.8,6.4
		c0.5,1.4,1.3,2.1,2.4,2.1c2.2,0,3.2-2.8,3.2-8.5c0-5.6-1.1-8.4-3.2-8.4c-1.1,0-1.9,0.7-2.4,2.1C144.1,54.2,143.9,56.3,143.9,59.2z"
		/>
</g>
<path id="Path_84404" class="st1" d="M37.2,140.1l21,58l34.5-22.2l33.9,18.1l-68.3,47.6l-24.5-20L0,144.6L37.2,140.1z"/>
<g class="st0">
	<path d="M1.2,112.9v-3.7h7.9v3.7H1.2z"/>
	<path d="M26,108.4c0,3.7-0.6,6.5-1.8,8.3s-3.1,2.7-5.7,2.7c-2.5,0-4.3-0.9-5.6-2.8s-1.9-4.6-1.9-8.2c0-3.8,0.6-6.6,1.8-8.4
		s3.1-2.7,5.6-2.7c2.5,0,4.3,0.9,5.6,2.8S26,104.8,26,108.4z M15.6,108.4c0,2.6,0.2,4.5,0.7,5.6s1.2,1.7,2.3,1.7
		c1.1,0,1.8-0.6,2.3-1.7s0.7-3,0.7-5.6c0-2.6-0.2-4.5-0.7-5.7s-1.2-1.7-2.3-1.7c-1.1,0-1.8,0.6-2.3,1.7S15.6,105.8,15.6,108.4z"/>
	<path d="M28.8,117c0-0.8,0.2-1.4,0.7-1.9s1.1-0.6,1.9-0.6c0.8,0,1.4,0.2,1.9,0.6s0.7,1,0.7,1.8c0,0.8-0.2,1.4-0.7,1.8
		c-0.4,0.4-1.1,0.7-1.9,0.7c-0.8,0-1.5-0.2-1.9-0.7C29,118.4,28.8,117.8,28.8,117z"/>
	<path d="M36.7,110c0-4.2,0.9-7.4,2.7-9.5s4.5-3.1,8-3.1c1.2,0,2.2,0.1,2.9,0.2v3.6c-0.9-0.2-1.7-0.3-2.6-0.3
		c-1.6,0-2.8,0.2-3.8,0.7s-1.7,1.2-2.2,2.1s-0.8,2.2-0.9,3.9h0.2c1-1.7,2.5-2.5,4.6-2.5c1.9,0,3.4,0.6,4.5,1.8s1.6,2.9,1.6,5
		c0,2.3-0.6,4.1-1.9,5.4c-1.3,1.3-3.1,2-5.4,2c-1.6,0-3-0.4-4.1-1.1s-2.1-1.8-2.7-3.2S36.7,112,36.7,110z M44.4,115.8
		c1,0,1.7-0.3,2.2-1s0.8-1.6,0.8-2.8c0-1-0.2-1.9-0.7-2.5c-0.5-0.6-1.2-0.9-2.2-0.9c-0.9,0-1.7,0.3-2.4,0.9s-1,1.3-1,2.1
		c0,1.2,0.3,2.1,0.9,2.9S43.5,115.8,44.4,115.8z"/>
	<path d="M80.2,119.1h-4.5v-17.6h-7.9v17.6h-4.5V97.7h16.9V119.1z"/>
	<path d="M84.6,117c0-0.8,0.2-1.4,0.7-1.9s1.1-0.6,1.9-0.6c0.8,0,1.4,0.2,1.9,0.6s0.7,1,0.7,1.8c0,0.8-0.2,1.4-0.7,1.8
		c-0.4,0.4-1.1,0.7-1.9,0.7c-0.8,0-1.5-0.2-1.9-0.7C84.9,118.4,84.6,117.8,84.6,117z"/>
	<path d="M111.1,119.1h-4.5v-17.6h-7.9v17.6h-4.5V97.7h16.9V119.1z"/>
</g>
</svg>
