<?xml version="1.0" encoding="utf-8"?>
<!-- Generator: Adobe Illustrator 26.0.1, SVG Export Plug-In . SVG Version: 6.00 Build 0)  -->
<svg version="1.1" id="Component_123_1" xmlns="http://www.w3.org/2000/svg" xmlns:xlink="http://www.w3.org/1999/xlink" x="0px"
	 y="0px" viewBox="0 0 278 222.4" style="enable-background:new 0 0 278 222.4;" xml:space="preserve">
<style type="text/css">
	.st0{enable-background:new    ;}
	.st1{opacity:0.4;fill:#45B838;enable-background:new    ;}
</style>
<g class="st0">
	<path d="M18.5,28.2h6.7V10.6h4.5V32H2.7V10.6h4.5v17.6h6.7V10.6h4.6V28.2z"/>
	<path d="M47.4,32H35V10.6h12.3v3.7h-7.8V19h7.3v3.7h-7.3v5.5h7.8V32z"/>
	<path d="M68.8,32h-4.5V14.4H59l-0.2,2c-0.6,5-1.1,8.5-1.6,10.5c-0.5,2-1.1,3.4-2,4.3s-2.1,1.2-3.6,1.2c-0.8,0-1.5-0.1-2.2-0.3v-3.7
		c0.6,0.2,1.1,0.3,1.6,0.3c0.5,0,0.9-0.2,1.2-0.7c0.3-0.5,0.6-1.4,0.9-2.6c0.3-1.3,0.6-3.4,1.1-6.3s0.8-5.7,1.1-8.3h13.5V32z"/>
	<path d="M89.3,25.3c0,4.5-2.9,6.7-8.8,6.7h-6.2V10.6h4.5v8.2h1.8c2.8,0,5,0.6,6.5,1.7S89.3,23.2,89.3,25.3z M78.7,28.3h1.5
		c1.5,0,2.7-0.2,3.4-0.7c0.7-0.5,1.1-1.2,1.1-2.2c0-1-0.4-1.7-1.1-2.1c-0.7-0.4-2-0.7-3.7-0.7h-1.2V28.3z"/>
	<path d="M101.5,32.3V29h-0.3c-1.8,0-3.4-0.3-4.8-1c-1.4-0.6-2.4-1.6-3.2-2.9S92,22.5,92,20.9c0-1.5,0.3-2.9,1-4.1
		c0.7-1.2,1.7-2.2,3-2.9c1.3-0.7,2.9-1,4.7-1h0.8v-2.6h4.1v2.6h0.8c1.8,0,3.3,0.3,4.6,1c1.3,0.7,2.3,1.6,3,2.9
		c0.7,1.2,1.1,2.6,1.1,4.1c0,1.6-0.4,3-1.2,4.3s-1.9,2.2-3.2,2.9c-1.4,0.6-3,1-4.8,1h-0.3v3.3H101.5z M101.5,16.5h-0.6
		c-1.4,0-2.6,0.4-3.4,1.2s-1.2,1.9-1.2,3.2c0,1.4,0.4,2.5,1.3,3.4s2.1,1.3,3.7,1.3h0.2V16.5z M105.6,25.5h0.2c1.6,0,2.8-0.4,3.7-1.2
		c0.9-0.8,1.3-2,1.3-3.4c0-1.3-0.4-2.4-1.2-3.2c-0.8-0.8-2-1.2-3.4-1.2h-0.6V25.5z"/>
	<path d="M143.4,32h-4.5v-8.3c-1.5,0.5-2.8,0.9-3.8,1s-2,0.3-2.9,0.3c-2,0-3.6-0.5-4.7-1.5c-1.1-1-1.7-2.4-1.7-4.1v-8.8h4.5v7.6
		c0,1,0.2,1.8,0.7,2.3c0.5,0.5,1.3,0.8,2.4,0.8c0.8,0,1.6-0.1,2.4-0.2c0.8-0.2,1.8-0.4,2.9-0.8v-9.6h4.5V32z"/>
	<path d="M161.1,32h-12.3V10.6h12.3v3.7h-7.8V19h7.3v3.7h-7.3v5.5h7.8V32z"/>
	<path d="M180.4,17.3c0,2.3-0.7,4.1-2.2,5.3c-1.4,1.2-3.5,1.8-6.1,1.8h-1.9V32h-4.5V10.6h6.8c2.6,0,4.6,0.6,5.9,1.7
		C179.7,13.4,180.4,15,180.4,17.3z M170.1,20.7h1.5c1.4,0,2.4-0.3,3.1-0.8c0.7-0.6,1-1.4,1-2.4c0-1.1-0.3-1.9-0.9-2.4
		c-0.6-0.5-1.5-0.8-2.7-0.8h-2.1V20.7z"/>
	<path d="M202,32h-4.5v-9.2H189V32h-4.5V10.6h4.5V19h8.5v-8.4h4.5V32z"/>
	<path d="M226.8,21.3c0,3.5-0.9,6.3-2.6,8.2s-4.3,2.9-7.6,2.9s-5.8-1-7.6-2.9s-2.6-4.6-2.6-8.2s0.9-6.3,2.6-8.2
		c1.8-1.9,4.3-2.8,7.6-2.8s5.8,0.9,7.6,2.8C225.9,15,226.8,17.7,226.8,21.3z M211.2,21.3c0,2.4,0.5,4.2,1.4,5.4s2.3,1.8,4.1,1.8
		c3.6,0,5.4-2.4,5.4-7.2c0-4.8-1.8-7.2-5.4-7.2c-1.8,0-3.2,0.6-4.1,1.8C211.6,17.1,211.2,18.9,211.2,21.3z"/>
	<path d="M244.8,10.6v3.8h-9V32h-4.5V10.6H244.8z"/>
	<path d="M267.5,21.3c0,3.5-0.9,6.3-2.6,8.2s-4.3,2.9-7.6,2.9s-5.8-1-7.6-2.9s-2.6-4.6-2.6-8.2s0.9-6.3,2.6-8.2
		c1.8-1.9,4.3-2.8,7.6-2.8s5.8,0.9,7.6,2.8C266.6,15,267.5,17.7,267.5,21.3z M251.9,21.3c0,2.4,0.5,4.2,1.4,5.4s2.3,1.8,4.1,1.8
		c3.6,0,5.4-2.4,5.4-7.2c0-4.8-1.8-7.2-5.4-7.2c-1.8,0-3.2,0.6-4.1,1.8C252.3,17.1,251.9,18.9,251.9,21.3z"/>
</g>
<g class="st0">
	<path d="M2.7,45.6h4.1v10.3l-0.1,2.8l-0.1,3.1h0.1l9.9-16.3H22V67h-4V56.7c0-1.4,0.1-3.4,0.3-6.1h-0.1L8.2,67H2.7V45.6z"/>
	<path d="M48.3,67l-1.6-5.1h-7.8L37.4,67h-4.9L40,45.5h5.6L53.2,67H48.3z M45.7,58.1c-1.4-4.6-2.2-7.2-2.4-7.8s-0.3-1.1-0.4-1.4
		c-0.3,1.2-1.2,4.3-2.8,9.3H45.7z"/>
	<path d="M70.7,50.6c0,1.4-0.5,2.5-1.5,3.4s-2.3,1.5-4,1.7v0.1c2,0.2,3.5,0.7,4.5,1.6s1.6,2,1.6,3.5c0,2-0.8,3.5-2.4,4.7
		s-3.8,1.7-6.6,1.7c-3.1,0-5.7-0.4-7.6-1.2v-3.8c0.9,0.4,2,0.8,3.2,1c1.2,0.2,2.4,0.4,3.5,0.4c3.6,0,5.4-1,5.4-3.1
		c0-0.9-0.6-1.7-1.7-2.2s-2.9-0.8-5.1-0.8h-2v-3.5h1.8c2.3,0,3.9-0.2,5-0.6s1.6-1.1,1.6-2.1c0-0.7-0.3-1.3-1-1.8
		c-0.6-0.4-1.6-0.7-2.9-0.7c-2,0-4,0.6-5.8,1.7l-2-3c1.2-0.8,2.5-1.4,3.9-1.8c1.4-0.4,2.9-0.6,4.6-0.6c2.3,0,4.2,0.5,5.6,1.5
		S70.7,49,70.7,50.6z"/>
	<path d="M94.8,56.3c0,3.5-0.9,6.3-2.6,8.2s-4.3,2.9-7.6,2.9s-5.8-1-7.6-2.9s-2.6-4.6-2.6-8.2s0.9-6.3,2.6-8.2
		c1.8-1.9,4.3-2.8,7.6-2.8s5.8,0.9,7.6,2.8S94.8,52.7,94.8,56.3z M79.1,56.3c0,2.4,0.5,4.2,1.4,5.4s2.3,1.8,4.1,1.8
		c3.6,0,5.4-2.4,5.4-7.2c0-4.8-1.8-7.2-5.4-7.2c-1.8,0-3.2,0.6-4.1,1.8C79.6,52.1,79.1,53.9,79.1,56.3z"/>
	<path d="M99.2,45.6h6.7c3,0,5.2,0.4,6.6,1.3c1.4,0.9,2.1,2.2,2.1,4.1c0,1.3-0.3,2.3-0.9,3.1s-1.4,1.3-2.4,1.5v0.1
		c1.4,0.3,2.3,0.9,2.9,1.7s0.9,1.9,0.9,3.3c0,2-0.7,3.5-2.1,4.6s-3.3,1.6-5.7,1.6h-8V45.6z M103.7,54.1h2.6c1.2,0,2.1-0.2,2.7-0.6
		s0.8-1,0.8-1.9c0-0.8-0.3-1.4-0.9-1.8s-1.6-0.5-2.8-0.5h-2.4V54.1z M103.7,57.7v5.6h3c1.2,0,2.2-0.2,2.8-0.7s0.9-1.2,0.9-2.2
		c0-1.8-1.3-2.7-3.8-2.7H103.7z"/>
	<path d="M128.5,49.1c-1.7,0-3,0.6-4,1.9s-1.4,3.1-1.4,5.4c0,4.8,1.8,7.2,5.4,7.2c1.5,0,3.3-0.4,5.5-1.1v3.8
		c-1.8,0.7-3.7,1.1-5.9,1.1c-3.1,0-5.5-0.9-7.1-2.8c-1.7-1.9-2.5-4.6-2.5-8.1c0-2.2,0.4-4.2,1.2-5.9c0.8-1.7,2-3,3.5-3.9
		c1.5-0.9,3.3-1.3,5.3-1.3c2.1,0,4.2,0.5,6.3,1.5l-1.5,3.7c-0.8-0.4-1.6-0.7-2.4-1S129.2,49.1,128.5,49.1z"/>
	<path d="M155.9,67h-5.2L143,56.1V67h-4.5V45.6h4.5V56l7.7-10.4h4.8l-7.8,10.3L155.9,67z"/>
	<path d="M178.1,56.3c0,3.5-0.9,6.3-2.6,8.2s-4.3,2.9-7.6,2.9s-5.8-1-7.6-2.9s-2.6-4.6-2.6-8.2s0.9-6.3,2.6-8.2
		c1.8-1.9,4.3-2.8,7.6-2.8s5.8,0.9,7.6,2.8C177.2,50,178.1,52.7,178.1,56.3z M162.4,56.3c0,2.4,0.5,4.2,1.4,5.4s2.3,1.8,4.1,1.8
		c3.6,0,5.4-2.4,5.4-7.2c0-4.8-1.8-7.2-5.4-7.2c-1.8,0-3.2,0.6-4.1,1.8C162.9,52.1,162.4,53.9,162.4,56.3z"/>
	<path d="M196,45.6v3.8h-9V67h-4.5V45.6H196z"/>
	<path d="M218.8,56.3c0,3.5-0.9,6.3-2.6,8.2s-4.3,2.9-7.6,2.9s-5.8-1-7.6-2.9s-2.6-4.6-2.6-8.2s0.9-6.3,2.6-8.2
		c1.8-1.9,4.3-2.8,7.6-2.8s5.8,0.9,7.6,2.8C217.9,50,218.8,52.7,218.8,56.3z M203.1,56.3c0,2.4,0.5,4.2,1.4,5.4s2.3,1.8,4.1,1.8
		c3.6,0,5.4-2.4,5.4-7.2c0-4.8-1.8-7.2-5.4-7.2c-1.8,0-3.2,0.6-4.1,1.8C203.6,52.1,203.1,53.9,203.1,56.3z"/>
</g>
<g class="st0">
	<path d="M11.8,102L6.6,85.2H6.5c0.2,3.4,0.3,5.7,0.3,6.8v10H2.7V80.6h6.2L13.9,97H14l5.4-16.4h6.2V102h-4.2V91.9c0-0.5,0-1,0-1.7
		s0.1-2.3,0.2-5h-0.1L15.9,102H11.8z"/>
	<path d="M50.4,91.3c0,3.5-0.9,6.3-2.6,8.2s-4.3,2.9-7.6,2.9s-5.8-1-7.6-2.9S30,94.8,30,91.2s0.9-6.3,2.6-8.2
		c1.8-1.9,4.3-2.8,7.6-2.8s5.8,0.9,7.6,2.8S50.4,87.7,50.4,91.3z M34.8,91.3c0,2.4,0.5,4.2,1.4,5.4s2.3,1.8,4.1,1.8
		c3.6,0,5.4-2.4,5.4-7.2c0-4.8-1.8-7.2-5.4-7.2c-1.8,0-3.2,0.6-4.1,1.8C35.2,87.1,34.8,88.9,34.8,91.3z"/>
	<path d="M69.7,87.3c0,2.3-0.7,4.1-2.2,5.3s-3.5,1.8-6.1,1.8h-1.9v7.6h-4.5V80.6h6.8c2.6,0,4.6,0.6,5.9,1.7S69.7,85,69.7,87.3z
		 M59.4,90.7h1.5c1.4,0,2.4-0.3,3.1-0.8c0.7-0.6,1-1.4,1-2.4c0-1.1-0.3-1.9-0.9-2.4s-1.5-0.8-2.7-0.8h-2.1V90.7z"/>
	<path d="M80.9,93.8l-5,8.2h-5l6.1-9.4c-1.2-0.5-2.1-1.2-2.8-2.3s-1-2.2-1-3.6c0-2,0.7-3.5,2.1-4.5s3.4-1.6,6-1.6h7V102h-4.5v-8.2
		H80.9z M83.7,84.3h-2.2c-1.2,0-2.1,0.2-2.7,0.6s-1,1.1-1,2.1c0,0.9,0.3,1.7,0.9,2.2s1.6,0.8,2.9,0.8h2.1V84.3z"/>
</g>
<path id="Path_84404" class="st1" d="M61.9,120.9l21,58l34.5-22.2l33.9,18.1l-68.3,47.6l-24.5-20l-33.7-77.1L61.9,120.9z"/>
</svg>
