<?xml version="1.0" encoding="utf-8"?>
<!-- Generator: Adobe Illustrator 26.0.1, SVG Export Plug-In . SVG Version: 6.00 Build 0)  -->
<svg version="1.1" id="Component_64_3" xmlns="http://www.w3.org/2000/svg" xmlns:xlink="http://www.w3.org/1999/xlink" x="0px"
	 y="0px" viewBox="0 0 505.5 658" style="enable-background:new 0 0 505.5 658;" xml:space="preserve">
<style type="text/css">
	.st0{opacity:0.6;fill:#3F68EB;enable-background:new    ;}
	.st1{enable-background:new    ;}
	.st2{fill:#FFFFFF;}
</style>
<path id="Path_83166" class="st0" d="M50,48.6L412.3,0l93.1,144.8L279,657.9L0,451.5L50,48.6z"/>
<g class="st1">
	<path class="st2" d="M150,133h-12.3v-21.4H150v3.7h-7.8v4.7h7.3v3.7h-7.3v5.5h7.8V133z"/>
	<path class="st2" d="M154.4,111.6h6.7c3,0,5.2,0.4,6.6,1.3c1.4,0.9,2.1,2.2,2.1,4.1c0,1.3-0.3,2.3-0.9,3.1s-1.4,1.3-2.4,1.5v0.1
		c1.4,0.3,2.3,0.9,2.9,1.7s0.9,1.9,0.9,3.3c0,2-0.7,3.5-2.1,4.6s-3.3,1.6-5.7,1.6h-8V111.6z M159,120.1h2.6c1.2,0,2.1-0.2,2.7-0.6
		s0.8-1,0.8-1.9c0-0.8-0.3-1.4-0.9-1.8s-1.6-0.5-2.8-0.5H159V120.1z M159,123.7v5.6h3c1.2,0,2.2-0.2,2.8-0.7s0.9-1.2,0.9-2.2
		c0-1.8-1.3-2.7-3.8-2.7H159z"/>
	<path class="st2" d="M189.4,118.2c0,2.3-0.7,4.1-2.2,5.3s-3.5,1.8-6.1,1.8h-1.9v7.6h-4.5v-21.4h6.8c2.6,0,4.6,0.6,5.9,1.7
		S189.4,116,189.4,118.2z M179.1,121.6h1.5c1.4,0,2.4-0.3,3.1-0.8c0.7-0.6,1-1.4,1-2.4c0-1.1-0.3-1.9-0.9-2.4s-1.5-0.8-2.7-0.8h-2.1
		V121.6z"/>
	<path class="st2" d="M212.9,122.2c0,3.5-0.9,6.3-2.6,8.2s-4.3,2.9-7.6,2.9s-5.8-1-7.6-2.9s-2.6-4.6-2.6-8.2s0.9-6.3,2.6-8.2
		c1.8-1.9,4.3-2.8,7.6-2.8s5.8,0.9,7.6,2.8S212.9,118.7,212.9,122.2z M197.2,122.2c0,2.4,0.5,4.2,1.4,5.4s2.3,1.8,4.1,1.8
		c3.6,0,5.4-2.4,5.4-7.2c0-4.8-1.8-7.2-5.4-7.2c-1.8,0-3.2,0.6-4.1,1.8C197.7,118.1,197.2,119.9,197.2,122.2z"/>
	<path class="st2" d="M234.2,133h-4.5v-17.6h-7.9V133h-4.5v-21.4h16.9V133z"/>
	<path class="st2" d="M252,133h-12.3v-21.4H252v3.7h-7.8v4.7h7.3v3.7h-7.3v5.5h7.8V133z"/>
	<path class="st2" d="M256.4,111.6h4.1v10.3l-0.1,2.8l-0.1,3.1h0.1l9.9-16.3h5.4V133h-4v-10.3c0-1.4,0.1-3.4,0.3-6.1h-0.1l-9.9,16.4
		h-5.5V111.6z M273.2,104.6c-0.2,1.8-0.9,3.2-2.1,4c-1.2,0.8-2.9,1.3-5.2,1.3c-2.3,0-4-0.4-5.1-1.2s-1.7-2.1-1.9-4h4
		c0.1,1,0.3,1.7,0.8,2.1c0.4,0.4,1.2,0.6,2.3,0.6c1,0,1.7-0.2,2.2-0.7c0.5-0.4,0.8-1.1,0.9-2.1H273.2z"/>
	<path class="st2" d="M290.2,115c-1.7,0-3,0.6-4,1.9s-1.4,3.1-1.4,5.4c0,4.8,1.8,7.2,5.4,7.2c1.5,0,3.3-0.4,5.5-1.1v3.8
		c-1.8,0.7-3.7,1.1-5.9,1.1c-3.1,0-5.5-0.9-7.1-2.8c-1.7-1.9-2.5-4.6-2.5-8.1c0-2.2,0.4-4.2,1.2-5.9c0.8-1.7,2-3,3.5-3.9
		c1.5-0.9,3.3-1.3,5.3-1.3c2.1,0,4.2,0.5,6.3,1.5l-1.5,3.7c-0.8-0.4-1.6-0.7-2.4-1S291,115,290.2,115z"/>
	<path class="st2" d="M317.7,133h-5.2l-7.8-10.9V133h-4.5v-21.4h4.5v10.4l7.7-10.4h4.8l-7.8,10.3L317.7,133z"/>
	<path class="st2" d="M333.5,133l-1.6-5.1h-7.8l-1.6,5.1h-4.9l7.6-21.5h5.6l7.6,21.5H333.5z M330.9,124.1c-1.4-4.6-2.2-7.2-2.4-7.8
		s-0.3-1.1-0.4-1.4c-0.3,1.2-1.2,4.3-2.8,9.3H330.9z"/>
	<path class="st2" d="M348.3,124.8l-5,8.2h-5l6.1-9.4c-1.2-0.5-2.1-1.2-2.8-2.3s-1-2.2-1-3.6c0-2,0.7-3.5,2.1-4.5s3.4-1.6,6-1.6h7
		V133h-4.5v-8.2H348.3z M351.1,115.3h-2.2c-1.2,0-2.1,0.2-2.7,0.6s-1,1.1-1,2.1c0,0.9,0.3,1.7,0.9,2.2s1.6,0.8,2.9,0.8h2.1V115.3z"
		/>
</g>
<g class="st1">
	<path class="st2" d="M154.1,168h-4.5v-8.3c-1.5,0.5-2.8,0.9-3.8,1s-2,0.3-2.9,0.3c-2,0-3.6-0.5-4.7-1.5c-1.1-1-1.7-2.4-1.7-4.1
		v-8.8h4.5v7.6c0,1,0.2,1.8,0.7,2.3c0.5,0.5,1.3,0.8,2.4,0.8c0.8,0,1.6-0.1,2.4-0.2c0.8-0.2,1.8-0.4,2.9-0.8v-9.6h4.5V168z"/>
	<path class="st2" d="M172.6,168l-1.6-5.1h-7.8l-1.6,5.1h-4.9l7.6-21.5h5.6l7.6,21.5H172.6z M169.9,159.1c-1.4-4.6-2.2-7.2-2.4-7.8
		s-0.3-1.1-0.4-1.4c-0.3,1.2-1.2,4.3-2.8,9.3H169.9z"/>
	<path class="st2" d="M189.3,150c-1.7,0-3,0.6-4,1.9s-1.4,3.1-1.4,5.4c0,4.8,1.8,7.2,5.4,7.2c1.5,0,3.3-0.4,5.5-1.1v3.8
		c-1.8,0.7-3.7,1.1-5.9,1.1c-3.1,0-5.5-0.9-7.1-2.8c-1.7-1.9-2.5-4.6-2.5-8.1c0-2.2,0.4-4.2,1.2-5.9c0.8-1.7,2-3,3.5-3.9
		c1.5-0.9,3.3-1.3,5.3-1.3c2.1,0,4.2,0.5,6.3,1.5l-1.5,3.7c-0.8-0.4-1.6-0.7-2.4-1S190,150,189.3,150z"/>
	<path class="st2" d="M207.5,168H203v-17.6h-5.8v-3.8h16.2v3.8h-5.8V168z"/>
	<path class="st2" d="M231.7,161.3c0,4.5-2.9,6.7-8.8,6.7h-6.2v-21.4h4.5v8.2h1.8c2.8,0,5,0.6,6.5,1.7S231.7,159.2,231.7,161.3z
		 M221.2,164.3h1.5c1.5,0,2.7-0.2,3.4-0.7c0.7-0.5,1.1-1.2,1.1-2.2c0-1-0.4-1.7-1.1-2.1c-0.7-0.4-2-0.7-3.7-0.7h-1.2V164.3z"/>
</g>
<g class="st1">
	<path class="st2" d="M152.4,188.2c0,2.3-0.7,4.1-2.2,5.3s-3.5,1.8-6.1,1.8h-1.9v7.6h-4.5v-21.4h6.8c2.6,0,4.6,0.6,5.9,1.7
		S152.4,186,152.4,188.2z M142.2,191.6h1.5c1.4,0,2.4-0.3,3.1-0.8c0.7-0.6,1-1.4,1-2.4c0-1.1-0.3-1.9-0.9-2.4s-1.5-0.8-2.7-0.8h-2.1
		V191.6z"/>
	<path class="st2" d="M175.9,192.2c0,3.5-0.9,6.3-2.6,8.2s-4.3,2.9-7.6,2.9s-5.8-1-7.6-2.9s-2.6-4.6-2.6-8.2s0.9-6.3,2.6-8.2
		c1.8-1.9,4.3-2.8,7.6-2.8s5.8,0.9,7.6,2.8S175.9,188.7,175.9,192.2z M160.3,192.2c0,2.4,0.5,4.2,1.4,5.4s2.3,1.8,4.1,1.8
		c3.6,0,5.4-2.4,5.4-7.2c0-4.8-1.8-7.2-5.4-7.2c-1.8,0-3.2,0.6-4.1,1.8C160.7,188.1,160.3,189.9,160.3,192.2z"/>
	<path class="st2" d="M189.4,185c-1.7,0-3,0.6-4,1.9s-1.4,3.1-1.4,5.4c0,4.8,1.8,7.2,5.4,7.2c1.5,0,3.3-0.4,5.5-1.1v3.8
		c-1.8,0.7-3.7,1.1-5.9,1.1c-3.1,0-5.5-0.9-7.1-2.8c-1.7-1.9-2.5-4.6-2.5-8.1c0-2.2,0.4-4.2,1.2-5.9c0.8-1.7,2-3,3.5-3.9
		c1.5-0.9,3.3-1.3,5.3-1.3c2.1,0,4.2,0.5,6.3,1.5l-1.5,3.7c-0.8-0.4-1.6-0.7-2.4-1S190.2,185,189.4,185z"/>
	<path class="st2" d="M208.5,185c-1.7,0-3,0.6-4,1.9s-1.4,3.1-1.4,5.4c0,4.8,1.8,7.2,5.4,7.2c1.5,0,3.3-0.4,5.5-1.1v3.8
		c-1.8,0.7-3.7,1.1-5.9,1.1c-3.1,0-5.5-0.9-7.1-2.8c-1.7-1.9-2.5-4.6-2.5-8.1c0-2.2,0.4-4.2,1.2-5.9c0.8-1.7,2-3,3.5-3.9
		c1.5-0.9,3.3-1.3,5.3-1.3c2.1,0,4.2,0.5,6.3,1.5l-1.5,3.7c-0.8-0.4-1.6-0.7-2.4-1S209.3,185,208.5,185z"/>
	<path class="st2" d="M218.6,181.6h4.1v10.3l-0.1,2.8l-0.1,3.1h0.1l9.9-16.3h5.4V203h-4v-10.3c0-1.4,0.1-3.4,0.3-6.1H234L224,203
		h-5.5V181.6z"/>
	<path class="st2" d="M243.3,181.6h4.1v10.3l-0.1,2.8l-0.1,3.1h0.1l9.9-16.3h5.4V203h-4v-10.3c0-1.4,0.1-3.4,0.3-6.1h-0.1l-9.9,16.4
		h-5.5V181.6z"/>
</g>
<g class="st1">
	<path class="st2" d="M137.3,283.3c0-9.7,2.1-17,6.2-21.8c4.1-4.8,10.3-7.1,18.5-7.1c2.8,0,5,0.2,6.6,0.5v8.3c-2-0.4-4-0.7-5.9-0.7
		c-3.6,0-6.5,0.5-8.7,1.6c-2.3,1.1-3.9,2.7-5.1,4.8c-1.1,2.1-1.8,5.1-2,9h0.4c2.2-3.8,5.8-5.7,10.7-5.7c4.4,0,7.9,1.4,10.3,4.1
		c2.5,2.8,3.7,6.6,3.7,11.5c0,5.3-1.5,9.4-4.4,12.5c-3,3.1-7.1,4.6-12.3,4.6c-3.6,0-6.8-0.8-9.5-2.5c-2.7-1.7-4.8-4.1-6.3-7.4
		C138.1,291.7,137.3,287.9,137.3,283.3z M155.1,296.6c2.2,0,3.9-0.7,5.1-2.2c1.2-1.5,1.8-3.6,1.8-6.4c0-2.4-0.6-4.3-1.7-5.7
		c-1.1-1.4-2.8-2.1-5-2.1c-2.1,0-3.9,0.7-5.4,2.1c-1.5,1.4-2.2,3-2.2,4.8c0,2.7,0.7,4.9,2.1,6.8C151.2,295.6,153,296.6,155.1,296.6z
		"/>
	<path class="st2" d="M178.3,299.4c0-1.9,0.5-3.3,1.5-4.3s2.5-1.4,4.4-1.4c1.9,0,3.3,0.5,4.3,1.5c1,1,1.5,2.4,1.5,4.2
		c0,1.8-0.5,3.2-1.5,4.2c-1,1-2.5,1.5-4.3,1.5c-1.9,0-3.3-0.5-4.4-1.5C178.8,302.6,178.3,301.2,178.3,299.4z"/>
	<path class="st2" d="M214.7,272.7c4.8,0,8.6,1.3,11.4,4c2.8,2.7,4.2,6.3,4.2,11c0,5.5-1.7,9.7-5.1,12.7c-3.4,3-8.2,4.4-14.6,4.4
		c-5.5,0-9.9-0.9-13.3-2.7v-9c1.8,0.9,3.8,1.7,6.2,2.3c2.4,0.6,4.6,0.9,6.7,0.9c6.4,0,9.5-2.6,9.5-7.8c0-5-3.3-7.4-9.9-7.4
		c-1.2,0-2.5,0.1-3.9,0.4c-1.4,0.2-2.6,0.5-3.5,0.8l-4.1-2.2l1.9-25.1h26.7v8.8h-17.6l-0.9,9.7l1.2-0.2
		C211,272.9,212.6,272.7,214.7,272.7z"/>
	<path class="st2" d="M258.9,269.6c0,5.2-1,9-3,11.6c-2,2.6-4.9,3.9-8.8,3.9c-3.7,0-6.6-1.3-8.6-4c-2-2.7-3-6.5-3-11.5
		c0-10.3,3.9-15.4,11.6-15.4c3.8,0,6.7,1.3,8.7,4C257.9,260.9,258.9,264.7,258.9,269.6z M244,269.7c0,2.9,0.3,5,0.8,6.4
		c0.5,1.4,1.3,2.1,2.4,2.1c2.2,0,3.2-2.8,3.2-8.5c0-5.6-1.1-8.4-3.2-8.4c-1.1,0-1.9,0.7-2.4,2.1C244.2,264.7,244,266.9,244,269.7z
		 M282.1,255l-27.3,49.3h-8.1L274,255H282.1z M293.4,289.3c0,5.1-1,9-3,11.6c-2,2.6-4.9,3.9-8.8,3.9c-3.7,0-6.6-1.3-8.6-4
		c-2-2.7-3-6.5-3-11.5c0-10.3,3.9-15.4,11.6-15.4c3.8,0,6.7,1.3,8.7,4C292.4,280.6,293.4,284.4,293.4,289.3z M278.5,289.4
		c0,2.9,0.3,5,0.8,6.4c0.5,1.4,1.3,2.1,2.4,2.1c2.2,0,3.2-2.8,3.2-8.5c0-5.6-1.1-8.4-3.2-8.4c-1.1,0-1.9,0.7-2.4,2.1
		C278.7,284.4,278.5,286.5,278.5,289.4z"/>
</g>
<g class="st1">
	<path class="st2" d="M141.9,350.3h-5.7v-3.2h5.7v-5.7h3.2v5.7h5.7v3.2h-5.7v5.6h-3.2V350.3z"/>
	<path class="st2" d="M168.1,348.5c0,3.7-0.6,6.5-1.8,8.3s-3.1,2.7-5.7,2.7c-2.5,0-4.3-0.9-5.6-2.8s-1.9-4.6-1.9-8.2
		c0-3.8,0.6-6.6,1.8-8.4s3.1-2.7,5.6-2.7c2.5,0,4.3,0.9,5.6,2.8S168.1,344.9,168.1,348.5z M157.6,348.5c0,2.6,0.2,4.5,0.7,5.6
		s1.2,1.7,2.3,1.7c1.1,0,1.8-0.6,2.3-1.7s0.7-3,0.7-5.6c0-2.6-0.2-4.5-0.7-5.7s-1.2-1.7-2.3-1.7c-1.1,0-1.8,0.6-2.3,1.7
		S157.6,345.9,157.6,348.5z"/>
	<path class="st2" d="M170.9,357.2c0-0.8,0.2-1.4,0.7-1.9s1.1-0.6,1.9-0.6c0.8,0,1.4,0.2,1.9,0.6s0.7,1,0.7,1.8
		c0,0.8-0.2,1.4-0.7,1.8c-0.4,0.4-1.1,0.7-1.9,0.7c-0.8,0-1.5-0.2-1.9-0.7C171.1,358.6,170.9,358,170.9,357.2z"/>
	<path class="st2" d="M193.9,359.3h-15v-3.1l5.4-5.4c1.6-1.6,2.6-2.8,3.1-3.4c0.5-0.6,0.8-1.2,1.1-1.8s0.3-1.1,0.3-1.7
		c0-0.9-0.2-1.5-0.7-1.9s-1.1-0.6-1.9-0.6c-0.8,0-1.6,0.2-2.4,0.6s-1.6,0.9-2.4,1.6l-2.5-2.9c1.1-0.9,1.9-1.5,2.6-1.9
		s1.5-0.7,2.3-0.9c0.8-0.2,1.7-0.3,2.8-0.3c1.3,0,2.5,0.2,3.5,0.7s1.8,1.2,2.4,2.1s0.8,1.9,0.8,3c0,1-0.2,1.9-0.5,2.8
		c-0.3,0.9-0.9,1.8-1.6,2.7s-2,2.2-3.8,3.9l-2.8,2.6v0.2h9.3V359.3z"/>
	<path class="st2" d="M222.3,359.3h-4.5v-17.6h-7.9v17.6h-4.5v-21.4h16.9V359.3z"/>
	<path class="st2" d="M226.7,357.2c0-0.8,0.2-1.4,0.7-1.9s1.1-0.6,1.9-0.6c0.8,0,1.4,0.2,1.9,0.6s0.7,1,0.7,1.8
		c0,0.8-0.2,1.4-0.7,1.8c-0.4,0.4-1.1,0.7-1.9,0.7c-0.8,0-1.5-0.2-1.9-0.7C226.9,358.6,226.7,358,226.7,357.2z"/>
	<path class="st2" d="M253.2,359.3h-4.5v-17.6h-7.9v17.6h-4.5v-21.4h16.9V359.3z"/>
</g>
</svg>
