<?xml version="1.0" encoding="utf-8"?>
<!-- Generator: Adobe Illustrator 26.0.1, SVG Export Plug-In . SVG Version: 6.00 Build 0)  -->
<svg version="1.1" id="Component_67_1" xmlns="http://www.w3.org/2000/svg" xmlns:xlink="http://www.w3.org/1999/xlink" x="0px"
	 y="0px" viewBox="0 0 782.8 622.7" style="enable-background:new 0 0 782.8 622.7;" xml:space="preserve">
<style type="text/css">
	.st0{opacity:0.6;fill:#F3AE4D;enable-background:new    ;}
	.st1{enable-background:new    ;}
	.st2{fill:#FFFFFF;}
</style>
<path id="Path_83168" class="st0" d="M0,0l560,101.1l222.8,108.4L625.1,622.7l-502.5-26.8L0,0z"/>
<g class="st1">
	<path class="st2" d="M110.3,154.4h6.7c3,0,5.2,0.4,6.6,1.3c1.4,0.9,2.1,2.2,2.1,4.1c0,1.3-0.3,2.3-0.9,3.1s-1.4,1.3-2.4,1.5v0.1
		c1.4,0.3,2.3,0.9,2.9,1.7s0.9,1.9,0.9,3.3c0,2-0.7,3.5-2.1,4.6s-3.3,1.6-5.7,1.6h-8V154.4z M114.9,162.9h2.6c1.2,0,2.1-0.2,2.7-0.6
		s0.8-1,0.8-1.9c0-0.8-0.3-1.4-0.9-1.8s-1.6-0.5-2.8-0.5h-2.4V162.9z M114.9,166.5v5.6h3c1.2,0,2.2-0.2,2.8-0.7s0.9-1.2,0.9-2.2
		c0-1.8-1.3-2.7-3.8-2.7H114.9z"/>
	<path class="st2" d="M149.9,165.1c0,3.5-0.9,6.3-2.6,8.2s-4.3,2.9-7.6,2.9s-5.8-1-7.6-2.9s-2.6-4.6-2.6-8.2s0.9-6.3,2.6-8.2
		c1.8-1.9,4.3-2.8,7.6-2.8s5.8,0.9,7.6,2.8S149.9,161.5,149.9,165.1z M134.3,165.1c0,2.4,0.5,4.2,1.4,5.4s2.3,1.8,4.1,1.8
		c3.6,0,5.4-2.4,5.4-7.2c0-4.8-1.8-7.2-5.4-7.2c-1.8,0-3.2,0.6-4.1,1.8C134.7,160.9,134.3,162.7,134.3,165.1z"/>
	<path class="st2" d="M163.4,157.9c-1.7,0-3,0.6-4,1.9s-1.4,3.1-1.4,5.4c0,4.8,1.8,7.2,5.4,7.2c1.5,0,3.3-0.4,5.5-1.1v3.8
		c-1.8,0.7-3.7,1.1-5.9,1.1c-3.1,0-5.5-0.9-7.1-2.8c-1.7-1.9-2.5-4.6-2.5-8.1c0-2.2,0.4-4.2,1.2-5.9c0.8-1.7,2-3,3.5-3.9
		c1.5-0.9,3.3-1.3,5.3-1.3c2.1,0,4.2,0.5,6.3,1.5l-1.5,3.7c-0.8-0.4-1.6-0.7-2.4-1S164.2,157.9,163.4,157.9z"/>
	<path class="st2" d="M181.7,175.8h-4.5v-17.6h-5.8v-3.8h16.2v3.8h-5.8V175.8z"/>
	<path class="st2" d="M210.3,165.1c0,3.5-0.9,6.3-2.6,8.2s-4.3,2.9-7.6,2.9s-5.8-1-7.6-2.9s-2.6-4.6-2.6-8.2s0.9-6.3,2.6-8.2
		c1.8-1.9,4.3-2.8,7.6-2.8s5.8,0.9,7.6,2.8S210.3,161.5,210.3,165.1z M194.6,165.1c0,2.4,0.5,4.2,1.4,5.4s2.3,1.8,4.1,1.8
		c3.6,0,5.4-2.4,5.4-7.2c0-4.8-1.8-7.2-5.4-7.2c-1.8,0-3.2,0.6-4.1,1.8C195.1,160.9,194.6,162.7,194.6,165.1z"/>
	<path class="st2" d="M231.2,175.8h-4.5v-8.3c-1.5,0.5-2.8,0.9-3.8,1s-2,0.3-2.9,0.3c-2,0-3.6-0.5-4.7-1.5c-1.1-1-1.7-2.4-1.7-4.1
		v-8.8h4.5v7.6c0,1,0.2,1.8,0.7,2.3c0.5,0.5,1.3,0.8,2.4,0.8c0.8,0,1.6-0.1,2.4-0.2c0.8-0.2,1.8-0.4,2.9-0.8v-9.6h4.5V175.8z"/>
	<path class="st2" d="M254.1,175.8h-4.5v-9.2h-8.5v9.2h-4.5v-21.4h4.5v8.4h8.5v-8.4h4.5V175.8z"/>
	<path class="st2" d="M272.6,175.8l-1.6-5.1h-7.8l-1.6,5.1h-4.9l7.6-21.5h5.6l7.6,21.5H272.6z M270,166.9c-1.4-4.6-2.2-7.2-2.4-7.8
		s-0.3-1.1-0.4-1.4c-0.3,1.2-1.2,4.3-2.8,9.3H270z"/>
	<path class="st2" d="M287.4,167.6l-5,8.2h-5l6.1-9.4c-1.2-0.5-2.1-1.2-2.8-2.3s-1-2.2-1-3.6c0-2,0.7-3.5,2.1-4.5s3.4-1.6,6-1.6h7
		v21.4h-4.5v-8.2H287.4z M290.2,158.1H288c-1.2,0-2.1,0.2-2.7,0.6s-1,1.1-1,2.1c0,0.9,0.3,1.7,0.9,2.2s1.6,0.8,2.9,0.8h2.1V158.1z"
		/>
	<path class="st2" d="M317.1,157.9c-1.7,0-3,0.6-4,1.9s-1.4,3.1-1.4,5.4c0,4.8,1.8,7.2,5.4,7.2c1.5,0,3.3-0.4,5.5-1.1v3.8
		c-1.8,0.7-3.7,1.1-5.9,1.1c-3.1,0-5.5-0.9-7.1-2.8c-1.7-1.9-2.5-4.6-2.5-8.1c0-2.2,0.4-4.2,1.2-5.9c0.8-1.7,2-3,3.5-3.9
		c1.5-0.9,3.3-1.3,5.3-1.3c2.1,0,4.2,0.5,6.3,1.5l-1.5,3.7c-0.8-0.4-1.6-0.7-2.4-1S317.8,157.9,317.1,157.9z"/>
	<path class="st2" d="M327.1,154.4h4.1v10.3l-0.1,2.8l-0.1,3.1h0.1l9.9-16.3h5.4v21.4h-4v-10.3c0-1.4,0.1-3.4,0.3-6.1h-0.1
		l-9.9,16.4h-5.5V154.4z"/>
	<path class="st2" d="M356.3,162.6h1.8c2.8,0,5,0.6,6.5,1.7s2.3,2.7,2.3,4.8c0,4.5-2.9,6.7-8.8,6.7h-6.2v-21.4h13.5v3.8h-9V162.6z
		 M356.3,172.1h1.5c1.5,0,2.7-0.2,3.4-0.7c0.7-0.5,1.1-1.2,1.1-2.2c0-1-0.4-1.7-1.1-2.1c-0.7-0.4-2-0.7-3.7-0.7h-1.2V172.1z"/>
	<path class="st2" d="M370.9,154.4h4.1v10.3l-0.1,2.8l-0.1,3.1h0.1l9.9-16.3h5.4v21.4h-4v-10.3c0-1.4,0.1-3.4,0.3-6.1h-0.1
		l-9.9,16.4h-5.5V154.4z"/>
	<path class="st2" d="M410.4,161.1c0,2.3-0.7,4.1-2.2,5.3s-3.5,1.8-6.1,1.8h-1.9v7.6h-4.5v-21.4h6.8c2.6,0,4.6,0.6,5.9,1.7
		S410.4,158.9,410.4,161.1z M400.2,164.5h1.5c1.4,0,2.4-0.3,3.1-0.8c0.7-0.6,1-1.4,1-2.4c0-1.1-0.3-1.9-0.9-2.4s-1.5-0.8-2.7-0.8
		h-2.1V164.5z"/>
	<path class="st2" d="M429.5,169.1c0,4.5-2.9,6.7-8.8,6.7h-6.2v-21.4h4.5v8.2h1.8c2.8,0,5,0.6,6.5,1.7S429.5,167.1,429.5,169.1z
		 M419,172.1h1.5c1.5,0,2.7-0.2,3.4-0.7c0.7-0.5,1.1-1.2,1.1-2.2c0-1-0.4-1.7-1.1-2.1c-0.7-0.4-2-0.7-3.7-0.7H419V172.1z"/>
</g>
<g class="st1">
	<path class="st2" d="M110.3,189.4h4.1v10.3l-0.1,2.8l-0.1,3.1h0.1l9.9-16.3h5.4v21.4h-4v-10.3c0-1.4,0.1-3.4,0.3-6.1h-0.1
		l-9.9,16.4h-5.5V189.4z"/>
	<path class="st2" d="M140.3,207h1.7c1.4-2.8,2.5-5.7,3.4-8.5c0.8-2.8,1.4-5.9,1.8-9.1h12.5V207h2.9v10h-4.4v-6.2h-13.4v6.2h-4.4
		V207z M150.7,193.2c-0.3,2.2-0.8,4.6-1.6,7.1s-1.5,4.8-2.5,6.8h8.4v-13.9H150.7z"/>
	<path class="st2" d="M178.8,210.8l-1.6-5.1h-7.8l-1.6,5.1H163l7.6-21.5h5.6l7.6,21.5H178.8z M176.2,201.9c-1.4-4.6-2.2-7.2-2.4-7.8
		s-0.3-1.1-0.4-1.4c-0.3,1.2-1.2,4.3-2.8,9.3H176.2z"/>
	<path class="st2" d="M203.4,210.8h-4.5v-17.6h-5.2l-0.2,2c-0.6,5-1.1,8.5-1.6,10.5c-0.5,2-1.1,3.4-2,4.3s-2.1,1.2-3.6,1.2
		c-0.8,0-1.5-0.1-2.2-0.3v-3.7c0.6,0.2,1.1,0.3,1.6,0.3c0.5,0,0.9-0.2,1.2-0.7c0.3-0.5,0.6-1.4,0.9-2.6c0.3-1.3,0.6-3.4,1.1-6.3
		s0.8-5.7,1.1-8.3h13.5V210.8z"/>
	<path class="st2" d="M223.9,204.1c0,4.5-2.9,6.7-8.8,6.7h-6.2v-21.4h4.5v8.2h1.8c2.8,0,5,0.6,6.5,1.7S223.9,202.1,223.9,204.1z
		 M213.3,207.1h1.5c1.5,0,2.7-0.2,3.4-0.7c0.7-0.5,1.1-1.2,1.1-2.2c0-1-0.4-1.7-1.1-2.1c-0.7-0.4-2-0.7-3.7-0.7h-1.2V207.1z"/>
	<path class="st2" d="M245.5,210.8H241v-9.2h-8.5v9.2h-4.5v-21.4h4.5v8.4h8.5v-8.4h4.5V210.8z"/>
	<path class="st2" d="M250.9,189.4h4.1v10.3l-0.1,2.8l-0.1,3.1h0.1l9.9-16.3h5.4v21.4h-4v-10.3c0-1.4,0.1-3.4,0.3-6.1h-0.1
		l-9.9,16.4h-5.5V189.4z"/>
	<path class="st2" d="M275.6,189.4h4.1v10.3l-0.1,2.8l-0.1,3.1h0.1l9.9-16.3h5.4v21.4h-4v-10.3c0-1.4,0.1-3.4,0.3-6.1H291l-9.9,16.4
		h-5.5V189.4z M292.3,182.4c-0.2,1.8-0.9,3.2-2.1,4c-1.2,0.8-2.9,1.3-5.2,1.3c-2.3,0-4-0.4-5.1-1.2s-1.7-2.1-1.9-4h4
		c0.1,1,0.3,1.7,0.8,2.1c0.4,0.4,1.2,0.6,2.3,0.6c1,0,1.7-0.2,2.2-0.7c0.5-0.4,0.8-1.1,0.9-2.1H292.3z"/>
	<path class="st2" d="M308.1,189.4h6.7c3,0,5.2,0.4,6.6,1.3c1.4,0.9,2.1,2.2,2.1,4.1c0,1.3-0.3,2.3-0.9,3.1s-1.4,1.3-2.4,1.5v0.1
		c1.4,0.3,2.3,0.9,2.9,1.7s0.9,1.9,0.9,3.3c0,2-0.7,3.5-2.1,4.6s-3.3,1.6-5.7,1.6h-8V189.4z M312.6,197.9h2.6c1.2,0,2.1-0.2,2.7-0.6
		s0.8-1,0.8-1.9c0-0.8-0.3-1.4-0.9-1.8s-1.6-0.5-2.8-0.5h-2.4V197.9z M312.6,201.5v5.6h3c1.2,0,2.2-0.2,2.8-0.7s0.9-1.2,0.9-2.2
		c0-1.8-1.3-2.7-3.8-2.7H312.6z"/>
	<path class="st2" d="M347.7,200.1c0,3.5-0.9,6.3-2.6,8.2s-4.3,2.9-7.6,2.9s-5.8-1-7.6-2.9s-2.6-4.6-2.6-8.2s0.9-6.3,2.6-8.2
		c1.8-1.9,4.3-2.8,7.6-2.8s5.8,0.9,7.6,2.8S347.7,196.5,347.7,200.1z M332,200.1c0,2.4,0.5,4.2,1.4,5.4s2.3,1.8,4.1,1.8
		c3.6,0,5.4-2.4,5.4-7.2c0-4.8-1.8-7.2-5.4-7.2c-1.8,0-3.2,0.6-4.1,1.8C332.5,195.9,332,197.7,332,200.1z"/>
	<path class="st2" d="M361.2,192.9c-1.7,0-3,0.6-4,1.9s-1.4,3.1-1.4,5.4c0,4.8,1.8,7.2,5.4,7.2c1.5,0,3.3-0.4,5.5-1.1v3.8
		c-1.8,0.7-3.7,1.1-5.9,1.1c-3.1,0-5.5-0.9-7.1-2.8c-1.7-1.9-2.5-4.6-2.5-8.1c0-2.2,0.4-4.2,1.2-5.9c0.8-1.7,2-3,3.5-3.9
		c1.5-0.9,3.3-1.3,5.3-1.3c2.1,0,4.2,0.5,6.3,1.5l-1.5,3.7c-0.8-0.4-1.6-0.7-2.4-1S362,192.9,361.2,192.9z"/>
	<path class="st2" d="M379.5,210.8h-4.5v-17.6h-5.8v-3.8h16.2v3.8h-5.8V210.8z"/>
	<path class="st2" d="M408,200.1c0,3.5-0.9,6.3-2.6,8.2s-4.3,2.9-7.6,2.9s-5.8-1-7.6-2.9s-2.6-4.6-2.6-8.2s0.9-6.3,2.6-8.2
		c1.8-1.9,4.3-2.8,7.6-2.8s5.8,0.9,7.6,2.8S408,196.5,408,200.1z M392.4,200.1c0,2.4,0.5,4.2,1.4,5.4s2.3,1.8,4.1,1.8
		c3.6,0,5.4-2.4,5.4-7.2c0-4.8-1.8-7.2-5.4-7.2c-1.8,0-3.2,0.6-4.1,1.8C392.9,195.9,392.4,197.7,392.4,200.1z"/>
	<path class="st2" d="M429.9,210.8h-5.2L417,200v10.9h-4.5v-21.4h4.5v10.4l7.7-10.4h4.8l-7.8,10.3L429.9,210.8z"/>
</g>
<g class="st1">
	<path class="st2" d="M115.3,299.2l18.5-40.4h-24.3V250h35.3v6.5l-18.6,42.7H115.3z"/>
	<path class="st2" d="M151,294.4c0-1.9,0.5-3.3,1.5-4.3s2.5-1.4,4.4-1.4c1.9,0,3.3,0.5,4.3,1.5c1,1,1.5,2.4,1.5,4.2
		c0,1.8-0.5,3.2-1.5,4.2c-1,1-2.5,1.5-4.3,1.5c-1.9,0-3.3-0.5-4.4-1.5C151.5,297.6,151,296.2,151,294.4z"/>
	<path class="st2" d="M169.1,278.3c0-9.7,2.1-17,6.2-21.8c4.1-4.8,10.3-7.1,18.5-7.1c2.8,0,5,0.2,6.6,0.5v8.3c-2-0.4-4-0.7-5.9-0.7
		c-3.6,0-6.5,0.5-8.7,1.6c-2.3,1.1-3.9,2.7-5.1,4.8c-1.1,2.1-1.8,5.1-2,9h0.4c2.2-3.8,5.8-5.7,10.7-5.7c4.4,0,7.9,1.4,10.3,4.1
		c2.5,2.8,3.7,6.6,3.7,11.5c0,5.3-1.5,9.4-4.4,12.5c-3,3.1-7.1,4.6-12.3,4.6c-3.6,0-6.8-0.8-9.5-2.5c-2.7-1.7-4.8-4.1-6.3-7.4
		C169.8,286.7,169.1,282.8,169.1,278.3z M186.9,291.5c2.2,0,3.9-0.7,5.1-2.2c1.2-1.5,1.8-3.6,1.8-6.4c0-2.4-0.6-4.3-1.7-5.7
		c-1.1-1.4-2.8-2.1-5-2.1c-2.1,0-3.9,0.7-5.4,2.1c-1.5,1.4-2.2,3-2.2,4.8c0,2.7,0.7,4.9,2.1,6.8C183,290.6,184.7,291.5,186.9,291.5z
		"/>
	<path class="st2" d="M231.6,264.6c0,5.2-1,9-3,11.6c-2,2.6-4.9,3.9-8.8,3.9c-3.7,0-6.6-1.3-8.6-4c-2-2.7-3-6.5-3-11.5
		c0-10.3,3.9-15.4,11.6-15.4c3.8,0,6.7,1.3,8.7,4C230.6,255.9,231.6,259.7,231.6,264.6z M216.7,264.7c0,2.9,0.3,5,0.8,6.4
		c0.5,1.4,1.3,2.1,2.4,2.1c2.2,0,3.2-2.8,3.2-8.5c0-5.6-1.1-8.4-3.2-8.4c-1.1,0-1.9,0.7-2.4,2.1
		C216.9,259.7,216.7,261.8,216.7,264.7z M254.8,249.9l-27.3,49.3h-8.1l27.3-49.3H254.8z M266.1,284.3c0,5.1-1,9-3,11.6
		c-2,2.6-4.9,3.9-8.8,3.9c-3.7,0-6.6-1.3-8.6-4c-2-2.7-3-6.5-3-11.5c0-10.3,3.9-15.4,11.6-15.4c3.8,0,6.7,1.3,8.7,4
		C265.1,275.6,266.1,279.4,266.1,284.3z M251.2,284.4c0,2.9,0.3,5,0.8,6.4c0.5,1.4,1.3,2.1,2.4,2.1c2.2,0,3.2-2.8,3.2-8.5
		c0-5.6-1.1-8.4-3.2-8.4c-1.1,0-1.9,0.7-2.4,2.1C251.4,279.4,251.2,281.5,251.2,284.4z"/>
</g>
<g class="st1">
	<path class="st2" d="M114.6,345.3h-5.7v-3.2h5.7v-5.7h3.2v5.7h5.7v3.2h-5.7v5.6h-3.2V345.3z"/>
	<path class="st2" d="M137.1,354.2h-4.5v-12.4l0-2l0.1-2.2c-0.8,0.8-1.3,1.2-1.6,1.5l-2.5,2l-2.2-2.7l6.9-5.5h3.7V354.2z"/>
	<path class="st2" d="M143.6,352.1c0-0.8,0.2-1.4,0.7-1.9s1.1-0.6,1.9-0.6c0.8,0,1.4,0.2,1.9,0.6s0.7,1,0.7,1.8
		c0,0.8-0.2,1.4-0.7,1.8c-0.4,0.4-1.1,0.7-1.9,0.7c-0.8,0-1.5-0.2-1.9-0.7C143.8,353.5,143.6,352.9,143.6,352.1z"/>
	<path class="st2" d="M166.6,354.2h-15v-3.1l5.4-5.4c1.6-1.6,2.6-2.8,3.1-3.4c0.5-0.6,0.8-1.2,1.1-1.8s0.3-1.1,0.3-1.7
		c0-0.9-0.2-1.5-0.7-1.9s-1.1-0.6-1.9-0.6c-0.8,0-1.6,0.2-2.4,0.6s-1.6,0.9-2.4,1.6l-2.5-2.9c1.1-0.9,1.9-1.5,2.6-1.9
		s1.5-0.7,2.3-0.9c0.8-0.2,1.7-0.3,2.8-0.3c1.3,0,2.5,0.2,3.5,0.7s1.8,1.2,2.4,2.1s0.8,1.9,0.8,3c0,1-0.2,1.9-0.5,2.8
		c-0.3,0.9-0.9,1.8-1.6,2.7s-2,2.2-3.8,3.9l-2.8,2.6v0.2h9.3V354.2z"/>
	<path class="st2" d="M195,354.2h-4.5v-17.6h-7.9v17.6H178v-21.4H195V354.2z"/>
	<path class="st2" d="M199.4,352.1c0-0.8,0.2-1.4,0.7-1.9s1.1-0.6,1.9-0.6c0.8,0,1.4,0.2,1.9,0.6s0.7,1,0.7,1.8
		c0,0.8-0.2,1.4-0.7,1.8c-0.4,0.4-1.1,0.7-1.9,0.7c-0.8,0-1.5-0.2-1.9-0.7C199.6,353.5,199.4,352.9,199.4,352.1z"/>
	<path class="st2" d="M225.9,354.2h-4.5v-17.6h-7.9v17.6h-4.5v-21.4h16.9V354.2z"/>
</g>
</svg>
