<?xml version="1.0" encoding="utf-8"?>
<!-- Generator: Adobe Illustrator 26.0.1, SVG Export Plug-In . SVG Version: 6.00 Build 0)  -->
<svg version="1.1" id="Component_65_3" xmlns="http://www.w3.org/2000/svg" xmlns:xlink="http://www.w3.org/1999/xlink" x="0px"
	 y="0px" viewBox="0 0 646.1 597.8" style="enable-background:new 0 0 646.1 597.8;" xml:space="preserve">
<style type="text/css">
	.st0{opacity:0.6;fill:#36A39D;enable-background:new    ;}
	.st1{enable-background:new    ;}
	.st2{fill:#FFFFFF;}
</style>
<path id="Path_83167" class="st0" d="M225.6,42L522.2,0l123.8,597.8L0,553.3L225.6,42z"/>
<g class="st1">
	<path class="st2" d="M257.1,92.1c0,1.4-0.5,2.5-1.5,3.4s-2.3,1.5-4,1.7v0.1c2,0.2,3.5,0.7,4.5,1.6s1.6,2,1.6,3.5
		c0,2-0.8,3.5-2.4,4.7s-3.8,1.7-6.6,1.7c-3.1,0-5.7-0.4-7.6-1.2v-3.8c0.9,0.4,2,0.8,3.2,1c1.2,0.2,2.4,0.4,3.5,0.4
		c3.6,0,5.4-1,5.4-3.1c0-0.9-0.6-1.7-1.7-2.2s-2.9-0.8-5.1-0.8h-2v-3.5h1.8c2.3,0,3.9-0.2,5-0.6s1.6-1.1,1.6-2.1
		c0-0.7-0.3-1.3-1-1.8c-0.6-0.4-1.6-0.7-2.9-0.7c-2,0-4,0.6-5.8,1.7l-2-3c1.2-0.8,2.5-1.4,3.9-1.8c1.4-0.4,2.9-0.6,4.6-0.6
		c2.3,0,4.2,0.5,5.6,1.5S257.1,90.5,257.1,92.1z"/>
	<path class="st2" d="M274.9,108.5l-1.6-5.1h-7.8l-1.6,5.1h-4.9l7.6-21.5h5.6l7.6,21.5H274.9z M272.3,99.6c-1.4-4.6-2.2-7.2-2.4-7.8
		s-0.3-1.1-0.4-1.4c-0.3,1.2-1.2,4.3-2.8,9.3H272.3z"/>
	<path class="st2" d="M299.4,108.5h-4.5V90.9H287v17.6h-4.5V87.1h16.9V108.5z"/>
	<path class="st2" d="M317.9,108.5l-1.6-5.1h-7.8l-1.6,5.1h-4.9l7.6-21.5h5.6l7.6,21.5H317.9z M315.3,99.6c-1.4-4.6-2.2-7.2-2.4-7.8
		s-0.3-1.1-0.4-1.4c-0.3,1.2-1.2,4.3-2.8,9.3H315.3z"/>
	<path class="st2" d="M323,104.8h1.7c1.4-2.8,2.5-5.7,3.4-8.5c0.8-2.8,1.4-5.9,1.8-9.1h12.5v17.6h2.9v10h-4.4v-6.2h-13.4v6.2H323
		V104.8z M333.4,90.9c-0.3,2.2-0.8,4.6-1.6,7.1s-1.5,4.8-2.5,6.8h8.4V90.9H333.4z"/>
	<path class="st2" d="M366,108.5h-4.5v-9.2H353v9.2h-4.5V87.1h4.5v8.4h8.5v-8.4h4.5V108.5z"/>
	<path class="st2" d="M384.5,108.5l-1.6-5.1h-7.8l-1.6,5.1h-4.9l7.6-21.5h5.6l7.6,21.5H384.5z M381.9,99.6c-1.4-4.6-2.2-7.2-2.4-7.8
		s-0.3-1.1-0.4-1.4c-0.3,1.2-1.2,4.3-2.8,9.3H381.9z"/>
	<path class="st2" d="M399.3,100.3l-5,8.2h-5l6.1-9.4c-1.2-0.5-2.1-1.2-2.8-2.3s-1-2.2-1-3.6c0-2,0.7-3.5,2.1-4.5s3.4-1.6,6-1.6h7
		v21.4h-4.5v-8.2H399.3z M402.1,90.8h-2.2c-1.2,0-2.1,0.2-2.7,0.6s-1,1.1-1,2.1c0,0.9,0.3,1.7,0.9,2.2s1.6,0.8,2.9,0.8h2.1V90.8z"/>
</g>
<g class="st1">
	<path class="st2" d="M251.4,125.6c-1.7,0-3,0.6-4,1.9s-1.4,3.1-1.4,5.4c0,4.8,1.8,7.2,5.4,7.2c1.5,0,3.3-0.4,5.5-1.1v3.8
		c-1.8,0.7-3.7,1.1-5.9,1.1c-3.1,0-5.5-0.9-7.1-2.8c-1.7-1.9-2.5-4.6-2.5-8.1c0-2.2,0.4-4.2,1.2-5.9c0.8-1.7,2-3,3.5-3.9
		c1.5-0.9,3.3-1.3,5.3-1.3c2.1,0,4.2,0.5,6.3,1.5l-1.5,3.7c-0.8-0.4-1.6-0.7-2.4-1S252.2,125.6,251.4,125.6z"/>
	<path class="st2" d="M261.5,122.1h4.1v10.3l-0.1,2.8l-0.1,3.1h0.1l9.9-16.3h5.4v21.4h-4v-10.3c0-1.4,0.1-3.4,0.3-6.1h-0.1
		l-9.9,16.4h-5.5V122.1z"/>
	<path class="st2" d="M290.7,130.3h1.8c2.8,0,5,0.6,6.5,1.7s2.3,2.7,2.3,4.8c0,4.5-2.9,6.7-8.8,6.7h-6.2v-21.4h13.5v3.8h-9V130.3z
		 M290.7,139.8h1.5c1.5,0,2.7-0.2,3.4-0.7c0.7-0.5,1.1-1.2,1.1-2.2c0-1-0.4-1.7-1.1-2.1c-0.7-0.4-2-0.7-3.7-0.7h-1.2V139.8z"/>
	<path class="st2" d="M305.3,122.1h4.1v10.3l-0.1,2.8l-0.1,3.1h0.1l9.9-16.3h5.4v21.4h-4v-10.3c0-1.4,0.1-3.4,0.3-6.1h-0.1
		l-9.9,16.4h-5.5V122.1z"/>
	<path class="st2" d="M344.8,128.8c0,2.3-0.7,4.1-2.2,5.3s-3.5,1.8-6.1,1.8h-1.9v7.6H330v-21.4h6.8c2.6,0,4.6,0.6,5.9,1.7
		S344.8,126.6,344.8,128.8z M334.5,132.2h1.5c1.4,0,2.4-0.3,3.1-0.8c0.7-0.6,1-1.4,1-2.4c0-1.1-0.3-1.9-0.9-2.4s-1.5-0.8-2.7-0.8
		h-2.1V132.2z"/>
	<path class="st2" d="M363.9,136.8c0,4.5-2.9,6.7-8.8,6.7h-6.2v-21.4h4.5v8.2h1.8c2.8,0,5,0.6,6.5,1.7S363.9,134.8,363.9,136.8z
		 M353.4,139.8h1.5c1.5,0,2.7-0.2,3.4-0.7c0.7-0.5,1.1-1.2,1.1-2.2c0-1-0.4-1.7-1.1-2.1c-0.7-0.4-2-0.7-3.7-0.7h-1.2V139.8z"/>
</g>
<g class="st1">
	<path class="st2" d="M277,229c0,8.4-7.2,14.3-17,14.3c-9.9,0-17.1-5.9-17.1-14.2c0-5.8,3.4-10.7,8.6-12.6c-2.8-1.7-4.7-4.6-4.7-8.4
		c0-6.5,5.5-11.3,13.2-11.3c7.7,0,13.2,4.8,13.2,11.3c0,3.9-1.9,6.8-4.7,8.4C273.6,218.4,277,223.2,277,229z M269.9,228.5
		c0-5.1-4.5-8.7-9.9-8.7c-5.5,0-10,3.7-10,8.6c0,4.8,4.3,8.5,10,8.5C265.9,236.9,269.9,233.2,269.9,228.5z M253.8,208.7
		c0,3.2,2.7,5.6,6.2,5.6s6.2-2.4,6.2-5.6s-2.7-5.8-6.2-5.8S253.8,205.5,253.8,208.7z"/>
	<path class="st2" d="M315.7,227.7c0,9.4-7,15.6-16.3,15.6c-7.6,0-13.6-4.3-16.4-10.1l5.6-3.2c1.7,3.9,5.5,6.8,10.5,6.8
		c5.7,0,9.8-3.7,9.8-9c0-5.4-4.2-8.9-9.5-8.9c-3.7,0-7.5,1.7-10.8,4.2l-4.1-3.2l3.9-22.6h24.4v6.4H294l-2.4,12.4
		c2.5-1.9,5.9-3,9.5-3C309.6,213,315.7,218.9,315.7,227.7z"/>
	<path class="st2" d="M322.6,238.6c0-2.6,2.2-4.6,4.8-4.6c2.6,0,4.8,1.9,4.8,4.6s-2.2,4.6-4.8,4.6
		C324.8,243.1,322.6,241.2,322.6,238.6z"/>
	<path class="st2" d="M372.8,218.7c0,11.2-4.8,24.6-18.8,24.6c-5.3,0-11-2-14.1-9.1l6-2.7c1.8,3.9,5,5.5,8.1,5.5
		c6.6,0,11.6-7,11.4-15.4c-2.1,3-5.9,5-10.5,5c-9.2,0-15.5-7-15.5-14.9s6.3-14.9,16.1-14.9C366.7,196.7,372.8,206,372.8,218.7z
		 M365.2,212.1c0-5-3.9-8.8-9.2-8.9c-5.5,0-9.5,3.7-9.5,8.6c0,4.8,3.7,8.3,8.8,8.6C360.8,220.3,365,216.9,365.2,212.1z"/>
	<path class="st2" d="M378.8,205.2c0-5.1,4-9.2,9.2-9.2c5.1,0,9.2,4.1,9.2,9.2c0,5.2-4.1,9.2-9.2,9.2
		C382.8,214.4,378.8,210.4,378.8,205.2z M392.6,205.2c0-2.6-2.1-4.6-4.6-4.6c-2.7,0-4.6,2.1-4.6,4.6c0,2.7,1.9,4.6,4.6,4.6
		C390.6,209.9,392.6,207.9,392.6,205.2z M384.6,242.4l23-47.5h4.4L389,242.4H384.6z M399.3,233.9c0-5.1,4-9.2,9.2-9.2
		c5.1,0,9.2,4.1,9.2,9.2c0,5.2-4.1,9.2-9.2,9.2C403.3,243.1,399.3,239.1,399.3,233.9z M413.1,233.9c0-2.6-2.1-4.7-4.6-4.7
		c-2.6,0-4.6,2.1-4.6,4.7c0,2.6,1.9,4.6,4.6,4.6C411,238.5,413.1,236.6,413.1,233.9z"/>
</g>
<g class="st1">
	<path class="st2" d="M241.6,291.8V289h10.5v2.8H241.6z"/>
	<path class="st2" d="M261.2,277.6h0.1v19.9h-2.9v-15.6l-4.2,1.7v-2.8L261.2,277.6z"/>
	<path class="st2" d="M265.8,295.8c0-1.1,1-2,2.1-2c1.1,0,2.1,0.8,2.1,2c0,1.1-1,2-2.1,2C266.7,297.8,265.8,296.9,265.8,295.8z"/>
	<path class="st2" d="M285.7,291.7c0,3.6-2.9,6.1-6.9,6.1c-2.8,0-5.2-1.5-6.4-4l2.3-1.4c0.9,1.7,2.3,2.6,4,2.6c2.3,0,4-1.4,4-3.3
		c0-2.1-1.7-3.5-4-3.5h-2v-2.4h1.7c2.1,0,3.4-1.2,3.4-2.9c0-1.6-1.2-2.5-2.9-2.5c-1.3,0-2.7,0.7-3.4,1.8l-1.9-1.7
		c1.1-1.7,3.2-2.8,5.5-2.8c3.4,0,5.8,2.1,5.8,5.3c0,1.8-1,3.3-2.5,4C284.3,287.6,285.7,289.4,285.7,291.7z"/>
	<path class="st2" d="M297.5,276.8h15.2v20.7h-3.1v-17.9h-9.1v17.9h-3.1V276.8z"/>
	<path class="st2" d="M316.8,295.8c0-1.1,1-2,2.1-2c1.1,0,2.1,0.8,2.1,2c0,1.1-1,2-2.1,2C317.8,297.8,316.8,296.9,316.8,295.8z"/>
	<path class="st2" d="M325.1,276.8h15.2v20.7h-3.1v-17.9h-9.1v17.9h-3.1V276.8z"/>
</g>
</svg>
