<?xml version="1.0" encoding="utf-8"?>
<!-- Generator: Adobe Illustrator 26.0.1, SVG Export Plug-In . SVG Version: 6.00 Build 0)  -->
<svg version="1.1" id="Layer_1" xmlns="http://www.w3.org/2000/svg" xmlns:xlink="http://www.w3.org/1999/xlink" x="0px" y="0px"
	 viewBox="0 0 1467.5 604.7" style="enable-background:new 0 0 1467.5 604.7;" xml:space="preserve">
<style type="text/css">
	.st0{opacity:0.75;fill:#38499E;stroke:#F9FDFE;stroke-miterlimit:10;enable-background:new    ;}
	.st1{enable-background:new    ;}
	.st2{fill:#FFFFFF;}
	.st3{fill:none;stroke:#3A4798;stroke-width:2;}
	.st4{fill:#3A4798;}
	.st5{opacity:0.6;fill:#00A79D;stroke:#F9FDFE;stroke-miterlimit:10;enable-background:new    ;}
	.st6{fill:none;}
	.st7{fill:#36A39D;}
</style>
<g id="Component_118_1" transform="translate(0.5 0.5)">
	<g id="Group_162630" transform="translate(-191.018 -10066.82)">
		<rect id="Rectangle_147897" x="191" y="10175.3" class="st0" width="284.1" height="262.3"/>
		<rect id="Rectangle_147896" x="333.1" y="10066.8" class="st0" width="284.1" height="108.5"/>
		<rect id="Rectangle_147898" x="191" y="10477.6" class="st0" width="74.6" height="112.9"/>
		<g id="Group_162629" transform="translate(191.019 10066.82)">
			<rect id="Rectangle_147892" x="698" y="261.5" class="st0" width="284.1" height="262.3"/>
			<rect id="Rectangle_147893" x="698" y="153" class="st0" width="284.1" height="108.5"/>
			<rect id="Rectangle_147894" x="982.1" y="410.8" class="st0" width="74.6" height="112.9"/>
			<rect id="Rectangle_147895" x="1056.7" y="410.8" class="st0" width="12.1" height="112.9"/>
		</g>
		<g class="st1">
			<path class="st2" d="M914.9,10423.1h-4.5v-17.6h-5.8v-3.8h16.2v3.8h-5.8V10423.1z"/>
			<path class="st2" d="M938.8,10408.3c0,2.3-0.7,4.1-2.2,5.3s-3.5,1.8-6.1,1.8h-1.9v7.6H924v-21.4h6.8c2.6,0,4.6,0.6,5.9,1.7
				S938.8,10406.1,938.8,10408.3z M928.6,10411.7h1.5c1.4,0,2.4-0.3,3.1-0.8c0.7-0.6,1-1.4,1-2.4c0-1.1-0.3-1.9-0.9-2.4
				s-1.5-0.8-2.7-0.8h-2.1V10411.7z"/>
			<path class="st2" d="M959.8,10401.7l-6.6,15.1c-0.8,1.9-1.6,3.3-2.3,4.1s-1.6,1.4-2.6,1.9c-1,0.4-2.2,0.6-3.6,0.6
				c-1.2,0-2.4-0.1-3.4-0.4v-3.9c0.9,0.4,1.9,0.5,3.2,0.5c0.8,0,1.5-0.2,2-0.6c0.5-0.4,0.9-1,1.2-2l-7.4-15.4h4.8l5.3,11.9h0.1
				l0.3-0.7l4.4-11.2H959.8z"/>
			<path class="st2" d="M967,10409.9h1.8c2.8,0,5,0.6,6.5,1.7s2.3,2.7,2.3,4.8c0,4.5-2.9,6.7-8.8,6.7h-6.2v-21.4H976v3.8h-9V10409.9
				z M967,10419.3h1.5c1.5,0,2.7-0.2,3.4-0.7c0.7-0.5,1.1-1.2,1.1-2.2c0-1-0.4-1.7-1.1-2.1c-0.7-0.4-2-0.7-3.7-0.7H967V10419.3z"/>
			<path class="st2" d="M1001.1,10412.3c0,3.5-0.9,6.3-2.6,8.2s-4.3,2.9-7.6,2.9s-5.8-1-7.6-2.9s-2.6-4.6-2.6-8.2s0.9-6.3,2.6-8.2
				c1.8-1.9,4.3-2.8,7.6-2.8s5.8,0.9,7.6,2.8C1000.2,10406.1,1001.1,10408.8,1001.1,10412.3z M985.4,10412.3c0,2.4,0.5,4.2,1.4,5.4
				s2.3,1.8,4.1,1.8c3.6,0,5.4-2.4,5.4-7.2c0-4.8-1.8-7.2-5.4-7.2c-1.8,0-3.2,0.6-4.1,1.8
				C985.9,10408.1,985.4,10409.9,985.4,10412.3z"/>
			<path class="st2" d="M1022.4,10423.1h-4.5v-17.6h-7.9v17.6h-4.5v-21.4h16.9V10423.1z"/>
			<path class="st2" d="M1042.6,10408.3c0,2.3-0.7,4.1-2.2,5.3c-1.4,1.2-3.5,1.8-6.1,1.8h-1.9v7.6h-4.5v-21.4h6.8
				c2.6,0,4.6,0.6,5.9,1.7S1042.6,10406.1,1042.6,10408.3z M1032.4,10411.7h1.5c1.4,0,2.4-0.3,3.1-0.8c0.7-0.6,1-1.4,1-2.4
				c0-1.1-0.3-1.9-0.9-2.4s-1.5-0.8-2.7-0.8h-2.1V10411.7z"/>
			<path class="st2" d="M1066.1,10412.3c0,3.5-0.9,6.3-2.6,8.2s-4.3,2.9-7.6,2.9s-5.8-1-7.6-2.9s-2.6-4.6-2.6-8.2s0.9-6.3,2.6-8.2
				c1.8-1.9,4.3-2.8,7.6-2.8s5.8,0.9,7.6,2.8C1065.3,10406.1,1066.1,10408.8,1066.1,10412.3z M1050.5,10412.3c0,2.4,0.5,4.2,1.4,5.4
				s2.3,1.8,4.1,1.8c3.6,0,5.4-2.4,5.4-7.2c0-4.8-1.8-7.2-5.4-7.2c-1.8,0-3.2,0.6-4.1,1.8
				C1051,10408.1,1050.5,10409.9,1050.5,10412.3z"/>
			<path class="st2" d="M1070.6,10401.7h6.7c3,0,5.2,0.4,6.6,1.3c1.4,0.9,2.1,2.2,2.1,4.1c0,1.3-0.3,2.3-0.9,3.1
				c-0.6,0.8-1.4,1.3-2.4,1.5v0.1c1.4,0.3,2.3,0.9,2.9,1.7c0.6,0.8,0.9,1.9,0.9,3.3c0,2-0.7,3.5-2.1,4.6s-3.3,1.6-5.7,1.6h-8
				V10401.7z M1075.1,10410.1h2.6c1.2,0,2.1-0.2,2.7-0.6c0.6-0.4,0.8-1,0.8-1.9c0-0.8-0.3-1.4-0.9-1.8c-0.6-0.4-1.5-0.5-2.8-0.5
				h-2.4V10410.1z M1075.1,10413.7v5.6h3c1.2,0,2.2-0.2,2.8-0.7s0.9-1.2,0.9-2.2c0-1.8-1.3-2.7-3.8-2.7H1075.1z"/>
			<path class="st2" d="M1110.2,10412.3c0,3.5-0.9,6.3-2.6,8.2s-4.3,2.9-7.6,2.9s-5.8-1-7.6-2.9s-2.6-4.6-2.6-8.2s0.9-6.3,2.6-8.2
				c1.8-1.9,4.3-2.8,7.6-2.8s5.8,0.9,7.6,2.8C1109.3,10406.1,1110.2,10408.8,1110.2,10412.3z M1094.5,10412.3c0,2.4,0.5,4.2,1.4,5.4
				s2.3,1.8,4.1,1.8c3.6,0,5.4-2.4,5.4-7.2c0-4.8-1.8-7.2-5.4-7.2c-1.8,0-3.2,0.6-4.1,1.8
				C1095,10408.1,1094.5,10409.9,1094.5,10412.3z"/>
			<path class="st2" d="M1112,10419.3h1.7c1.4-2.8,2.5-5.7,3.4-8.5c0.8-2.8,1.4-5.9,1.8-9.1h12.5v17.6h2.9v10h-4.4v-6.2h-13.4v6.2
				h-4.4V10419.3z M1122.5,10405.4c-0.3,2.2-0.8,4.6-1.6,7.1c-0.7,2.5-1.5,4.8-2.5,6.8h8.4v-13.9H1122.5z"/>
			<path class="st2" d="M1152.2,10416.4c0,2.2-0.7,3.9-2.2,5c-1.5,1.1-3.7,1.7-6.6,1.7h-5.9v-21.4h4.5v8.2h1.5
				c2.7,0,4.9,0.6,6.4,1.7C1151.4,10412.7,1152.2,10414.3,1152.2,10416.4z M1142.1,10419.3h1.2c1.5,0,2.6-0.2,3.3-0.7
				c0.7-0.5,1-1.2,1-2.2s-0.3-1.7-1-2.1s-1.8-0.6-3.5-0.6h-1V10419.3z M1159.3,10423.1h-4.5v-21.4h4.5V10423.1z"/>
		</g>
		<g class="st1">
			<path class="st2" d="M922.7,10445.2c4.7,0,8.5,1.1,11.4,3.2c2.9,2.1,4.3,5,4.3,8.7c0,2.5-0.7,4.8-2.1,6.7c-1.4,2-3.6,3.7-6.7,5.3
				c3.7,2,6.3,4,7.9,6.2c1.6,2.1,2.4,4.5,2.4,7.1c0,4-1.6,7.3-4.8,9.8c-3.2,2.5-7.3,3.7-12.5,3.7c-5.4,0-9.6-1.1-12.7-3.4
				c-3.1-2.3-4.6-5.5-4.6-9.7c0-2.8,0.7-5.3,2.2-7.5s3.9-4.1,7.2-5.8c-2.8-1.8-4.8-3.7-6.1-5.7c-1.2-2-1.9-4.2-1.9-6.6
				c0-3.5,1.5-6.4,4.4-8.6C914.2,10446.3,918,10445.2,922.7,10445.2z M915,10482c0,1.9,0.7,3.4,2,4.5s3.2,1.6,5.5,1.6
				c2.6,0,4.5-0.6,5.8-1.7c1.3-1.1,1.9-2.6,1.9-4.4c0-1.5-0.6-2.9-1.9-4.2c-1.3-1.3-3.3-2.7-6.2-4.2
				C917.4,10475.8,915,10478.6,915,10482z M922.7,10452.8c-1.8,0-3.2,0.5-4.3,1.4c-1.1,0.9-1.6,2.1-1.6,3.7c0,1.3,0.4,2.6,1.3,3.6
				s2.4,2.2,4.7,3.3c2.2-1,3.7-2.1,4.6-3.2s1.3-2.3,1.3-3.7c0-1.5-0.6-2.8-1.7-3.7C925.8,10453.2,924.4,10452.8,922.7,10452.8z"/>
			<path class="st2" d="M977.6,10456.8c0,3.1-0.9,5.7-2.8,7.9c-1.9,2.2-4.5,3.6-7.8,4.4v0.2c4,0.5,7,1.7,9,3.6
				c2,1.9,3.1,4.5,3.1,7.8c0,4.7-1.7,8.4-5.2,11.1c-3.4,2.6-8.3,4-14.7,4c-5.3,0-10.1-0.9-14.2-2.7v-8.9c1.9,1,4,1.8,6.3,2.4
				c2.3,0.6,4.6,0.9,6.8,0.9c3.4,0,6-0.6,7.6-1.8c1.6-1.2,2.5-3,2.5-5.6c0-2.3-0.9-4-2.8-4.9s-4.9-1.4-9-1.4h-3.7v-8h3.8
				c3.8,0,6.6-0.5,8.4-1.5s2.6-2.7,2.6-5.1c0-3.7-2.3-5.6-7-5.6c-1.6,0-3.3,0.3-4.9,0.8c-1.7,0.5-3.5,1.5-5.6,2.8l-4.8-7.2
				c4.5-3.2,9.8-4.9,16.1-4.9c5.1,0,9.1,1,12.1,3.1C976.2,10450.3,977.6,10453.1,977.6,10456.8z"/>
			<path class="st2" d="M985.7,10490.2c0-1.9,0.5-3.3,1.5-4.3s2.5-1.4,4.4-1.4c1.9,0,3.3,0.5,4.3,1.5c1,1,1.5,2.4,1.5,4.2
				c0,1.8-0.5,3.2-1.6,4.2c-1,1-2.5,1.5-4.3,1.5c-1.9,0-3.3-0.5-4.4-1.5C986.2,10493.5,985.7,10492.1,985.7,10490.2z"/>
			<path class="st2" d="M1021.2,10445.2c4.7,0,8.5,1.1,11.4,3.2c2.9,2.1,4.3,5,4.3,8.7c0,2.5-0.7,4.8-2.1,6.7
				c-1.4,2-3.6,3.7-6.7,5.3c3.7,2,6.3,4,7.9,6.2s2.4,4.5,2.4,7.1c0,4-1.6,7.3-4.8,9.8c-3.2,2.5-7.3,3.7-12.5,3.7
				c-5.4,0-9.6-1.1-12.7-3.4s-4.6-5.5-4.6-9.7c0-2.8,0.7-5.3,2.2-7.5s3.9-4.1,7.2-5.8c-2.8-1.8-4.8-3.7-6.1-5.7s-1.9-4.2-1.9-6.6
				c0-3.5,1.5-6.4,4.4-8.6C1012.7,10446.3,1016.5,10445.2,1021.2,10445.2z M1013.5,10482c0,1.9,0.7,3.4,2,4.5s3.2,1.6,5.5,1.6
				c2.6,0,4.5-0.6,5.8-1.7c1.3-1.1,1.9-2.6,1.9-4.4c0-1.5-0.6-2.9-1.9-4.2c-1.3-1.3-3.3-2.7-6.2-4.2
				C1015.9,10475.8,1013.5,10478.6,1013.5,10482z M1021.1,10452.8c-1.8,0-3.2,0.5-4.3,1.4c-1.1,0.9-1.6,2.1-1.6,3.7
				c0,1.3,0.4,2.6,1.3,3.6s2.4,2.2,4.7,3.3c2.2-1,3.7-2.1,4.6-3.2c0.9-1.1,1.3-2.3,1.3-3.7c0-1.5-0.6-2.8-1.7-3.7
				C1024.3,10453.2,1022.9,10452.8,1021.1,10452.8z"/>
			<path class="st2" d="M1066.4,10460.5c0,5.2-1,9-3,11.6c-2,2.6-4.9,3.9-8.8,3.9c-3.7,0-6.6-1.3-8.6-4c-2-2.7-3-6.5-3-11.5
				c0-10.3,3.9-15.4,11.6-15.4c3.8,0,6.7,1.3,8.7,4C1065.3,10451.8,1066.4,10455.6,1066.4,10460.5z M1051.4,10460.6
				c0,2.9,0.3,5,0.8,6.4c0.5,1.4,1.3,2.1,2.4,2.1c2.2,0,3.2-2.8,3.2-8.5c0-5.6-1.1-8.4-3.2-8.4c-1.1,0-1.9,0.7-2.4,2.1
				C1051.7,10455.6,1051.4,10457.7,1051.4,10460.6z M1089.5,10445.8l-27.3,49.3h-8.1l27.3-49.3H1089.5z M1100.9,10480.2
				c0,5.1-1,9-3,11.6c-2,2.6-4.9,3.9-8.8,3.9c-3.7,0-6.6-1.3-8.6-4c-2-2.7-3-6.5-3-11.5c0-10.3,3.9-15.4,11.6-15.4
				c3.8,0,6.7,1.3,8.7,4C1099.8,10471.4,1100.9,10475.2,1100.9,10480.2z M1085.9,10480.2c0,2.9,0.3,5,0.8,6.4
				c0.5,1.4,1.3,2.1,2.4,2.1c2.2,0,3.2-2.8,3.2-8.5c0-5.6-1.1-8.4-3.2-8.4c-1.1,0-1.9,0.7-2.4,2.1
				C1086.2,10475.3,1085.9,10477.4,1085.9,10480.2z"/>
		</g>
		<rect id="Rectangle_147899" x="1404.8" y="10557.6" class="st0" width="12.1" height="112.9"/>
		<path id="Path_83286" class="st3" d="M263.7,10533.5H445v66.9h767.9v-10.3"/>
		<path id="Path_83287" class="st3" d="M470.6,10310.8h213v147.3h205.7"/>
		<path id="Path_83288" class="st3" d="M1259.9,10533.5h68v79.8h76.4"/>
		<path id="Path_83289" class="st3" d="M614.3,10118.8h151.9v147.3h122.9"/>
		<g class="st1">
			<path class="st2" d="M217.5,10209.7c3.1,0,5.6,0.9,7.4,2.6c1.8,1.7,2.8,4.1,2.8,7.2c0,3.6-1.1,6.3-3.3,8.3s-5.4,2.9-9.5,2.9
				c-3.6,0-6.5-0.6-8.7-1.7v-5.9c1.2,0.6,2.5,1.1,4,1.5c1.5,0.4,3,0.6,4.4,0.6c4.1,0,6.2-1.7,6.2-5.1c0-3.2-2.1-4.9-6.4-4.9
				c-0.8,0-1.6,0.1-2.6,0.2c-0.9,0.2-1.7,0.3-2.3,0.5l-2.7-1.4l1.2-16.4h17.4v5.8H214l-0.6,6.3l0.8-0.2
				C215,10209.8,216.2,10209.7,217.5,10209.7z"/>
			<path class="st2" d="M252.7,10205.3c0,2-0.6,3.7-1.8,5.1s-2.9,2.4-5.1,2.9v0.1c2.6,0.3,4.6,1.1,5.9,2.4c1.3,1.3,2,2.9,2,5.1
				c0,3.1-1.1,5.5-3.4,7.2c-2.2,1.7-5.4,2.6-9.6,2.6c-3.5,0-6.6-0.6-9.3-1.7v-5.8c1.2,0.6,2.6,1.1,4.1,1.5s3,0.6,4.4,0.6
				c2.2,0,3.9-0.4,5-1.1s1.6-2,1.6-3.7c0-1.5-0.6-2.6-1.8-3.2s-3.2-0.9-5.9-0.9h-2.4v-5.2h2.5c2.5,0,4.3-0.3,5.5-1
				c1.1-0.7,1.7-1.8,1.7-3.4c0-2.4-1.5-3.6-4.6-3.6c-1.1,0-2.1,0.2-3.2,0.5s-2.3,1-3.6,1.8l-3.1-4.7c2.9-2.1,6.4-3.2,10.5-3.2
				c3.3,0,6,0.7,7.9,2C251.7,10201,252.7,10202.9,252.7,10205.3z"/>
			<path class="st2" d="M257.9,10227.1c0-1.2,0.3-2.2,1-2.8s1.6-0.9,2.9-0.9c1.2,0,2.2,0.3,2.8,1c0.7,0.6,1,1.6,1,2.8
				c0,1.2-0.3,2.1-1,2.7c-0.7,0.7-1.6,1-2.8,1c-1.2,0-2.2-0.3-2.9-1C258.3,10229.2,257.9,10228.3,257.9,10227.1z"/>
			<path class="st2" d="M293.2,10223.6h-3.9v6.7h-6.6v-6.7H269v-4.7l14.1-20.7h6.3v20.2h3.9V10223.6z M282.7,10218.3v-5.4
				c0-0.9,0-2.2,0.1-4c0.1-1.7,0.1-2.7,0.2-3h-0.2c-0.5,1.2-1.2,2.4-2,3.5l-5.9,8.9H282.7z"/>
			<path class="st2" d="M310.5,10207.7c0,3.4-0.7,5.9-2,7.6c-1.3,1.7-3.2,2.5-5.7,2.5c-2.4,0-4.3-0.9-5.6-2.6c-1.3-1.7-2-4.2-2-7.5
				c0-6.7,2.5-10,7.6-10c2.5,0,4.4,0.9,5.7,2.6C309.9,10202,310.5,10204.5,310.5,10207.7z M300.8,10207.7c0,1.9,0.2,3.2,0.5,4.2
				c0.3,0.9,0.9,1.4,1.6,1.4c1.4,0,2.1-1.8,2.1-5.5c0-3.7-0.7-5.5-2.1-5.5c-0.7,0-1.3,0.5-1.6,1.4
				C301,10204.5,300.8,10205.9,300.8,10207.7z M325.6,10198.1l-17.8,32.1h-5.3l17.8-32.1H325.6z M333,10220.5c0,3.4-0.7,5.9-2,7.6
				c-1.3,1.7-3.2,2.5-5.7,2.5c-2.4,0-4.3-0.9-5.6-2.6c-1.3-1.7-2-4.2-2-7.5c0-6.7,2.5-10,7.6-10c2.5,0,4.4,0.9,5.7,2.6
				C332.4,10214.8,333,10217.3,333,10220.5z M323.3,10220.6c0,1.9,0.2,3.2,0.5,4.2c0.3,0.9,0.9,1.4,1.6,1.4c1.4,0,2.1-1.8,2.1-5.5
				c0-3.7-0.7-5.5-2.1-5.5c-0.7,0-1.3,0.5-1.6,1.4C323.5,10217.3,323.3,10218.7,323.3,10220.6z"/>
		</g>
		<g class="st1">
			<path class="st2" d="M367.2,10114.8h-22.5v-4.7l8.1-8.2c2.4-2.4,3.9-4.1,4.7-5.1c0.7-0.9,1.3-1.8,1.6-2.6s0.5-1.6,0.5-2.5
				c0-1.3-0.4-2.2-1.1-2.9c-0.7-0.6-1.7-0.9-2.8-0.9c-1.2,0-2.5,0.3-3.6,0.9s-2.4,1.4-3.7,2.4l-3.7-4.4c1.6-1.3,2.9-2.3,3.9-2.9
				s2.2-1,3.4-1.3c1.2-0.3,2.6-0.5,4.1-0.5c2,0,3.8,0.4,5.3,1.1s2.7,1.8,3.6,3.1s1.3,2.8,1.3,4.5c0,1.5-0.3,2.9-0.8,4.2
				c-0.5,1.3-1.3,2.6-2.4,4c-1.1,1.4-3,3.3-5.8,5.8l-4.1,3.9v0.3h14V10114.8z"/>
			<path class="st2" d="M392.9,10114.8h-22.5v-4.7l8.1-8.2c2.4-2.4,3.9-4.1,4.7-5.1c0.7-0.9,1.3-1.8,1.6-2.6s0.5-1.6,0.5-2.5
				c0-1.3-0.4-2.2-1.1-2.9c-0.7-0.6-1.7-0.9-2.8-0.9c-1.2,0-2.5,0.3-3.6,0.9s-2.4,1.4-3.7,2.4l-3.7-4.4c1.6-1.3,2.9-2.3,3.9-2.9
				s2.2-1,3.4-1.3c1.2-0.3,2.6-0.5,4.1-0.5c2,0,3.8,0.4,5.3,1.1s2.7,1.8,3.6,3.1s1.3,2.8,1.3,4.5c0,1.5-0.3,2.9-0.8,4.2
				c-0.5,1.3-1.3,2.6-2.4,4c-1.1,1.4-3,3.3-5.8,5.8l-4.1,3.9v0.3h14V10114.8z"/>
			<path class="st2" d="M396.9,10111.7c0-1.2,0.3-2.2,1-2.8s1.6-0.9,2.9-0.9c1.2,0,2.2,0.3,2.8,1c0.7,0.6,1,1.6,1,2.8
				c0,1.2-0.3,2.1-1,2.7c-0.7,0.7-1.6,1-2.8,1c-1.2,0-2.2-0.3-2.9-1C397.3,10113.8,396.9,10112.9,396.9,10111.7z"/>
			<path class="st2" d="M420.7,10094.3c3.1,0,5.6,0.9,7.4,2.6c1.8,1.7,2.8,4.1,2.8,7.2c0,3.6-1.1,6.3-3.3,8.3s-5.4,2.9-9.5,2.9
				c-3.6,0-6.5-0.6-8.7-1.7v-5.9c1.2,0.6,2.5,1.1,4,1.5c1.5,0.4,3,0.6,4.4,0.6c4.1,0,6.2-1.7,6.2-5.1c0-3.2-2.1-4.9-6.4-4.9
				c-0.8,0-1.6,0.1-2.6,0.2c-0.9,0.2-1.7,0.3-2.3,0.5l-2.7-1.4l1.2-16.4h17.4v5.8h-11.5l-0.6,6.3l0.8-0.2
				C418.3,10094.4,419.4,10094.3,420.7,10094.3z"/>
			<path class="st2" d="M449.5,10092.3c0,3.4-0.7,5.9-2,7.6c-1.3,1.7-3.2,2.5-5.7,2.5c-2.4,0-4.3-0.9-5.6-2.6c-1.3-1.7-2-4.2-2-7.5
				c0-6.7,2.5-10,7.6-10c2.5,0,4.4,0.9,5.7,2.6C448.9,10086.6,449.5,10089.1,449.5,10092.3z M439.8,10092.3c0,1.9,0.2,3.2,0.5,4.2
				c0.3,0.9,0.9,1.4,1.6,1.4c1.4,0,2.1-1.8,2.1-5.5c0-3.7-0.7-5.5-2.1-5.5c-0.7,0-1.3,0.5-1.6,1.4
				C440,10089.1,439.8,10090.5,439.8,10092.3z M464.6,10082.7l-17.8,32.1h-5.3l17.8-32.1H464.6z M472,10105.1c0,3.4-0.7,5.9-2,7.6
				c-1.3,1.7-3.2,2.5-5.7,2.5c-2.4,0-4.3-0.9-5.6-2.6c-1.3-1.7-2-4.2-2-7.5c0-6.7,2.5-10,7.6-10c2.5,0,4.4,0.9,5.7,2.6
				C471.4,10099.4,472,10101.9,472,10105.1z M462.3,10105.2c0,1.9,0.2,3.2,0.5,4.2c0.3,0.9,0.9,1.4,1.6,1.4c1.4,0,2.1-1.8,2.1-5.5
				c0-3.7-0.7-5.5-2.1-5.5c-0.7,0-1.3,0.5-1.6,1.4C462.5,10101.9,462.3,10103.3,462.3,10105.2z"/>
		</g>
		<g class="st1">
			<path class="st4" d="M270.6,10506.2c0-6.4,1.3-11.1,4-14.2c2.7-3.1,6.7-4.7,12.1-4.7c1.8,0,3.3,0.1,4.3,0.3v5.4
				c-1.3-0.3-2.6-0.4-3.9-0.4c-2.3,0-4.2,0.4-5.7,1.1c-1.5,0.7-2.6,1.7-3.3,3.1c-0.7,1.4-1.2,3.3-1.3,5.9h0.3c1.5-2.5,3.8-3.7,7-3.7
				c2.9,0,5.1,0.9,6.7,2.7c1.6,1.8,2.4,4.3,2.4,7.5c0,3.4-1,6.1-2.9,8.1c-1.9,2-4.6,3-8,3c-2.4,0-4.4-0.5-6.2-1.6
				c-1.8-1.1-3.1-2.7-4.1-4.8C271,10511.7,270.6,10509.1,270.6,10506.2z M282.2,10514.8c1.5,0,2.6-0.5,3.3-1.5
				c0.8-1,1.2-2.4,1.2-4.2c0-1.6-0.4-2.8-1.1-3.7c-0.7-0.9-1.8-1.4-3.3-1.4c-1.4,0-2.6,0.4-3.5,1.3c-1,0.9-1.5,1.9-1.5,3.1
				c0,1.7,0.5,3.2,1.4,4.4C279.6,10514.2,280.8,10514.8,282.2,10514.8z"/>
			<path class="st4" d="M297.2,10516.7c0-1.2,0.3-2.2,1-2.8s1.6-0.9,2.9-0.9c1.2,0,2.2,0.3,2.8,1c0.7,0.6,1,1.6,1,2.8
				c0,1.2-0.3,2.1-1,2.7c-0.7,0.7-1.6,1-2.8,1c-1.2,0-2.2-0.3-2.9-1C297.6,10518.8,297.2,10517.9,297.2,10516.7z"/>
			<path class="st4" d="M330.5,10494.9c0,2-0.6,3.7-1.8,5.1c-1.2,1.4-2.9,2.4-5.1,2.9v0.1c2.6,0.3,4.6,1.1,5.9,2.4
				c1.3,1.3,2,2.9,2,5.1c0,3.1-1.1,5.5-3.4,7.2c-2.2,1.7-5.4,2.6-9.6,2.6c-3.5,0-6.6-0.6-9.3-1.7v-5.8c1.2,0.6,2.6,1.1,4.1,1.5
				s3,0.6,4.4,0.6c2.2,0,3.9-0.4,5-1.1c1.1-0.8,1.6-2,1.6-3.7c0-1.5-0.6-2.6-1.8-3.2s-3.2-0.9-5.9-0.9h-2.4v-5.2h2.5
				c2.5,0,4.3-0.3,5.5-1c1.2-0.7,1.7-1.8,1.7-3.4c0-2.4-1.5-3.6-4.6-3.6c-1.1,0-2.1,0.2-3.2,0.5s-2.3,1-3.6,1.8l-3.1-4.7
				c2.9-2.1,6.4-3.2,10.5-3.2c3.3,0,6,0.7,7.9,2C329.5,10490.6,330.5,10492.5,330.5,10494.9z"/>
			<path class="st4" d="M349.8,10497.3c0,3.4-0.7,5.9-2,7.6c-1.3,1.7-3.2,2.5-5.7,2.5c-2.4,0-4.3-0.9-5.6-2.6c-1.3-1.7-2-4.2-2-7.5
				c0-6.7,2.5-10,7.6-10c2.5,0,4.4,0.9,5.7,2.6C349.2,10491.6,349.8,10494.1,349.8,10497.3z M340.1,10497.3c0,1.9,0.2,3.2,0.5,4.2
				c0.3,0.9,0.9,1.4,1.6,1.4c1.4,0,2.1-1.8,2.1-5.5c0-3.7-0.7-5.5-2.1-5.5c-0.7,0-1.3,0.5-1.6,1.4
				C340.3,10494.1,340.1,10495.5,340.1,10497.3z M365,10487.7l-17.8,32.1h-5.3l17.8-32.1H365z M372.3,10510.1c0,3.4-0.7,5.9-2,7.6
				c-1.3,1.7-3.2,2.5-5.7,2.5c-2.4,0-4.3-0.9-5.6-2.6c-1.3-1.7-2-4.2-2-7.5c0-6.7,2.5-10,7.6-10c2.5,0,4.4,0.9,5.7,2.6
				C371.7,10504.4,372.3,10506.9,372.3,10510.1z M362.6,10510.2c0,1.9,0.2,3.2,0.5,4.2c0.3,0.9,0.9,1.4,1.6,1.4
				c1.4,0,2.1-1.8,2.1-5.5c0-3.7-0.7-5.5-2.1-5.5c-0.7,0-1.3,0.5-1.6,1.4C362.8,10506.9,362.6,10508.3,362.6,10510.2z"/>
		</g>
		<g class="st1">
			<path class="st4" d="M1448.6,10630.7h-6.8v-18.6l0.1-3.1l0.1-3.3c-1.1,1.1-1.9,1.9-2.4,2.2l-3.7,3l-3.3-4.1l10.3-8.2h5.6V10630.7
				z"/>
			<path class="st4" d="M1458.2,10627.6c0-1.2,0.3-2.2,1-2.8c0.7-0.6,1.6-0.9,2.9-0.9c1.2,0,2.2,0.3,2.8,1s1,1.6,1,2.8
				c0,1.2-0.3,2.1-1,2.7c-0.7,0.7-1.6,1-2.8,1c-1.2,0-2.2-0.3-2.9-1C1458.6,10629.7,1458.2,10628.8,1458.2,10627.6z"/>
			<path class="st4" d="M1470.1,10617.1c0-6.4,1.3-11.1,4-14.2c2.7-3.1,6.7-4.7,12.1-4.7c1.8,0,3.3,0.1,4.3,0.3v5.4
				c-1.3-0.3-2.6-0.4-3.9-0.4c-2.3,0-4.2,0.4-5.7,1.1s-2.6,1.7-3.3,3.1c-0.7,1.4-1.2,3.3-1.3,5.9h0.3c1.5-2.5,3.8-3.7,7-3.7
				c2.9,0,5.1,0.9,6.7,2.7c1.6,1.8,2.4,4.3,2.4,7.5c0,3.4-1,6.1-2.9,8.1c-1.9,2-4.6,3-8,3c-2.4,0-4.4-0.5-6.2-1.6
				c-1.8-1.1-3.1-2.7-4.1-4.8S1470.1,10620.1,1470.1,10617.1z M1481.7,10625.7c1.5,0,2.6-0.5,3.3-1.5c0.8-1,1.2-2.4,1.2-4.2
				c0-1.6-0.4-2.8-1.1-3.7c-0.7-0.9-1.8-1.4-3.3-1.4c-1.4,0-2.6,0.4-3.5,1.3s-1.5,1.9-1.5,3.1c0,1.7,0.5,3.2,1.4,4.4
				S1480.3,10625.7,1481.7,10625.7z"/>
			<path class="st4" d="M1510.8,10608.2c0,3.4-0.7,5.9-2,7.6c-1.3,1.7-3.2,2.5-5.7,2.5c-2.4,0-4.3-0.9-5.6-2.6c-1.3-1.7-2-4.2-2-7.5
				c0-6.7,2.5-10,7.6-10c2.5,0,4.4,0.9,5.7,2.6C1510.2,10602.5,1510.8,10605,1510.8,10608.2z M1501.1,10608.2c0,1.9,0.2,3.2,0.5,4.2
				c0.3,0.9,0.9,1.4,1.6,1.4c1.4,0,2.1-1.8,2.1-5.5c0-3.7-0.7-5.5-2.1-5.5c-0.7,0-1.3,0.5-1.6,1.4
				C1501.3,10605,1501.1,10606.4,1501.1,10608.2z M1526,10598.6l-17.8,32.1h-5.3l17.8-32.1H1526z M1533.3,10621c0,3.4-0.7,5.9-2,7.6
				c-1.3,1.7-3.2,2.5-5.7,2.5c-2.4,0-4.3-0.9-5.6-2.6c-1.3-1.7-2-4.2-2-7.5c0-6.7,2.5-10,7.6-10c2.5,0,4.4,0.9,5.7,2.6
				C1532.7,10615.3,1533.3,10617.8,1533.3,10621z M1523.6,10621.1c0,1.9,0.2,3.2,0.5,4.2c0.3,0.9,0.9,1.4,1.6,1.4
				c1.4,0,2.1-1.8,2.1-5.5c0-3.7-0.7-5.5-2.1-5.5c-0.7,0-1.3,0.5-1.6,1.4C1523.8,10617.8,1523.6,10619.2,1523.6,10621.1z"/>
		</g>
	</g>
	<g id="Group_162636" transform="translate(-181.018 -10047.119)">
		<g id="Group_162635">
			<rect id="Rectangle_147905" x="1163.2" y="10199.9" class="st5" width="86.8" height="144.8"/>
			<rect id="Rectangle_147906" x="1163.2" y="10344.7" class="st5" width="86.8" height="112.9"/>
		</g>
		<g id="Group_162637">
			<path id="Path_83295" class="st6" d="M850.1,10175.3h351.7v24.3"/>
			<path id="Path_83296" class="st6" d="M1250,10402.3h351.7v66.9"/>
			<g id="Group_162634" transform="translate(-34.92 -19.172)">
				<rect id="Rectangle_147901" x="798.2" y="10124.1" class="st6" width="86.8" height="144.8"/>
				<rect id="Rectangle_147902" x="1596.2" y="10487.9" class="st6" width="86.8" height="112.9"/>
			</g>
		</g>
	</g>
	<g class="st1">
		<path class="st7" d="M1100.6,190.3c-1.7,0-3,0.6-4,1.9s-1.4,3.1-1.4,5.4c0,4.8,1.8,7.2,5.4,7.2c1.5,0,3.3-0.4,5.5-1.1v3.8
			c-1.8,0.7-3.7,1.1-5.9,1.1c-3.1,0-5.5-0.9-7.1-2.8c-1.7-1.9-2.5-4.6-2.5-8.1c0-2.2,0.4-4.2,1.2-5.9c0.8-1.7,2-3,3.5-3.9
			c1.5-0.9,3.3-1.3,5.3-1.3c2.1,0,4.2,0.5,6.3,1.5l-1.5,3.7c-0.8-0.4-1.6-0.7-2.4-1S1101.3,190.3,1100.6,190.3z"/>
		<path class="st7" d="M1127.5,208.2h-4.5v-17.6h-7.9v17.6h-4.5v-21.4h16.9V208.2z"/>
		<path class="st7" d="M1146.5,186.8v3.8h-9v17.7h-4.5v-21.4H1146.5z"/>
	</g>
	<g class="st1">
		<path class="st7" d="M1105.7,265.2h-6.8v-18.6l0.1-3.1l0.1-3.3c-1.1,1.1-1.9,1.9-2.4,2.2l-3.7,3l-3.3-4.1l10.3-8.2h5.6V265.2z"/>
		<path class="st7" d="M1114.3,251.6c0-6.4,1.3-11.1,4-14.2c2.7-3.1,6.7-4.7,12.1-4.7c1.8,0,3.3,0.1,4.3,0.3v5.4
			c-1.3-0.3-2.6-0.4-3.9-0.4c-2.3,0-4.2,0.4-5.7,1.1c-1.5,0.7-2.6,1.7-3.3,3.1c-0.7,1.4-1.2,3.3-1.3,5.9h0.3c1.5-2.5,3.8-3.7,7-3.7
			c2.9,0,5.1,0.9,6.7,2.7c1.6,1.8,2.4,4.3,2.4,7.5c0,3.4-1,6.1-2.9,8.1c-1.9,2-4.6,3-8,3c-2.4,0-4.4-0.5-6.2-1.6
			c-1.8-1.1-3.1-2.7-4.1-4.8C1114.8,257.1,1114.3,254.5,1114.3,251.6z M1125.9,260.2c1.5,0,2.6-0.5,3.3-1.5c0.8-1,1.2-2.4,1.2-4.2
			c0-1.6-0.4-2.8-1.1-3.7c-0.7-0.9-1.8-1.4-3.3-1.4c-1.4,0-2.6,0.4-3.5,1.3c-1,0.9-1.5,1.9-1.5,3.1c0,1.7,0.5,3.2,1.4,4.4
			C1123.4,259.6,1124.5,260.2,1125.9,260.2z"/>
		<path class="st7" d="M1141,262.1c0-1.2,0.3-2.2,1-2.8c0.7-0.6,1.6-0.9,2.9-0.9c1.2,0,2.2,0.3,2.8,1s1,1.6,1,2.8
			c0,1.2-0.3,2.1-1,2.7c-0.7,0.7-1.6,1-2.8,1c-1.2,0-2.2-0.3-2.9-1C1141.3,264.2,1141,263.3,1141,262.1z"/>
		<path class="st7" d="M1175.5,265.2h-22.5v-4.7l8.1-8.2c2.4-2.4,3.9-4.1,4.7-5.1c0.7-0.9,1.3-1.8,1.6-2.6s0.5-1.6,0.5-2.5
			c0-1.3-0.4-2.2-1.1-2.9c-0.7-0.6-1.7-0.9-2.8-0.9c-1.2,0-2.5,0.3-3.6,0.9s-2.4,1.4-3.7,2.4l-3.7-4.4c1.6-1.3,2.9-2.3,3.9-2.9
			c1-0.6,2.2-1,3.4-1.3c1.2-0.3,2.6-0.5,4.1-0.5c2,0,3.8,0.4,5.3,1.1c1.5,0.7,2.7,1.8,3.6,3.1s1.3,2.8,1.3,4.5
			c0,1.5-0.3,2.9-0.8,4.2c-0.5,1.3-1.3,2.6-2.4,4s-3,3.3-5.8,5.8l-4.1,3.9v0.3h14V265.2z"/>
		<path class="st7" d="M1193.6,242.7c0,3.4-0.7,5.9-2,7.6c-1.3,1.7-3.2,2.5-5.7,2.5c-2.4,0-4.3-0.9-5.6-2.6c-1.3-1.7-2-4.2-2-7.5
			c0-6.7,2.5-10,7.6-10c2.5,0,4.4,0.9,5.7,2.6C1192.9,237,1193.6,239.4,1193.6,242.7z M1183.9,242.7c0,1.9,0.2,3.2,0.5,4.2
			c0.3,0.9,0.9,1.4,1.6,1.4c1.4,0,2.1-1.8,2.1-5.5c0-3.7-0.7-5.5-2.1-5.5c-0.7,0-1.3,0.5-1.6,1.4
			C1184,239.5,1183.9,240.8,1183.9,242.7z M1208.7,233.1l-17.8,32.1h-5.3l17.8-32.1H1208.7z M1216.1,255.5c0,3.4-0.7,5.9-2,7.6
			c-1.3,1.7-3.2,2.5-5.7,2.5c-2.4,0-4.3-0.9-5.6-2.6c-1.3-1.7-2-4.2-2-7.5c0-6.7,2.5-10,7.6-10c2.5,0,4.4,0.9,5.7,2.6
			C1215.4,249.8,1216.1,252.3,1216.1,255.5z M1206.4,255.5c0,1.9,0.2,3.2,0.5,4.2c0.3,0.9,0.9,1.4,1.6,1.4c1.4,0,2.1-1.8,2.1-5.5
			c0-3.7-0.7-5.5-2.1-5.5c-0.7,0-1.3,0.5-1.6,1.4C1206.5,252.3,1206.4,253.7,1206.4,255.5z"/>
	</g>
</g>
</svg>
