<?xml version="1.0" encoding="utf-8"?>
<!-- Generator: Adobe Illustrator 26.0.1, SVG Export Plug-In . SVG Version: 6.00 Build 0)  -->
<svg version="1.1" id="Layer_1" xmlns="http://www.w3.org/2000/svg" xmlns:xlink="http://www.w3.org/1999/xlink" x="0px" y="0px"
	 viewBox="0 0 885.8 477.8" style="enable-background:new 0 0 885.8 477.8;" xml:space="preserve">
<style type="text/css">
	.st0{opacity:0.75;fill:#38499E;stroke:#F9FDFE;stroke-miterlimit:10;enable-background:new    ;}
	.st1{enable-background:new    ;}
	.st2{fill:#FFFFFF;}
	.st3{opacity:0.6;fill:#00A79D;stroke:#F9FDFE;stroke-miterlimit:10;enable-background:new    ;}
	.st4{fill:none;stroke:#71C5BC;stroke-width:2;}
	.st5{fill:#36A39D;}
	.st6{opacity:0.75;fill:#00A79D;stroke:#F9FDFE;stroke-miterlimit:10;enable-background:new    ;}
</style>
<g id="Component_118_1" transform="translate(0.5 0.5)">
	<g id="Group_162630" transform="translate(-773.248 -10124.609)">
		<g id="Group_162629" transform="translate(191.019 10066.82)">
			<g id="Group_162638">
				<rect id="Rectangle_147892" x="698" y="261.5" class="st0" width="284.1" height="262.3"/>
				<rect id="Rectangle_147893" x="698" y="153" class="st0" width="284.1" height="108.5"/>
				<rect id="Rectangle_147894" x="982.1" y="410.8" class="st0" width="74.6" height="112.9"/>
				<rect id="Rectangle_147895" x="1056.7" y="410.8" class="st0" width="12.1" height="112.9"/>
			</g>
		</g>
		<g class="st1">
			<path class="st2" d="M914.9,10423.1h-4.5v-17.6h-5.8v-3.8h16.2v3.8h-5.8V10423.1z"/>
			<path class="st2" d="M938.8,10408.3c0,2.3-0.7,4.1-2.2,5.3s-3.5,1.8-6.1,1.8h-1.9v7.6H924v-21.4h6.8c2.6,0,4.6,0.6,5.9,1.7
				S938.8,10406.1,938.8,10408.3z M928.6,10411.7h1.5c1.4,0,2.4-0.3,3.1-0.8c0.7-0.6,1-1.4,1-2.4c0-1.1-0.3-1.9-0.9-2.4
				s-1.5-0.8-2.7-0.8h-2.1V10411.7z"/>
			<path class="st2" d="M959.8,10401.7l-6.6,15.1c-0.8,1.9-1.6,3.3-2.3,4.1s-1.6,1.4-2.6,1.9c-1,0.4-2.2,0.6-3.6,0.6
				c-1.2,0-2.4-0.1-3.4-0.4v-3.9c0.9,0.4,1.9,0.5,3.2,0.5c0.8,0,1.5-0.2,2-0.6c0.5-0.4,0.9-1,1.2-2l-7.4-15.4h4.8l5.3,11.9h0.1
				l0.3-0.7l4.4-11.2H959.8z"/>
			<path class="st2" d="M967,10409.9h1.8c2.8,0,5,0.6,6.5,1.7s2.3,2.7,2.3,4.8c0,4.5-2.9,6.7-8.8,6.7h-6.2v-21.4H976v3.8h-9V10409.9
				z M967,10419.3h1.5c1.5,0,2.7-0.2,3.4-0.7c0.7-0.5,1.1-1.2,1.1-2.2c0-1-0.4-1.7-1.1-2.1c-0.7-0.4-2-0.7-3.7-0.7H967V10419.3z"/>
			<path class="st2" d="M1001.1,10412.3c0,3.5-0.9,6.3-2.6,8.2s-4.3,2.9-7.6,2.9s-5.8-1-7.6-2.9s-2.6-4.6-2.6-8.2s0.9-6.3,2.6-8.2
				c1.8-1.9,4.3-2.8,7.6-2.8s5.8,0.9,7.6,2.8C1000.2,10406.1,1001.1,10408.8,1001.1,10412.3z M985.4,10412.3c0,2.4,0.5,4.2,1.4,5.4
				s2.3,1.8,4.1,1.8c3.6,0,5.4-2.4,5.4-7.2c0-4.8-1.8-7.2-5.4-7.2c-1.8,0-3.2,0.6-4.1,1.8
				C985.9,10408.1,985.4,10409.9,985.4,10412.3z"/>
			<path class="st2" d="M1022.4,10423.1h-4.5v-17.6h-7.9v17.6h-4.5v-21.4h16.9V10423.1z"/>
			<path class="st2" d="M1042.6,10408.3c0,2.3-0.7,4.1-2.2,5.3c-1.4,1.2-3.5,1.8-6.1,1.8h-1.9v7.6h-4.5v-21.4h6.8
				c2.6,0,4.6,0.6,5.9,1.7S1042.6,10406.1,1042.6,10408.3z M1032.4,10411.7h1.5c1.4,0,2.4-0.3,3.1-0.8c0.7-0.6,1-1.4,1-2.4
				c0-1.1-0.3-1.9-0.9-2.4s-1.5-0.8-2.7-0.8h-2.1V10411.7z"/>
			<path class="st2" d="M1066.1,10412.3c0,3.5-0.9,6.3-2.6,8.2s-4.3,2.9-7.6,2.9s-5.8-1-7.6-2.9s-2.6-4.6-2.6-8.2s0.9-6.3,2.6-8.2
				c1.8-1.9,4.3-2.8,7.6-2.8s5.8,0.9,7.6,2.8C1065.3,10406.1,1066.1,10408.8,1066.1,10412.3z M1050.5,10412.3c0,2.4,0.5,4.2,1.4,5.4
				s2.3,1.8,4.1,1.8c3.6,0,5.4-2.4,5.4-7.2c0-4.8-1.8-7.2-5.4-7.2c-1.8,0-3.2,0.6-4.1,1.8
				C1051,10408.1,1050.5,10409.9,1050.5,10412.3z"/>
			<path class="st2" d="M1070.6,10401.7h6.7c3,0,5.2,0.4,6.6,1.3c1.4,0.9,2.1,2.2,2.1,4.1c0,1.3-0.3,2.3-0.9,3.1
				c-0.6,0.8-1.4,1.3-2.4,1.5v0.1c1.4,0.3,2.3,0.9,2.9,1.7c0.6,0.8,0.9,1.9,0.9,3.3c0,2-0.7,3.5-2.1,4.6s-3.3,1.6-5.7,1.6h-8
				V10401.7z M1075.1,10410.1h2.6c1.2,0,2.1-0.2,2.7-0.6c0.6-0.4,0.8-1,0.8-1.9c0-0.8-0.3-1.4-0.9-1.8c-0.6-0.4-1.5-0.5-2.8-0.5
				h-2.4V10410.1z M1075.1,10413.7v5.6h3c1.2,0,2.2-0.2,2.8-0.7s0.9-1.2,0.9-2.2c0-1.8-1.3-2.7-3.8-2.7H1075.1z"/>
			<path class="st2" d="M1110.2,10412.3c0,3.5-0.9,6.3-2.6,8.2s-4.3,2.9-7.6,2.9s-5.8-1-7.6-2.9s-2.6-4.6-2.6-8.2s0.9-6.3,2.6-8.2
				c1.8-1.9,4.3-2.8,7.6-2.8s5.8,0.9,7.6,2.8C1109.3,10406.1,1110.2,10408.8,1110.2,10412.3z M1094.5,10412.3c0,2.4,0.5,4.2,1.4,5.4
				s2.3,1.8,4.1,1.8c3.6,0,5.4-2.4,5.4-7.2c0-4.8-1.8-7.2-5.4-7.2c-1.8,0-3.2,0.6-4.1,1.8
				C1095,10408.1,1094.5,10409.9,1094.5,10412.3z"/>
			<path class="st2" d="M1112,10419.3h1.7c1.4-2.8,2.5-5.7,3.4-8.5c0.8-2.8,1.4-5.9,1.8-9.1h12.5v17.6h2.9v10h-4.4v-6.2h-13.4v6.2
				h-4.4V10419.3z M1122.5,10405.4c-0.3,2.2-0.8,4.6-1.6,7.1c-0.7,2.5-1.5,4.8-2.5,6.8h8.4v-13.9H1122.5z"/>
			<path class="st2" d="M1152.2,10416.4c0,2.2-0.7,3.9-2.2,5c-1.5,1.1-3.7,1.7-6.6,1.7h-5.9v-21.4h4.5v8.2h1.5
				c2.7,0,4.9,0.6,6.4,1.7C1151.4,10412.7,1152.2,10414.3,1152.2,10416.4z M1142.1,10419.3h1.2c1.5,0,2.6-0.2,3.3-0.7
				c0.7-0.5,1-1.2,1-2.2s-0.3-1.7-1-2.1s-1.8-0.6-3.5-0.6h-1V10419.3z M1159.3,10423.1h-4.5v-21.4h4.5V10423.1z"/>
		</g>
		<g class="st1">
			<path class="st2" d="M915.9,10462.5c3.1,0,5.6,0.7,7.4,2.1c1.9,1.4,2.8,3.3,2.8,5.7c0,1.6-0.5,3.1-1.4,4.4
				c-0.9,1.3-2.4,2.4-4.4,3.4c2.4,1.3,4.1,2.6,5.2,4c1,1.4,1.6,2.9,1.6,4.6c0,2.6-1,4.8-3.1,6.4c-2.1,1.6-4.8,2.4-8.2,2.4
				c-3.5,0-6.3-0.7-8.3-2.2s-3-3.6-3-6.4c0-1.8,0.5-3.5,1.5-4.9s2.5-2.7,4.7-3.8c-1.8-1.2-3.1-2.4-4-3.7s-1.2-2.8-1.2-4.3
				c0-2.3,1-4.2,2.9-5.6S912.8,10462.5,915.9,10462.5z M910.8,10486.5c0,1.3,0.4,2.2,1.3,2.9s2.1,1.1,3.6,1.1c1.7,0,2.9-0.4,3.8-1.1
				c0.8-0.7,1.3-1.7,1.3-2.9c0-1-0.4-1.9-1.2-2.8c-0.8-0.9-2.2-1.8-4-2.7C912.4,10482.5,910.8,10484.3,910.8,10486.5z
				 M915.8,10467.5c-1.2,0-2.1,0.3-2.8,0.9c-0.7,0.6-1.1,1.4-1.1,2.4c0,0.9,0.3,1.7,0.8,2.4c0.6,0.7,1.6,1.4,3.1,2.1
				c1.4-0.7,2.4-1.4,3-2.1s0.9-1.5,0.9-2.4c0-1-0.4-1.8-1.1-2.4C917.9,10467.8,917,10467.5,915.8,10467.5z"/>
			<path class="st2" d="M951.7,10470.1c0,2-0.6,3.7-1.8,5.1s-2.9,2.4-5.1,2.9v0.1c2.6,0.3,4.6,1.1,5.9,2.4c1.3,1.3,2,2.9,2,5.1
				c0,3.1-1.1,5.5-3.4,7.2c-2.2,1.7-5.4,2.6-9.6,2.6c-3.5,0-6.6-0.6-9.3-1.7v-5.8c1.2,0.6,2.6,1.1,4.1,1.5s3,0.6,4.4,0.6
				c2.2,0,3.9-0.4,5-1.1s1.6-2,1.6-3.7c0-1.5-0.6-2.6-1.8-3.2s-3.2-0.9-5.9-0.9h-2.4v-5.2h2.5c2.5,0,4.3-0.3,5.5-1
				c1.1-0.7,1.7-1.8,1.7-3.4c0-2.4-1.5-3.6-4.6-3.6c-1.1,0-2.1,0.2-3.2,0.5s-2.3,1-3.6,1.8l-3.1-4.7c2.9-2.1,6.4-3.2,10.5-3.2
				c3.3,0,6,0.7,7.9,2C950.7,10465.9,951.7,10467.7,951.7,10470.1z"/>
			<path class="st2" d="M956.9,10491.9c0-1.2,0.3-2.2,1-2.8s1.6-0.9,2.9-0.9c1.2,0,2.2,0.3,2.8,1c0.7,0.6,1,1.6,1,2.8
				c0,1.2-0.3,2.1-1,2.7c-0.7,0.7-1.6,1-2.8,1c-1.2,0-2.2-0.3-2.9-1C957.3,10494,956.9,10493.1,956.9,10491.9z"/>
			<path class="st2" d="M980.1,10462.5c3.1,0,5.6,0.7,7.4,2.1c1.9,1.4,2.8,3.3,2.8,5.7c0,1.6-0.5,3.1-1.4,4.4
				c-0.9,1.3-2.4,2.4-4.4,3.4c2.4,1.3,4.1,2.6,5.2,4c1,1.4,1.6,2.9,1.6,4.6c0,2.6-1,4.8-3.1,6.4c-2.1,1.6-4.8,2.4-8.2,2.4
				c-3.5,0-6.3-0.7-8.3-2.2s-3-3.6-3-6.4c0-1.8,0.5-3.5,1.5-4.9c1-1.4,2.5-2.7,4.7-3.8c-1.8-1.2-3.1-2.4-4-3.7s-1.2-2.8-1.2-4.3
				c0-2.3,1-4.2,2.9-5.6C974.5,10463.2,977,10462.5,980.1,10462.5z M975.1,10486.5c0,1.3,0.4,2.2,1.3,2.9s2.1,1.1,3.6,1.1
				c1.7,0,2.9-0.4,3.8-1.1c0.8-0.7,1.3-1.7,1.3-2.9c0-1-0.4-1.9-1.2-2.8c-0.8-0.9-2.2-1.8-4-2.7
				C976.6,10482.5,975.1,10484.3,975.1,10486.5z M980,10467.5c-1.2,0-2.1,0.3-2.8,0.9c-0.7,0.6-1.1,1.4-1.1,2.4
				c0,0.9,0.3,1.7,0.8,2.4c0.6,0.7,1.6,1.4,3.1,2.1c1.4-0.7,2.4-1.4,3-2.1c0.6-0.7,0.9-1.5,0.9-2.4c0-1-0.4-1.8-1.1-2.4
				C982.1,10467.8,981.2,10467.5,980,10467.5z"/>
			<path class="st2" d="M1009.5,10472.5c0,3.4-0.7,5.9-2,7.6c-1.3,1.7-3.2,2.5-5.7,2.5c-2.4,0-4.3-0.9-5.6-2.6c-1.3-1.7-2-4.2-2-7.5
				c0-6.7,2.5-10,7.6-10c2.5,0,4.4,0.9,5.7,2.6C1008.9,10466.8,1009.5,10469.3,1009.5,10472.5z M999.8,10472.6
				c0,1.9,0.2,3.2,0.5,4.2c0.3,0.9,0.9,1.4,1.6,1.4c1.4,0,2.1-1.8,2.1-5.5c0-3.7-0.7-5.5-2.1-5.5c-0.7,0-1.3,0.5-1.6,1.4
				C1000,10469.3,999.8,10470.7,999.8,10472.6z M1024.6,10462.9l-17.8,32.1h-5.3l17.8-32.1H1024.6z M1032,10485.4
				c0,3.4-0.7,5.9-2,7.6c-1.3,1.7-3.2,2.5-5.7,2.5c-2.4,0-4.3-0.9-5.6-2.6c-1.3-1.7-2-4.2-2-7.5c0-6.7,2.5-10,7.6-10
				c2.5,0,4.4,0.9,5.7,2.6C1031.4,10479.7,1032,10482.1,1032,10485.4z M1022.3,10485.4c0,1.9,0.2,3.2,0.5,4.2
				c0.3,0.9,0.9,1.4,1.6,1.4c1.4,0,2.1-1.8,2.1-5.5c0-3.7-0.7-5.5-2.1-5.5c-0.7,0-1.3,0.5-1.6,1.4
				C1022.5,10482.2,1022.3,10483.5,1022.3,10485.4z"/>
		</g>
	</g>
	<g id="Group_162636" transform="translate(-763.248 -10104.908)">
		<g id="Group_162635">
			<rect id="Rectangle_147905" x="1163.2" y="10199.9" class="st3" width="86.8" height="144.8"/>
			<rect id="Rectangle_147906" x="1163.2" y="10344.7" class="st3" width="86.8" height="112.9"/>
		</g>
		<g id="Group_162637">
			<path id="Path_83295" class="st4" d="M850.1,10175.3h351.7v24.3"/>
			<path id="Path_83296" class="st4" d="M1250,10402.3h351.7v66.9"/>
			<g id="Group_162633" transform="translate(-48.92 -8.172)">
				<g class="st1">
					<path class="st5" d="M1330.5,10245.6c-1.7,0-3,0.6-4,1.9s-1.4,3.1-1.4,5.4c0,4.8,1.8,7.2,5.4,7.2c1.5,0,3.3-0.4,5.5-1.1v3.8
						c-1.8,0.7-3.7,1.1-5.9,1.1c-3.1,0-5.5-0.9-7.1-2.8c-1.7-1.9-2.5-4.6-2.5-8.1c0-2.2,0.4-4.2,1.2-5.9c0.8-1.7,2-3,3.5-3.9
						c1.5-0.9,3.3-1.3,5.3-1.3c2.1,0,4.2,0.5,6.3,1.5l-1.5,3.7c-0.8-0.4-1.6-0.7-2.4-1S1331.3,10245.6,1330.5,10245.6z"/>
					<path class="st5" d="M1357.5,10263.5h-4.5v-17.6h-7.9v17.6h-4.5v-21.4h16.9V10263.5z"/>
					<path class="st5" d="M1376.4,10242.1v3.8h-9v17.7h-4.5v-21.4H1376.4z"/>
				</g>
				<g class="st1">
					<path class="st5" d="M1345.5,10346.5h-10.4v-28.5l0.1-4.7l0.2-5.1c-1.7,1.7-2.9,2.9-3.6,3.4l-5.7,4.5l-5-6.3l15.9-12.6h8.6
						V10346.5z"/>
					<path class="st5" d="M1358.8,10325.6c0-9.7,2.1-17,6.2-21.8c4.1-4.8,10.3-7.1,18.5-7.1c2.8,0,5,0.2,6.6,0.5v8.3
						c-2-0.4-4-0.7-5.9-0.7c-3.6,0-6.5,0.5-8.7,1.6s-3.9,2.7-5.1,4.8c-1.1,2.1-1.8,5.1-2,9h0.4c2.2-3.8,5.8-5.7,10.7-5.7
						c4.4,0,7.8,1.4,10.3,4.1c2.5,2.8,3.7,6.6,3.7,11.5c0,5.3-1.5,9.4-4.4,12.5c-3,3.1-7.1,4.6-12.3,4.6c-3.6,0-6.8-0.8-9.5-2.5
						c-2.7-1.7-4.8-4.1-6.3-7.4S1358.8,10330.1,1358.8,10325.6z M1376.6,10338.9c2.2,0,3.9-0.7,5.1-2.2c1.2-1.5,1.8-3.6,1.8-6.4
						c0-2.4-0.6-4.3-1.7-5.7c-1.1-1.4-2.8-2.1-5-2.1c-2.1,0-3.9,0.7-5.4,2.1s-2.2,3-2.2,4.8c0,2.7,0.7,4.9,2.1,6.8
						S1374.4,10338.9,1376.6,10338.9z"/>
					<path class="st5" d="M1399.7,10341.7c0-1.9,0.5-3.3,1.5-4.3s2.5-1.4,4.4-1.4c1.9,0,3.3,0.5,4.3,1.5c1,1,1.5,2.4,1.5,4.2
						c0,1.8-0.5,3.2-1.6,4.2c-1,1-2.5,1.5-4.3,1.5c-1.9,0-3.3-0.5-4.4-1.5C1400.2,10344.9,1399.7,10343.5,1399.7,10341.7z"/>
					<path class="st5" d="M1452.6,10346.5h-34.4v-7.2l12.4-12.5c3.7-3.8,6.1-6.4,7.2-7.8c1.1-1.4,1.9-2.8,2.4-4s0.7-2.5,0.7-3.8
						c0-2-0.5-3.4-1.6-4.4c-1.1-1-2.5-1.4-4.4-1.4c-1.9,0-3.8,0.4-5.6,1.3s-3.7,2.1-5.6,3.7l-5.7-6.7c2.4-2.1,4.4-3.5,6-4.4
						s3.3-1.5,5.2-2s4-0.7,6.3-0.7c3.1,0,5.8,0.6,8.2,1.7s4.2,2.7,5.5,4.7s2,4.3,2,6.9c0,2.3-0.4,4.4-1.2,6.4c-0.8,2-2,4-3.7,6.1
						c-1.7,2.1-4.6,5.1-8.8,8.9l-6.3,6v0.5h21.5V10346.5z"/>
					<path class="st5" d="M1480.4,10311.9c0,5.2-1,9-3,11.6c-2,2.6-4.9,3.9-8.8,3.9c-3.7,0-6.6-1.3-8.6-4c-2-2.7-3-6.5-3-11.5
						c0-10.3,3.9-15.4,11.6-15.4c3.8,0,6.7,1.3,8.7,4C1479.4,10303.2,1480.4,10307,1480.4,10311.9z M1465.4,10312
						c0,2.9,0.3,5,0.8,6.4c0.5,1.4,1.3,2.1,2.4,2.1c2.2,0,3.2-2.8,3.2-8.5c0-5.6-1.1-8.4-3.2-8.4c-1.1,0-1.9,0.7-2.4,2.1
						C1465.7,10307,1465.4,10309.1,1465.4,10312z M1503.5,10297.2l-27.3,49.3h-8.1l27.3-49.3H1503.5z M1514.9,10331.6
						c0,5.1-1,9-3,11.6c-2,2.6-4.9,3.9-8.8,3.9c-3.7,0-6.6-1.3-8.6-4c-2-2.7-3-6.5-3-11.5c0-10.3,3.9-15.4,11.6-15.4
						c3.8,0,6.7,1.3,8.7,4C1513.9,10322.9,1514.9,10326.7,1514.9,10331.6z M1499.9,10331.7c0,2.9,0.3,5,0.8,6.4
						c0.5,1.4,1.3,2.1,2.4,2.1c2.2,0,3.2-2.8,3.2-8.5c0-5.6-1.1-8.4-3.2-8.4c-1.1,0-1.9,0.7-2.4,2.1
						C1500.2,10326.7,1499.9,10328.8,1499.9,10331.7z"/>
				</g>
				<g class="st1">
					<path class="st5" d="M930.1,10144.1c0,6.3-1.3,11.1-4,14.2c-2.7,3.1-6.7,4.7-12.1,4.7c-1.9,0-3.3-0.1-4.3-0.3v-5.4
						c1.2,0.3,2.5,0.5,3.9,0.5c2.3,0,4.1-0.3,5.6-1c1.5-0.7,2.6-1.7,3.4-3.1c0.8-1.4,1.2-3.4,1.3-5.9h-0.3c-0.8,1.4-1.8,2.3-2.9,2.9
						s-2.5,0.8-4.2,0.8c-2.8,0-5-0.9-6.6-2.7c-1.6-1.8-2.4-4.3-2.4-7.5c0-3.4,1-6.2,2.9-8.2c2-2,4.6-3,8-3c2.4,0,4.4,0.6,6.2,1.7
						c1.8,1.1,3.1,2.7,4.1,4.8C929.6,10138.6,930.1,10141.2,930.1,10144.1z M918.5,10135.5c-1.4,0-2.5,0.5-3.3,1.5s-1.2,2.4-1.2,4.2
						c0,1.6,0.4,2.8,1.1,3.7c0.7,0.9,1.8,1.4,3.3,1.4c1.4,0,2.6-0.5,3.5-1.4c1-0.9,1.5-1.9,1.5-3.1c0-1.7-0.5-3.2-1.4-4.4
						S919.9,10135.5,918.5,10135.5z"/>
					<path class="st5" d="M934.3,10159.4c0-1.2,0.3-2.2,1-2.8s1.6-0.9,2.9-0.9c1.2,0,2.2,0.3,2.8,1c0.7,0.6,1,1.6,1,2.8
						c0,1.2-0.3,2.1-1,2.7c-0.7,0.7-1.6,1-2.8,1c-1.2,0-2.2-0.3-2.9-1C934.6,10161.5,934.3,10160.5,934.3,10159.4z"/>
					<path class="st5" d="M963.1,10162.5h-6.8v-18.6l0.1-3.1l0.1-3.3c-1.1,1.1-1.9,1.9-2.4,2.2l-3.7,3l-3.3-4.1l10.3-8.2h5.6
						V10162.5z"/>
					<path class="st5" d="M986.9,10140c0,3.4-0.7,5.9-2,7.6c-1.3,1.7-3.2,2.5-5.7,2.5c-2.4,0-4.3-0.9-5.6-2.6c-1.3-1.7-2-4.2-2-7.5
						c0-6.7,2.5-10,7.6-10c2.5,0,4.4,0.9,5.7,2.6C986.2,10134.3,986.9,10136.7,986.9,10140z M977.1,10140c0,1.9,0.2,3.2,0.5,4.2
						c0.3,0.9,0.9,1.4,1.6,1.4c1.4,0,2.1-1.8,2.1-5.5c0-3.7-0.7-5.5-2.1-5.5c-0.7,0-1.3,0.5-1.6,1.4
						C977.3,10136.8,977.1,10138.1,977.1,10140z M1002,10130.4l-17.8,32.1h-5.3l17.8-32.1H1002z M1009.4,10152.8
						c0,3.4-0.7,5.9-2,7.6c-1.3,1.7-3.2,2.5-5.7,2.5c-2.4,0-4.3-0.9-5.6-2.6c-1.3-1.7-2-4.2-2-7.5c0-6.7,2.5-10,7.6-10
						c2.5,0,4.4,0.9,5.7,2.6C1008.7,10147.1,1009.4,10149.6,1009.4,10152.8z M999.6,10152.8c0,1.9,0.2,3.2,0.5,4.2
						c0.3,0.9,0.9,1.4,1.6,1.4c1.4,0,2.1-1.8,2.1-5.5c0-3.7-0.7-5.5-2.1-5.5c-0.7,0-1.3,0.5-1.6,1.4
						C999.8,10149.6,999.6,10151,999.6,10152.8z"/>
				</g>
				<g class="st1">
					<path class="st5" d="M1501,10548.5l12.1-26.4h-15.8v-5.7h23v4.3l-12.2,27.8H1501z"/>
					<path class="st5" d="M1524.3,10545.4c0-1.2,0.3-2.2,1-2.8c0.7-0.6,1.6-0.9,2.9-0.9c1.2,0,2.2,0.3,2.8,1s1,1.6,1,2.8
						c0,1.2-0.3,2.1-1,2.7c-0.7,0.7-1.6,1-2.8,1c-1.2,0-2.2-0.3-2.9-1C1524.6,10547.5,1524.3,10546.5,1524.3,10545.4z"/>
					<path class="st5" d="M1553.1,10548.5h-6.8v-18.6l0.1-3.1l0.1-3.3c-1.1,1.1-1.9,1.9-2.4,2.2l-3.7,3l-3.3-4.1l10.3-8.2h5.6
						V10548.5z"/>
					<path class="st5" d="M1576.9,10526c0,3.4-0.7,5.9-2,7.6c-1.3,1.7-3.2,2.5-5.7,2.5c-2.4,0-4.3-0.9-5.6-2.6c-1.3-1.7-2-4.2-2-7.5
						c0-6.7,2.5-10,7.6-10c2.5,0,4.4,0.9,5.7,2.6C1576.2,10520.3,1576.9,10522.7,1576.9,10526z M1567.1,10526c0,1.9,0.2,3.2,0.5,4.2
						c0.3,0.9,0.9,1.4,1.6,1.4c1.4,0,2.1-1.8,2.1-5.5c0-3.7-0.7-5.5-2.1-5.5c-0.7,0-1.3,0.5-1.6,1.4
						C1567.3,10522.8,1567.1,10524.1,1567.1,10526z M1592,10516.4l-17.8,32.1h-5.3l17.8-32.1H1592z M1599.4,10538.8
						c0,3.4-0.7,5.9-2,7.6c-1.3,1.7-3.2,2.5-5.7,2.5c-2.4,0-4.3-0.9-5.6-2.6c-1.3-1.7-2-4.2-2-7.5c0-6.7,2.5-10,7.6-10
						c2.5,0,4.4,0.9,5.7,2.6C1598.7,10533.1,1599.4,10535.6,1599.4,10538.8z M1589.6,10538.8c0,1.9,0.2,3.2,0.5,4.2
						c0.3,0.9,0.9,1.4,1.6,1.4c1.4,0,2.1-1.8,2.1-5.5c0-3.7-0.7-5.5-2.1-5.5c-0.7,0-1.3,0.5-1.6,1.4
						C1589.8,10535.6,1589.6,10537,1589.6,10538.8z"/>
				</g>
			</g>
			<g id="Group_162634" transform="translate(-34.92 -19.172)">
				<rect id="Rectangle_147901" x="798.2" y="10124.1" class="st6" width="86.8" height="144.8"/>
				<rect id="Rectangle_147902" x="1596.2" y="10487.9" class="st6" width="86.8" height="112.9"/>
			</g>
		</g>
	</g>
</g>
</svg>
